<svg width="133" height="133" viewBox="0 0 70 68" fill="none" xmlns="http://www.w3.org/2000/svg">
<path d="M29.7202 41.0746V40.878L29.9471 40.8515C29.979 40.846 29.9985 40.8382 30.0063 40.8296C30.0133 40.821 30.0172 40.8007 30.0172 40.7687V39.7035C30.0172 39.485 29.9822 39.3242 29.9128 39.2212C29.8426 39.1182 29.7296 39.0659 29.5729 39.0659C29.4942 39.0659 29.4162 39.0777 29.3398 39.1011C29.2627 39.1245 29.191 39.1518 29.1239 39.1838C29.0569 39.2158 28.9969 39.2509 28.9431 39.2884C28.8893 39.3266 28.8464 39.3609 28.8144 39.3929V40.764C28.8144 40.7992 28.8183 40.821 28.8254 40.8296C28.8324 40.8382 28.8519 40.846 28.8846 40.8515L29.1465 40.8819V41.0739H28.2259V40.8772L28.4528 40.8507C28.4847 40.8452 28.5042 40.8366 28.512 40.8265C28.519 40.8163 28.5229 40.7953 28.5229 40.7633V38.1357C28.5229 38.0866 28.5042 38.0554 28.466 38.0444L28.2002 37.9617L28.2353 37.7783H28.8152V39.1057C28.9314 39.0215 29.053 38.9497 29.1793 38.8896C29.3055 38.8295 29.4544 38.7998 29.6267 38.7998C29.8535 38.7998 30.0242 38.863 30.1388 38.9895C30.2534 39.1159 30.3111 39.3297 30.3111 39.6294V40.7648C30.3111 40.7999 30.315 40.8218 30.322 40.8304C30.329 40.839 30.3485 40.8468 30.3813 40.8522L30.6432 40.8827V41.0746H29.7202Z" fill="#0089B1"/>
<path d="M32.8395 41.1269C32.6594 41.1269 32.5043 41.098 32.3749 41.0395C32.2455 40.9818 32.1395 40.9006 32.0561 40.7976C31.9735 40.6946 31.9127 40.5705 31.8753 40.4261C31.8371 40.2817 31.8184 40.1241 31.8184 39.9524C31.8184 39.7807 31.8402 39.6239 31.8838 39.4826C31.9275 39.3414 31.993 39.2204 32.0803 39.1205C32.1676 39.0199 32.2783 38.9418 32.4116 38.8849C32.5456 38.8279 32.7023 38.7998 32.8824 38.7998C33.0625 38.7998 33.216 38.8279 33.3423 38.8825C33.4686 38.9379 33.5723 39.016 33.6518 39.1159C33.7321 39.2165 33.7897 39.3351 33.8264 39.4717C33.8622 39.6083 33.8809 39.7581 33.8809 39.9212C33.8809 40.1046 33.8607 40.2708 33.8201 40.4191C33.7796 40.5674 33.7165 40.6938 33.6307 40.7991C33.545 40.9045 33.4366 40.9849 33.3057 41.0418C33.1755 41.098 33.0196 41.1269 32.8395 41.1269ZM32.8528 40.8865C33.3384 40.8865 33.5816 40.5752 33.5816 39.9524C33.5816 39.6528 33.5239 39.4288 33.4093 39.2797C33.2947 39.1315 33.1162 39.0573 32.8754 39.0573C32.6314 39.0573 32.4443 39.1322 32.3149 39.2821C32.1855 39.4319 32.1208 39.6567 32.1208 39.9571C32.1208 40.2568 32.1816 40.487 32.304 40.647C32.4248 40.8062 32.608 40.8865 32.8528 40.8865Z" fill="#0089B1"/>
<path d="M36.5645 41.0042C36.4803 41.0362 36.3914 41.0643 36.2986 41.0893C36.2059 41.1142 36.1069 41.1267 36.0017 41.1267C35.8099 41.1267 35.668 41.0799 35.576 40.987C35.4848 40.8942 35.4388 40.76 35.4388 40.5851V39.1313C35.4388 39.1165 35.4373 39.1056 35.4342 39.0985C35.4311 39.0915 35.4209 39.0876 35.4038 39.0876H35.0811V38.8909C35.1621 38.8792 35.2292 38.8629 35.2814 38.841C35.3336 38.8191 35.3757 38.7864 35.4077 38.7427C35.4396 38.699 35.4646 38.6412 35.4841 38.5702C35.5028 38.4992 35.5199 38.4095 35.5339 38.3018H35.7304V38.7989C35.7304 38.8137 35.7319 38.8246 35.7351 38.8316C35.7382 38.8387 35.7483 38.8426 35.7655 38.8426H36.4156V39.0868H35.7312V40.4751C35.7312 40.6148 35.7545 40.7147 35.8005 40.774C35.8473 40.8341 35.9338 40.8637 36.0625 40.8637C36.1349 40.8637 36.2067 40.8552 36.2784 40.8372C36.3493 40.82 36.4171 40.7998 36.481 40.7763L36.5645 41.0042Z" fill="#0089B1"/>
<path d="M39.3777 40.9433C39.2787 41.0018 39.1672 41.0463 39.0441 41.0783C38.9209 41.1103 38.7814 41.1267 38.6278 41.1267C38.4361 41.1267 38.2747 41.0963 38.1437 41.0346C38.0128 40.9737 37.9083 40.8895 37.8296 40.7833C37.7509 40.6772 37.6947 40.5523 37.6612 40.4103C37.6277 40.2675 37.6113 40.113 37.6113 39.9475C37.6113 39.7524 37.6363 39.5831 37.6854 39.4387C37.7345 39.2944 37.8031 39.175 37.8904 39.0805C37.9777 38.9861 38.079 38.9151 38.196 38.8691C38.3121 38.8222 38.4376 38.7988 38.5709 38.7988C38.6987 38.7988 38.8165 38.8176 38.924 38.8558C39.0316 38.894 39.1244 38.9533 39.2008 39.0345C39.2779 39.1164 39.338 39.2226 39.3816 39.3529C39.4253 39.484 39.4471 39.6424 39.4471 39.8289C39.4471 39.8609 39.4463 39.8921 39.4447 39.9226C39.4432 39.953 39.4408 39.9842 39.4385 40.0162H37.9161C37.9192 40.1411 37.934 40.2558 37.9621 40.3588C37.9894 40.4618 38.0323 40.5508 38.0907 40.6249C38.1492 40.699 38.224 40.7568 38.3152 40.7974C38.4072 40.8379 38.5179 40.8582 38.6489 40.8582C38.7159 40.8582 38.7759 40.8551 38.8297 40.8497C38.8835 40.8442 38.9342 40.834 38.9825 40.8216C39.0308 40.8091 39.0768 40.7919 39.122 40.7716C39.1672 40.7513 39.2156 40.7264 39.2678 40.6975L39.3777 40.9433ZM39.1462 39.7813C39.1431 39.6448 39.1267 39.53 39.0963 39.4387C39.0659 39.3467 39.0246 39.2725 38.9724 39.2163C38.9201 39.1594 38.8593 39.1188 38.7915 39.0938C38.7229 39.0688 38.6512 39.0564 38.5756 39.0564C38.4945 39.0564 38.4158 39.0688 38.3402 39.0938C38.2646 39.1188 38.1975 39.1594 38.1391 39.2163C38.0806 39.2733 38.033 39.3474 37.9956 39.4387C37.9574 39.53 37.9348 39.6448 37.9255 39.7813H39.1462Z" fill="#0089B1"/>
<path d="M40.6387 41.0746V40.878L40.931 40.8515C40.9629 40.8483 40.9824 40.8413 40.9902 40.8296C40.9972 40.8179 41.0011 40.796 41.0011 40.764V38.1357C41.0011 38.0866 40.9824 38.0554 40.9442 38.0444L40.6784 37.9617L40.7135 37.7783H41.2935V40.7648C41.2935 40.7999 41.2974 40.8218 41.3044 40.8304C41.3114 40.839 41.3317 40.8468 41.3636 40.8522L41.6474 40.8827V41.0746H40.6387Z" fill="#0089B1"/>
<path d="M22.7764 66.8233C22.8138 66.6056 22.8793 66.3192 22.9728 65.9626C23.0663 65.6067 23.177 65.2275 23.3041 64.8263C23.4312 64.4252 23.566 64.0218 23.7087 63.6175C23.8513 63.2125 23.9901 62.8489 24.1241 62.5266C24.2216 62.294 24.3081 62.1122 24.3829 61.9811C24.4578 61.85 24.5404 61.7392 24.63 61.6494C24.7345 61.6642 24.8436 61.6908 24.9559 61.7282C25.0681 61.7657 25.1765 61.811 25.2817 61.8632C25.3862 61.9155 25.4797 61.9702 25.5623 62.0263C25.645 62.0825 25.7081 62.1371 25.7533 62.1894C25.5514 62.4298 25.3729 62.7029 25.2194 63.0104C25.0658 63.3179 24.9107 63.712 24.7532 64.1911C25.1578 63.8314 25.5156 63.4864 25.8258 63.1563C26.1368 62.8262 26.4268 62.4587 26.6965 62.0536C26.7417 62.0162 26.8205 61.9975 26.9327 61.9975C27.0372 61.9975 27.1385 62.0146 27.2359 62.0482C27.3334 62.0817 27.4004 62.1286 27.4378 62.1887C27.303 62.5484 27.2359 62.905 27.2359 63.257C27.2359 63.5871 27.2843 63.8345 27.3817 63.9991C27.3739 64.0444 27.3233 64.1302 27.2297 64.2574C27.1362 64.3854 27.0333 64.5048 26.921 64.6172C26.7191 64.5126 26.5391 64.3683 26.3816 64.1841C26.2241 64.0007 26.108 63.8001 26.0332 63.5824C25.6808 63.8298 25.3815 64.0717 25.1344 64.3082C24.8873 64.5446 24.6753 64.8068 24.4999 65.0956C24.3237 65.3843 24.174 65.716 24.0501 66.0913C23.9269 66.4667 23.8084 66.9123 23.6962 67.4297C23.6292 67.4219 23.5481 67.3977 23.4545 67.3563C23.361 67.315 23.2675 67.2642 23.1739 67.2041C23.0804 67.1441 22.9962 67.0801 22.9214 67.013C22.8473 66.9474 22.799 66.8834 22.7764 66.8233Z" fill="#F8B41B"/>
<path d="M32.1582 62.3915C32.1278 62.8566 32.0459 63.2561 31.911 63.5893C31.7762 63.9233 31.5829 64.2152 31.3327 64.4665C31.0817 64.7178 30.7769 64.9449 30.4167 65.147C30.0574 65.3491 29.6372 65.545 29.1586 65.7323C29.1586 65.7775 29.157 65.8243 29.1531 65.8727C29.1492 65.9219 29.1477 65.9718 29.1477 66.0249C29.1477 66.1225 29.1547 66.2239 29.1703 66.3285C29.1851 66.4338 29.2116 66.5306 29.249 66.6211C29.2864 66.7109 29.3387 66.7842 29.4065 66.8404C29.4735 66.8966 29.56 66.9247 29.6645 66.9247C29.8664 66.9247 30.0652 66.8794 30.26 66.7897C30.4549 66.6999 30.6404 66.5891 30.8166 66.458C30.9928 66.3269 31.1573 66.1841 31.3108 66.0304C31.4644 65.8766 31.6008 65.7362 31.7208 65.6082C31.7957 65.6761 31.8596 65.7393 31.9118 65.7994C31.5751 66.2497 31.2056 66.6227 30.8049 66.9184C30.4043 67.2142 30.0239 67.4038 29.6645 67.4866C29.1477 67.4265 28.7447 67.2368 28.457 66.9184C28.1686 66.6 28.0244 66.2153 28.0244 65.7658C28.0244 65.4584 28.0673 65.1454 28.1538 64.8262C28.2396 64.5079 28.3596 64.2004 28.5132 63.9038C28.6667 63.6081 28.8468 63.3287 29.0526 63.0657C29.2584 62.8035 29.4798 62.5749 29.7152 62.3798C29.9514 62.1847 30.1946 62.0309 30.4456 61.9186C30.6966 61.8062 30.9452 61.75 31.1923 61.75C31.5369 61.7953 31.8588 62.0091 32.1582 62.3915ZM31.3833 62.7629C31.1814 62.7926 30.971 62.8753 30.7543 63.0103C30.5368 63.1453 30.3325 63.3256 30.1416 63.5503C29.9506 63.7751 29.7768 64.0381 29.6193 64.3377C29.4618 64.6374 29.3387 64.9605 29.2482 65.3054C29.8477 65.0057 30.3458 64.6358 30.7426 64.1973C31.1401 63.7587 31.3529 63.2803 31.3833 62.7629Z" fill="#F8B41B"/>
<path d="M33.2256 66.3281C33.2256 65.998 33.3043 65.5352 33.4618 64.939C33.6192 64.3428 33.8398 63.6475 34.1244 62.8523C34.589 61.5849 35.0247 60.5299 35.4332 59.6863C35.8416 58.8427 36.24 58.1848 36.6297 57.7119C36.7194 57.7267 36.8301 57.7642 36.961 57.8243C37.092 57.8844 37.2214 57.9499 37.3484 58.0209C37.4755 58.092 37.5901 58.1653 37.6914 58.2402C37.7927 58.3151 37.8582 58.3752 37.8878 58.4205C37.304 59.1104 36.7903 59.8525 36.3483 60.6477C35.9063 61.4429 35.5018 62.3536 35.1346 63.3806C34.8205 64.2655 34.5804 65.0623 34.4159 65.7709C34.2506 66.4795 34.1688 67.0702 34.1688 67.5424C34.1688 67.6696 34.1688 67.7484 34.1688 67.7788C34.1688 67.8085 34.1727 67.8389 34.1797 67.8686C34.0745 67.8537 33.9848 67.8272 33.91 67.7897C33.8352 67.7523 33.7868 67.707 33.7642 67.6547C33.7494 67.6173 33.7081 67.5626 33.6411 67.4916C33.5732 67.4206 33.5132 67.366 33.461 67.3285C33.394 67.2833 33.3371 67.1654 33.2926 66.9742C33.2482 66.7838 33.2256 66.5684 33.2256 66.3281Z" fill="#F8B41B"/>
<path d="M40.326 62.5038C40.4008 62.5038 40.4889 62.5171 40.5902 62.5428C40.6916 62.5694 40.7828 62.6029 40.8654 62.6443C40.948 62.6856 41.0174 62.7286 41.0727 62.7738C41.1289 62.8191 41.1569 62.8605 41.1569 62.8971C41.0073 63.2124 40.8685 63.5292 40.7414 63.8476C40.6144 64.166 40.506 64.4719 40.4156 64.7646C40.326 65.0572 40.2566 65.3311 40.2083 65.5855C40.1591 65.8407 40.135 66.0616 40.135 66.2489C40.135 66.4588 40.1568 66.6336 40.202 66.7717C40.2472 66.9106 40.3221 67.0097 40.4265 67.0698C40.3369 67.1299 40.2207 67.1783 40.0781 67.2157C39.9354 67.2532 39.8084 67.2719 39.6961 67.2719C39.2916 67.2719 39.0897 66.9949 39.0897 66.4393C39.0897 66.0116 39.2315 65.4271 39.5168 64.685C39.3664 65.0283 39.1949 65.3514 39 65.6534C38.8051 65.9562 38.6071 66.2231 38.4045 66.4541C38.2026 66.6859 37.9983 66.8739 37.7926 67.0199C37.5868 67.165 37.3973 67.2532 37.2251 67.2829C36.9476 67.2829 36.7231 67.1564 36.5508 66.9044C36.3785 66.6523 36.292 66.33 36.292 65.9383C36.292 65.5169 36.3816 65.072 36.5617 64.6054C36.7418 64.1387 36.9717 63.7056 37.2524 63.306C37.533 62.9073 37.8385 62.5741 38.1683 62.3064C38.4972 62.0387 38.816 61.9053 39.1232 61.9053C39.198 61.9279 39.2822 61.9732 39.3757 62.0403C39.4693 62.1074 39.5589 62.1862 39.6455 62.276C39.7312 62.3657 39.8045 62.457 39.8645 62.5506C39.9245 62.6443 39.958 62.7247 39.9658 62.7918C39.6665 62.837 39.357 62.983 39.039 63.2296C38.7202 63.4762 38.4325 63.7743 38.1737 64.1215C37.9149 64.4696 37.7037 64.8418 37.5392 65.2383C37.374 65.6347 37.2921 66.0054 37.2921 66.3495C37.2921 66.4916 37.3443 66.5813 37.4496 66.6188C37.6671 66.5735 37.9181 66.3878 38.2026 66.0623C38.4871 65.7361 38.8316 65.232 39.2362 64.5492C39.311 64.4142 39.3952 64.2644 39.4888 64.0989C39.5823 63.9343 39.6782 63.7618 39.7756 63.5815C39.8731 63.4013 39.9682 63.2202 40.0625 63.036C40.1553 62.8542 40.2433 62.6763 40.326 62.5038Z" fill="#F8B41B"/>
<path d="M45.7872 66.9804C45.7045 67.1076 45.5751 67.2114 45.3997 67.2895C45.2236 67.3683 45.0567 67.4151 44.9001 67.4299C44.773 67.2801 44.6304 67.0757 44.4729 66.8173C44.3154 66.5583 44.1658 66.257 44.0231 65.9121C43.6412 66.257 43.2592 66.57 42.8772 66.8517C42.4953 67.1326 42.139 67.3706 41.8101 67.5657C41.7275 67.5509 41.6596 67.5056 41.6082 67.4307C41.5552 67.3558 41.5256 67.2583 41.5186 67.1381C41.6682 67.0554 41.8459 66.9469 42.0525 66.8119C42.2583 66.6769 42.468 66.5286 42.6816 66.3678C42.8952 66.2063 43.101 66.0377 43.2997 65.8614C43.4985 65.685 43.6684 65.5149 43.8111 65.3494C43.6833 65.0498 43.5655 64.74 43.4572 64.4216C43.3488 64.1032 43.2553 63.7957 43.1758 63.4992C43.0971 63.2034 43.0355 62.9334 42.9903 62.6891C42.9451 62.4457 42.9225 62.249 42.9225 62.0984C42.9225 61.9938 42.9357 61.9244 42.9614 61.89C42.9879 61.8565 43.0495 61.8393 43.147 61.8393C43.2218 61.8393 43.3138 61.8471 43.4221 61.8619C43.5305 61.8768 43.6412 61.8955 43.7534 61.9181C43.8657 61.9408 43.9779 61.9649 44.0902 61.9915C44.2024 62.018 44.2998 62.0461 44.3825 62.0758C44.3677 62.1585 44.3599 62.2295 44.3599 62.2896C44.3599 62.3497 44.3599 62.4355 44.3599 62.5487C44.3599 62.8413 44.384 63.1394 44.4331 63.443C44.4815 63.7465 44.5625 64.0751 44.6748 64.427C44.9819 64.0743 45.2664 63.6826 45.5291 63.2518C45.791 62.821 46.0569 62.3052 46.3266 61.7051C46.5137 61.7425 46.675 61.7972 46.8099 61.8682C46.9447 61.9392 47.0305 62.0164 47.0687 62.0984C46.986 62.4433 46.7545 62.8788 46.3726 63.4032C45.9906 63.9284 45.5034 64.4871 44.9118 65.0794C45.0162 65.3643 45.1441 65.6663 45.2937 65.9847C45.4426 66.3039 45.6071 66.6355 45.7872 66.9804Z" fill="#F8B41B"/>
<path d="M10.7601 51.6408C10.5871 51.6517 10.5005 51.7274 10.5005 51.8687V55.5575C9.94864 55.8283 9.30788 56.0156 8.5767 56.1178C7.8463 56.2208 7.15098 56.2723 6.49073 56.2723C5.38694 56.2723 4.45387 56.1178 3.69073 55.8096C2.92759 55.5013 2.311 55.0729 1.84017 54.5259C1.36935 53.9788 1.0287 53.3288 0.817458 52.5757C0.60621 51.8226 0.500977 51.0079 0.500977 50.13C0.500977 49.263 0.62258 48.4647 0.866567 47.7334C1.10977 47.0022 1.4777 46.3662 1.97035 45.8239C2.463 45.2823 3.08193 44.8601 3.8287 44.5565C4.57547 44.253 5.44619 44.1016 6.4424 44.1016C7.09173 44.1016 7.74652 44.1773 8.40677 44.3287C9.06701 44.4808 9.62436 44.7079 10.0788 45.0115V47.7904L8.68271 47.6765L8.42314 46.1977C8.40131 46.111 8.37948 46.0431 8.35844 45.9948C8.33661 45.9464 8.28282 45.9113 8.1963 45.8894C7.94686 45.8028 7.65532 45.7326 7.31935 45.6779C6.98416 45.6241 6.65365 45.5968 6.32937 45.5968C5.13906 45.5968 4.19975 45.9924 3.513 46.7829C2.82548 47.5742 2.48249 48.6839 2.48249 50.1144C2.48249 51.6205 2.83171 52.777 3.52937 53.5839C4.22703 54.3909 5.24741 54.7943 6.58895 54.7943C6.88127 54.7943 7.19463 54.7756 7.5306 54.7373C7.86579 54.6991 8.15265 54.6538 8.39118 54.5992C8.46679 54.5774 8.52369 54.5508 8.56189 54.5181C8.59931 54.4853 8.61879 54.4205 8.61879 54.323V51.7391H6.57258L6.78383 50.5202H11.4422V51.5768L10.7601 51.6408Z" fill="#0089B1"/>
<path d="M20.8885 45.7913C20.8885 45.6719 20.8745 45.5908 20.848 45.5478C20.8207 45.5049 20.7474 45.4776 20.6289 45.4667L19.6062 45.3527V44.3125H23.9403V45.3527L22.8529 45.4831C22.7336 45.5049 22.6603 45.5315 22.6338 45.5642C22.6065 45.597 22.5933 45.6727 22.5933 45.7921V52.032C22.5933 53.4944 22.2035 54.5667 21.4248 55.2495C20.6453 55.9323 19.5524 56.2734 18.1462 56.2734C16.5988 56.2734 15.4841 55.916 14.8021 55.2011C14.12 54.4863 13.7794 53.4133 13.7794 51.9836V45.7913C13.7794 45.6719 13.7653 45.5908 13.7388 45.5478C13.7115 45.5049 13.6391 45.4776 13.5198 45.4667L12.4971 45.3527V44.3125H17.026V45.3527L15.9386 45.4831C15.8193 45.5049 15.7461 45.5315 15.7196 45.5642C15.6923 45.597 15.679 45.6727 15.679 45.7921V51.7074C15.679 52.7476 15.8739 53.5061 16.2637 53.9822C16.6534 54.459 17.3129 54.697 18.2436 54.697C19.1634 54.697 19.8346 54.4777 20.2563 54.0391C20.678 53.6006 20.8893 52.8397 20.8893 51.7558V45.7913H20.8885Z" fill="#0089B1"/>
<path d="M31.5205 56.0773V55.0534L32.5915 54.9075L31.3739 51.8359C31.2765 51.587 31.1549 51.4083 31.0083 51.2998C30.8626 51.1913 30.6482 51.1375 30.3676 51.1375H28.9879V54.5829C28.9879 54.7132 29.0011 54.7944 29.0284 54.8263C29.0549 54.8591 29.1282 54.8857 29.2474 54.9075L30.2865 55.0378V56.0781H25.8223V55.0378L26.845 54.9239C26.9642 54.902 27.0367 54.8724 27.064 54.8342C27.0905 54.7967 27.1046 54.7179 27.1046 54.5985V45.8067C27.1046 45.6873 27.0905 45.6062 27.064 45.5632C27.0367 45.5203 26.9635 45.493 26.845 45.4821L25.8223 45.3682V44.3115H31.0169C31.7528 44.3115 32.3584 44.4036 32.8347 44.5878C33.311 44.7719 33.6867 45.0131 33.9627 45.3112C34.2386 45.6093 34.4335 45.9503 34.5473 46.335C34.6611 46.7198 34.718 47.1178 34.718 47.5298C34.718 48.3859 34.5122 49.0601 34.1014 49.5533C33.6899 50.0465 33.1652 50.4172 32.5268 50.6661C32.7755 50.7855 32.9626 50.9533 33.0865 51.1703C33.2105 51.3872 33.3484 51.69 33.5004 52.0802L34.474 54.5665C34.5387 54.6859 34.6066 54.7616 34.6767 54.7944C34.7469 54.8271 34.842 54.8537 34.9604 54.8755L35.9504 55.0378V56.0781H31.5205V56.0773ZM30.1899 49.7562C30.536 49.7562 30.8633 49.7266 31.172 49.6665C31.4807 49.6072 31.7536 49.4987 31.9921 49.3411C32.2298 49.1842 32.4169 48.9673 32.5518 48.691C32.6866 48.4148 32.7544 48.055 32.7544 47.6102C32.7544 46.8626 32.5299 46.3616 32.0809 46.1072C31.6319 45.8528 30.9631 45.7256 30.076 45.7256H28.9886V49.7554H30.1899V49.7562Z" fill="#0089B1"/>
<path d="M37.1055 56.0775V54.8585L43.598 45.7094H39.2312C39.1447 45.7094 39.0854 45.7172 39.0527 45.7336C39.0199 45.75 38.9934 45.8015 38.9716 45.8881L38.6637 47.3997L37.3003 47.4488V44.3125H45.871V45.5798L39.4588 54.6962H44.1663C44.2528 54.6962 44.312 54.6884 44.3448 54.672C44.3775 54.6556 44.404 54.6041 44.4258 54.5175L44.7345 52.7788H46.0979V56.0775H37.1055Z" fill="#0089B1"/>
<path d="M56.1287 45.7913C56.1287 45.6719 56.1147 45.5908 56.0882 45.5478C56.0609 45.5049 55.9876 45.4776 55.8692 45.4667L54.8464 45.3527V44.3125H59.1805V45.3527L58.0931 45.4831C57.9738 45.5049 57.9006 45.5315 57.8741 45.5642C57.8468 45.597 57.8335 45.6727 57.8335 45.7921V52.032C57.8335 53.4944 57.4438 54.5667 56.665 55.2495C55.8855 55.9323 54.7927 56.2734 53.3864 56.2734C51.8391 56.2734 50.7244 55.916 50.0423 55.2011C49.3602 54.4863 49.0196 53.4133 49.0196 51.9836V45.7913C49.0196 45.6719 49.0056 45.5908 48.9791 45.5478C48.9518 45.5049 48.8793 45.4776 48.76 45.4667L47.7373 45.3527V44.3125H52.2663V45.3527L51.1788 45.4831C51.0596 45.5049 50.9863 45.5315 50.9598 45.5642C50.9325 45.597 50.9193 45.6727 50.9193 45.7921V51.7074C50.9193 52.7476 51.1141 53.5061 51.5039 53.9822C51.8937 54.459 52.5531 54.697 53.4839 54.697C54.4037 54.697 55.0748 54.4777 55.4966 54.0391C55.9183 53.6006 56.1295 52.8397 56.1295 51.7558L56.1287 45.7913Z" fill="#0089B1"/>
<path d="M61.0635 56.0773V55.0371L62.0862 54.9231C62.2055 54.9013 62.278 54.8716 62.3052 54.8334C62.3317 54.7959 62.3458 54.7171 62.3458 54.5977V45.8067C62.3458 45.6873 62.3317 45.6062 62.3052 45.5632C62.278 45.5203 62.2047 45.493 62.0862 45.4821L61.0635 45.3682V44.3115H69.3419V47.2364L67.9622 47.1716L67.7345 45.9207C67.7018 45.7802 67.6098 45.7092 67.4586 45.7092H64.2447V49.4144H68.3028V50.8285H64.2447V54.5821C64.2447 54.7124 64.2579 54.7936 64.2852 54.8256C64.3117 54.8583 64.385 54.8849 64.5042 54.9067L66.8903 55.0371V56.0773H61.0635Z" fill="#0089B1"/>
<path d="M52.252 18.274L47.5243 14.8357L45.7252 9.17947L41.6032 9.15527C42.5853 11.2295 42.8052 13.534 42.2564 16.0491L41.4161 19.8995L40.5383 16.0577C39.7869 12.7692 38.9287 12.0286 38.687 12.0286C38.68 12.0286 38.6722 12.0294 38.6652 12.0302L38.0494 12.1106L38.0283 12.0692C39.0643 18.4761 39.2054 23.892 38.5077 29.1587L38.482 29.3499C39.1882 29.4561 39.9023 29.5762 40.6249 29.7136L40.6272 29.7144C42.0179 29.9617 43.3563 30.2466 44.6503 30.5213C45.2263 30.6438 45.7657 30.7585 46.3098 30.8701C47.3676 31.0839 48.5556 31.3126 49.7537 31.4913L52.2528 29.6956L50.4179 23.9279L52.252 18.274Z" fill="url(#paint0_linear)"/>
<path d="M35.2647 9.6704C34.6926 10.894 34.2545 12.1302 34.2062 13.5177L34.1087 16.2716L32.591 13.9726C31.6969 12.6179 31.5215 10.8402 32.0469 8.87207L25.28 13.6527L25.7609 11.4387C25.9293 10.6654 26.337 9.86003 26.9349 9.06873L24.2183 9.05312L22.3436 14.7163L17.4521 18.2741L19.291 23.9388L17.4529 29.492L19.9513 31.3314C20.4509 31.1082 20.9716 30.8959 21.5095 30.7016C21.6685 30.6454 21.8314 30.583 21.9881 30.5229C22.3155 30.398 22.6484 30.2708 23.0015 30.1686L24.5215 29.7488C24.916 29.6286 25.3112 29.5513 25.6939 29.4764C25.8334 29.4491 25.9722 29.4218 26.1102 29.3929L26.1569 29.3836C26.2583 29.3648 26.3596 29.3453 26.4617 29.3258C26.8834 29.2446 27.3184 29.1611 27.7697 29.1182C29.0154 28.9286 30.371 28.8365 31.9113 28.8365C32.0641 28.8365 32.22 28.8373 32.379 28.8396C32.3182 28.6399 32.2582 28.4401 32.1981 28.2411C31.488 25.8836 30.8028 23.6103 29.6858 21.5969L28.2905 22.4522L27.302 20.9063L26.2411 25.5105L25.1833 23.0024C24.8895 22.3047 24.7679 21.5048 24.8131 20.6652L23.7186 21.8474L23.1558 20.6878C22.6125 19.5672 22.8113 18.7431 23.074 18.2483C23.2798 17.8613 23.59 17.5327 24.0109 17.2604L23.5323 17.0973L23.7553 15.1916L25.446 15.4678C25.5146 14.8747 25.789 14.213 26.6059 13.7182L28.4736 12.5875L28.2756 13.3327C28.5243 13.2711 28.7971 13.2399 29.0972 13.2399C29.4925 13.2399 29.8768 13.2953 30.1309 13.3366L32.1685 13.6691L30.1036 15.2236C30.2852 15.3149 30.4598 15.4358 30.6266 15.5857L31.8863 16.7141L31.6681 16.7656C32.4063 17.1972 33.0728 17.7926 33.5818 18.6385L34.6934 20.488L30.8925 19.5008C32.6339 22.0737 33.5958 24.9206 34.5328 27.6933C34.6388 28.0077 34.7448 28.3215 34.8524 28.6352L34.9584 28.9458C35.1096 28.9575 35.2608 28.97 35.4128 28.9832L35.4339 28.874C36.6102 22.8471 36.5572 16.5432 35.2647 9.6704Z" fill="url(#paint1_linear)"/>
<path d="M26.6211 11.6263C29.2504 9.76903 31.645 8.07717 34.0397 6.38608C32.4931 9.11507 32.158 11.7176 33.3264 13.4875C33.413 11.0418 34.576 9.06512 35.6159 7.02521C37.2747 14.3631 37.7369 21.6792 36.2979 29.0436H37.6348C38.617 21.6347 37.7517 14.3865 36.2067 7.17817C36.2995 7.15007 36.3915 7.1212 36.4835 7.09233C37.171 8.44316 37.8585 9.79478 38.5515 11.1565C39.6857 11.009 40.6772 12.7103 41.3967 15.8614C42.2799 11.8152 41.0015 8.48999 37.8406 5.80626C37.8998 5.73681 37.9591 5.66657 38.0183 5.59712C39.1915 6.2464 40.3646 6.89645 41.4793 7.51373C41.1449 5.2319 39.3029 4.80816 37.3955 4.37505C39.7278 3.28564 41.8886 3.81317 44.0735 4.894C43.7025 3.73045 43.2067 2.64885 41.9923 2.15877C40.1323 1.40805 38.3792 1.67806 36.7906 3.00158C36.7313 2.8853 36.6729 2.76903 36.6136 2.65275C37.5303 2.04327 38.447 1.43458 39.4214 0.786865C37.111 0.305371 35.9549 1.56022 35.2908 3.84595C34.7444 0.843832 34.0989 0.0993507 32.4698 0.132907C33.307 1.45565 34.1909 2.85175 35.0749 4.24707C34.9852 4.31964 34.8956 4.39222 34.8052 4.46479C33.4527 3.32154 32.1213 2.11819 30.1671 2.39913C28.5706 2.62778 26.7887 4.39456 26.7092 5.80392C27.7568 5.38798 28.8037 4.97204 29.9013 4.53581C29.9878 4.74651 30.0938 5.00637 30.2419 5.36691C31.4634 4.46791 32.7013 4.32354 34.0124 5.093C30.3643 6.53514 27.134 9.26646 26.6211 11.6263Z" fill="url(#paint2_linear)"/>
<path d="M11.3066 39.8941C11.4376 39.7623 11.5725 39.6265 11.7096 39.4837C11.8367 39.3588 11.9638 39.23 12.0932 39.0997C12.458 38.7322 12.8345 38.3513 13.2406 38.0197L13.2562 38.0064C13.3708 37.9096 13.4854 37.8113 13.6015 37.7122C14.0794 37.3048 14.5728 36.8842 15.0919 36.4839L15.2806 36.3489C15.8964 35.908 16.5333 35.4522 17.1974 35.0183C18.4922 34.2333 20.2242 33.2461 22.1715 32.5445C22.3453 32.4829 22.5191 32.4166 22.6883 32.3518C22.9868 32.2378 23.2682 32.1302 23.5434 32.0506L25.0666 31.6299L25.0829 31.6252C25.3854 31.5324 25.7182 31.4676 26.0706 31.3982C26.2187 31.3693 26.366 31.3404 26.5141 31.3092C26.6193 31.2897 26.7246 31.2694 26.8306 31.2491C27.2305 31.1726 27.6078 31.1001 27.971 31.0665L28.0084 31.0634L28.0451 31.0579C29.198 30.8808 30.4631 30.7949 31.9114 30.7949C32.6044 30.7949 33.3621 30.8144 34.2297 30.855C36.1387 30.9768 38.1678 31.2397 40.2608 31.6377L40.2748 31.6401C41.6366 31.882 42.9625 32.1637 44.2448 32.4361C44.8225 32.5586 45.3681 32.6749 45.9177 32.7872C47.4884 33.1048 49.3296 33.4529 51.1077 33.6371C51.9332 33.7346 52.7711 33.7838 53.5966 33.7838C54.3278 33.7838 55.073 33.7448 55.8112 33.6691L56.8963 33.5387L57.8933 33.3226L58.4148 33.2164L58.5379 33.1774L58.4491 33.2344L58.0196 33.4529L57.0304 33.9383C56.8051 34.028 56.5689 34.1139 56.3195 34.2052C56.208 34.2458 56.0957 34.2871 55.9827 34.3285C54.4471 34.8506 52.768 35.1682 51.1264 35.2485L51.1147 35.2493C50.5799 35.2805 50.0179 35.2962 49.4442 35.2962C48.2562 35.2962 46.9552 35.2283 45.5794 35.094C43.7187 34.9083 41.8798 34.6625 39.8414 34.3847L39.4493 34.3347C37.679 34.1084 35.8487 33.8751 34.0551 33.7877C33.5328 33.7393 33.0222 33.7237 32.5904 33.7143C32.4501 33.712 32.3129 33.7065 32.1757 33.7018C31.9637 33.694 31.7446 33.6862 31.5193 33.6862C31.3767 33.6862 31.2465 33.6894 31.1218 33.6956C30.6689 33.7104 30.216 33.7135 29.7912 33.7159H29.7522L28.3366 33.8127L28.3179 33.8142C26.8017 33.9648 24.8179 34.206 22.9019 34.7405C21.1425 35.1736 19.4946 35.7987 17.9753 36.4105L17.9566 36.4183C17.5186 36.6025 17.1023 36.7999 16.6993 36.9911C16.3781 37.1433 16.0741 37.2877 15.7709 37.4203L15.7514 37.4289L15.7319 37.4383C15.3024 37.6443 14.9017 37.862 14.5143 38.0735C14.2384 38.2241 13.978 38.3662 13.7192 38.4965C13.2492 38.7212 12.8251 38.9834 12.4502 39.2144C12.2366 39.3463 12.0347 39.4712 11.8375 39.5812L11.8235 39.589L11.8094 39.5976C11.659 39.6873 11.5085 39.7747 11.3604 39.8614C11.3417 39.8739 11.3246 39.884 11.3066 39.8941Z" fill="url(#paint3_linear)"/>
<path d="M26.2379 17.8271C26.3072 17.8942 26.3766 17.9621 26.4468 18.0292C25.6454 19.5962 25.4318 21.3302 25.9923 22.66C26.3384 21.1562 26.6416 19.8405 26.9121 18.666C27.4664 19.5338 28.0151 20.3922 28.5639 21.2498C28.6465 21.1991 28.7292 21.1484 28.8118 21.0977C28.4423 20.0964 28.072 19.096 27.7026 18.0948C27.8148 18.0503 27.9278 18.0058 28.0401 17.9613C31.0817 20.9408 32.0935 24.8989 33.3205 28.9194H34.0174C32.7023 25.0721 31.5565 21.1718 28.5561 17.9824C30.119 18.3882 31.5042 18.7479 32.8255 19.0913C31.9072 17.5633 30.3201 16.9632 28.5257 16.5956C29.0207 16.4794 29.5165 16.3631 30.0372 16.2406C29.168 15.4618 28.4158 16.182 27.6386 16.4247C27.5755 16.3217 27.5124 16.2187 27.4492 16.1157C28.295 15.4789 29.1408 14.8421 29.9873 14.2053C29.3723 14.1047 28.6387 14.0383 28.1056 14.3341C27.5599 14.6369 27.2107 15.2947 26.6767 15.9128C26.8178 15.3806 26.9285 14.9662 27.0602 14.4714C26.1155 15.0435 26.2838 15.8652 26.3727 16.5114C25.7491 16.4099 25.1348 16.3092 24.5214 16.2094C24.5105 16.3038 24.4995 16.3974 24.4886 16.4919C25.1668 16.7228 25.845 16.9538 26.7929 17.2761C24.0622 17.6648 23.2001 18.7596 23.9477 20.3017C24.6851 19.5041 25.4615 18.6652 26.2379 17.8271Z" fill="url(#paint4_linear)"/>
<defs>
<linearGradient id="paint0_linear" x1="45.1406" y1="31.4913" x2="45.1406" y2="9.15527" gradientUnits="userSpaceOnUse">
<stop stop-color="#FC7C0F"/>
<stop offset="0.08" stop-color="#FB8C13"/>
<stop offset="0.2024" stop-color="#FA9E16"/>
<stop offset="0.3503" stop-color="#F9AB19"/>
<stop offset="0.5479" stop-color="#F8B21B"/>
<stop offset="1" stop-color="#F8B41B"/>
</linearGradient>
<linearGradient id="paint1_linear" x1="26.8646" y1="31.3314" x2="26.8646" y2="8.87207" gradientUnits="userSpaceOnUse">
<stop stop-color="#FC7C0F"/>
<stop offset="0.08" stop-color="#FB8C13"/>
<stop offset="0.2024" stop-color="#FA9E16"/>
<stop offset="0.3503" stop-color="#F9AB19"/>
<stop offset="0.5479" stop-color="#F8B21B"/>
<stop offset="1" stop-color="#F8B41B"/>
</linearGradient>
<linearGradient id="paint2_linear" x1="26.6211" y1="14.5877" x2="44.0735" y2="14.5877" gradientUnits="userSpaceOnUse">
<stop stop-color="#FC7C0F"/>
<stop offset="0.08" stop-color="#FB8C13"/>
<stop offset="0.2024" stop-color="#FA9E16"/>
<stop offset="0.3503" stop-color="#F9AB19"/>
<stop offset="0.5479" stop-color="#F8B21B"/>
<stop offset="1" stop-color="#F8B41B"/>
</linearGradient>
<linearGradient id="paint3_linear" x1="12.2502" y1="42.6447" x2="56.5704" y2="27.4415" gradientUnits="userSpaceOnUse">
<stop stop-color="#2AC3FF"/>
<stop offset="0.9947" stop-color="#008AB2"/>
</linearGradient>
<linearGradient id="paint4_linear" x1="23.6904" y1="21.5197" x2="34.0174" y2="21.5197" gradientUnits="userSpaceOnUse">
<stop stop-color="#FC7C0F"/>
<stop offset="0.08" stop-color="#FB8C13"/>
<stop offset="0.2024" stop-color="#FA9E16"/>
<stop offset="0.3503" stop-color="#F9AB19"/>
<stop offset="0.5479" stop-color="#F8B21B"/>
<stop offset="1" stop-color="#F8B41B"/>
</linearGradient>
</defs>
</svg>
