<svg width="46" height="46" viewBox="0 0 46 46" fill="none" xmlns="http://www.w3.org/2000/svg">
<path d="M45 23C45 35.1503 35.1503 45 23 45C10.8497 45 1 35.1503 1 23C1 10.8497 10.8497 1 23 1C35.1503 1 45 10.8497 45 23Z" fill="white"/>
<path fill-rule="evenodd" clip-rule="evenodd" d="M46 23C46 35.7025 35.7025 46 23 46C10.2975 46 0 35.7025 0 23C0 10.2975 10.2975 0 23 0C35.7025 0 46 10.2975 46 23ZM23 45.1154C35.214 45.1154 45.1154 35.214 45.1154 23C45.1154 10.786 35.214 0.884615 23 0.884615C10.786 0.884615 0.884615 10.786 0.884615 23C0.884615 35.214 10.786 45.1154 23 45.1154Z" fill="#0089B1"/>
<path fill-rule="evenodd" clip-rule="evenodd" d="M10.9648 10.0254C10.9648 10.0394 10.9306 10.0508 10.8887 10.0508C10.8468 10.0508 10.8125 10.0622 10.8125 10.0762C10.8125 10.0901 10.7807 10.1016 10.7419 10.1016C10.7005 10.1016 10.6563 10.1225 10.6348 10.1523C10.6146 10.1803 10.5833 10.2031 10.5652 10.2031C10.5223 10.2031 10.2031 10.5223 10.2031 10.5652C10.2031 10.5833 10.1803 10.6146 10.1523 10.6348C10.1225 10.6563 10.1016 10.7005 10.1016 10.7419C10.1016 10.7807 10.0901 10.8125 10.0762 10.8125C10.0622 10.8125 10.0508 10.8468 10.0508 10.8887C10.0508 10.9306 10.0394 10.9648 10.0254 10.9648C10.0085 10.9648 10 13.0807 10 17.2617C10 21.4427 10.0085 23.5586 10.0254 23.5586C10.0394 23.5586 10.0508 23.5762 10.0508 23.5978C10.0508 23.6486 10.1639 23.7617 10.2147 23.7617C10.2363 23.7617 10.2539 23.7731 10.2539 23.7871C10.2539 23.8037 10.6602 23.8125 11.4219 23.8125C12.1836 23.8125 12.5898 23.8037 12.5898 23.7871C12.5898 23.7731 12.6075 23.7617 12.6291 23.7617C12.6799 23.7617 12.793 23.6486 12.793 23.5978C12.793 23.5762 12.8044 23.5586 12.8184 23.5586C12.8351 23.5586 12.8438 22.7715 12.8438 21.248V18.9375H14.0879C14.9004 18.9375 15.332 18.9287 15.332 18.9121C15.332 18.8976 15.4082 18.8867 15.5098 18.8867C15.6113 18.8867 15.6875 18.8758 15.6875 18.8613C15.6875 18.8474 15.7446 18.8359 15.8145 18.8359C15.8843 18.8359 15.9414 18.8245 15.9414 18.8105C15.9414 18.7966 15.9871 18.7852 16.043 18.7852C16.0988 18.7852 16.1445 18.7737 16.1445 18.7598C16.1445 18.7458 16.1788 18.7344 16.2207 18.7344C16.2626 18.7344 16.2969 18.7229 16.2969 18.709C16.2969 18.695 16.3312 18.6836 16.373 18.6836C16.4149 18.6836 16.4492 18.6722 16.4492 18.6582C16.4492 18.6442 16.4721 18.6328 16.5 18.6328C16.5279 18.6328 16.5508 18.6214 16.5508 18.6074C16.5508 18.5935 16.5851 18.582 16.627 18.582C16.6688 18.582 16.7031 18.5706 16.7031 18.5566C16.7031 18.5427 16.726 18.5312 16.7539 18.5312C16.7818 18.5312 16.8047 18.5198 16.8047 18.5059C16.8047 18.4919 16.8275 18.4805 16.8555 18.4805C16.8834 18.4805 16.9062 18.469 16.9062 18.4551C16.9062 18.4411 16.9266 18.4297 16.9514 18.4297C16.9763 18.4297 17.0131 18.4068 17.0332 18.3789C17.0533 18.351 17.0901 18.3281 17.115 18.3281C17.1398 18.3281 17.1602 18.3167 17.1602 18.3027C17.1602 18.2888 17.1805 18.2773 17.2053 18.2773C17.2302 18.2773 17.267 18.2545 17.2871 18.2266C17.3072 18.1986 17.3415 18.1758 17.3633 18.1758C17.385 18.1758 17.4193 18.1529 17.4395 18.125C17.4596 18.0971 17.4916 18.0742 17.5105 18.0742C17.5295 18.0742 17.5889 18.0285 17.6426 17.9727C17.6963 17.9168 17.7526 17.8711 17.7679 17.8711C17.804 17.8711 18.2773 17.3978 18.2773 17.3616C18.2773 17.3464 18.323 17.29 18.3789 17.2363C18.4348 17.1827 18.4805 17.1232 18.4805 17.1043C18.4805 17.0853 18.5033 17.0533 18.5312 17.0332C18.5592 17.0131 18.582 16.9788 18.582 16.957C18.582 16.9353 18.6049 16.901 18.6328 16.8809C18.6607 16.8607 18.6836 16.8239 18.6836 16.7991C18.6836 16.7742 18.695 16.7539 18.709 16.7539C18.7229 16.7539 18.7344 16.7336 18.7344 16.7087C18.7344 16.6839 18.7572 16.6471 18.7852 16.627C18.8131 16.6068 18.8359 16.57 18.8359 16.5452C18.8359 16.5203 18.8474 16.5 18.8613 16.5C18.8753 16.5 18.8867 16.4771 18.8867 16.4492C18.8867 16.4213 18.8981 16.3984 18.9121 16.3984C18.9261 16.3984 18.9375 16.3642 18.9375 16.3223C18.9375 16.2804 18.9489 16.2461 18.9629 16.2461C18.9769 16.2461 18.9883 16.2232 18.9883 16.1953C18.9883 16.1674 18.9997 16.1445 19.0137 16.1445C19.0276 16.1445 19.0391 16.1217 19.0391 16.0938C19.0391 16.0658 19.0505 16.043 19.0645 16.043C19.0784 16.043 19.0898 16.0087 19.0898 15.9668C19.0898 15.9249 19.1013 15.8906 19.1152 15.8906C19.1292 15.8906 19.1406 15.8449 19.1406 15.7891C19.1406 15.7332 19.1521 15.6875 19.166 15.6875C19.18 15.6875 19.1914 15.6532 19.1914 15.6113C19.1914 15.5694 19.2028 15.5352 19.2168 15.5352C19.2308 15.5352 19.2422 15.478 19.2422 15.4082C19.2422 15.3384 19.2536 15.2812 19.2676 15.2812C19.2821 15.2812 19.293 15.2051 19.293 15.1035C19.293 15.002 19.3039 14.9258 19.3184 14.9258C19.3344 14.9258 19.3438 14.7565 19.3438 14.4688C19.3438 14.181 19.3344 14.0117 19.3184 14.0117C19.3039 14.0117 19.293 13.9355 19.293 13.834C19.293 13.7324 19.2821 13.6562 19.2676 13.6562C19.2536 13.6562 19.2422 13.5991 19.2422 13.5293C19.2422 13.4595 19.2308 13.4023 19.2168 13.4023C19.2028 13.4023 19.1914 13.3566 19.1914 13.3008C19.1914 13.2449 19.18 13.1992 19.166 13.1992C19.1521 13.1992 19.1406 13.1649 19.1406 13.123C19.1406 13.0812 19.1292 13.0469 19.1152 13.0469C19.1013 13.0469 19.0898 13.0126 19.0898 12.9707C19.0898 12.9288 19.0784 12.8945 19.0645 12.8945C19.0505 12.8945 19.0391 12.8717 19.0391 12.8438C19.0391 12.8158 19.0276 12.793 19.0137 12.793C18.9997 12.793 18.9883 12.7701 18.9883 12.7422C18.9883 12.7143 18.9769 12.6914 18.9629 12.6914C18.9489 12.6914 18.9375 12.6571 18.9375 12.6152C18.9375 12.5733 18.9261 12.5391 18.9121 12.5391C18.8981 12.5391 18.8867 12.5162 18.8867 12.4883C18.8867 12.4604 18.8753 12.4375 18.8613 12.4375C18.8474 12.4375 18.8359 12.4172 18.8359 12.3923C18.8359 12.3675 18.8131 12.3307 18.7852 12.3105C18.7572 12.2904 18.7344 12.2536 18.7344 12.2288C18.7344 12.2039 18.7229 12.1836 18.709 12.1836C18.695 12.1836 18.6836 12.1633 18.6836 12.1384C18.6836 12.1136 18.6607 12.0768 18.6328 12.0566C18.6049 12.0365 18.582 12.0022 18.582 11.9805C18.582 11.9587 18.5592 11.9244 18.5312 11.9043C18.5033 11.8842 18.4805 11.8522 18.4805 11.8332C18.4805 11.8143 18.4348 11.7548 18.3789 11.7012C18.323 11.6475 18.2773 11.5911 18.2773 11.5759C18.2773 11.5397 17.804 11.0664 17.7679 11.0664C17.7526 11.0664 17.6963 11.0207 17.6426 10.9648C17.5889 10.909 17.5295 10.8633 17.5105 10.8633C17.4916 10.8633 17.4596 10.8404 17.4395 10.8125C17.4193 10.7846 17.385 10.7617 17.3633 10.7617C17.3415 10.7617 17.3072 10.7389 17.2871 10.7109C17.267 10.683 17.2327 10.6602 17.2109 10.6602C17.1892 10.6602 17.1549 10.6373 17.1348 10.6094C17.1146 10.5814 17.0778 10.5586 17.053 10.5586C17.0282 10.5586 17.0078 10.5472 17.0078 10.5332C17.0078 10.5192 16.985 10.5078 16.957 10.5078C16.9291 10.5078 16.9062 10.4964 16.9062 10.4824C16.9062 10.4685 16.8834 10.457 16.8555 10.457C16.8275 10.457 16.8047 10.4456 16.8047 10.4316C16.8047 10.4177 16.7704 10.4062 16.7285 10.4062C16.6866 10.4062 16.6523 10.3948 16.6523 10.3809C16.6523 10.3669 16.6295 10.3555 16.6016 10.3555C16.5736 10.3555 16.5508 10.344 16.5508 10.3301C16.5508 10.3161 16.5279 10.3047 16.5 10.3047C16.4721 10.3047 16.4492 10.2933 16.4492 10.2793C16.4492 10.2653 16.4149 10.2539 16.373 10.2539C16.3312 10.2539 16.2969 10.2425 16.2969 10.2285C16.2969 10.2146 16.2626 10.2031 16.2207 10.2031C16.1788 10.2031 16.1445 10.1917 16.1445 10.1777C16.1445 10.1638 16.0988 10.1523 16.043 10.1523C15.9871 10.1523 15.9414 10.1409 15.9414 10.127C15.9414 10.113 15.8843 10.1016 15.8145 10.1016C15.7446 10.1016 15.6875 10.0901 15.6875 10.0762C15.6875 10.0617 15.6113 10.0508 15.5098 10.0508C15.4082 10.0508 15.332 10.0399 15.332 10.0254C15.332 10.0087 14.5872 10 13.1484 10C11.7096 10 10.9648 10.0087 10.9648 10.0254ZM15.2812 10.8379C15.2812 10.8524 15.3574 10.8633 15.459 10.8633C15.5605 10.8633 15.6367 10.8742 15.6367 10.8887C15.6367 10.9026 15.6824 10.9141 15.7383 10.9141C15.7941 10.9141 15.8398 10.9255 15.8398 10.9395C15.8398 10.9534 15.8741 10.9648 15.916 10.9648C15.9579 10.9648 15.9922 10.9763 15.9922 10.9902C15.9922 11.0042 16.0265 11.0156 16.0684 11.0156C16.1103 11.0156 16.1445 11.0271 16.1445 11.041C16.1445 11.055 16.1788 11.0664 16.2207 11.0664C16.2626 11.0664 16.2969 11.0778 16.2969 11.0918C16.2969 11.1058 16.3197 11.1172 16.3477 11.1172C16.3756 11.1172 16.3984 11.1286 16.3984 11.1426C16.3984 11.1565 16.4213 11.168 16.4492 11.168C16.4771 11.168 16.5 11.1794 16.5 11.1934C16.5 11.2073 16.5229 11.2188 16.5508 11.2188C16.5787 11.2188 16.6016 11.2302 16.6016 11.2441C16.6016 11.2581 16.6219 11.2695 16.6467 11.2695C16.6716 11.2695 16.7084 11.2924 16.7285 11.3203C16.7487 11.3482 16.7829 11.3711 16.8047 11.3711C16.8264 11.3711 16.8607 11.3939 16.8809 11.4219C16.901 11.4498 16.9353 11.4727 16.957 11.4727C16.9788 11.4727 17.0131 11.4955 17.0332 11.5234C17.0533 11.5514 17.0845 11.5742 17.1025 11.5742C17.1453 11.5742 17.7695 12.1985 17.7695 12.2412C17.7695 12.2592 17.7924 12.2904 17.8203 12.3105C17.8482 12.3307 17.8711 12.365 17.8711 12.3867C17.8711 12.4085 17.8939 12.4428 17.9219 12.4629C17.9498 12.483 17.9727 12.5173 17.9727 12.5391C17.9727 12.5608 17.9955 12.5951 18.0234 12.6152C18.0514 12.6354 18.0742 12.6722 18.0742 12.697C18.0742 12.7218 18.0856 12.7422 18.0996 12.7422C18.1136 12.7422 18.125 12.765 18.125 12.793C18.125 12.8209 18.1364 12.8438 18.1504 12.8438C18.1644 12.8438 18.1758 12.8666 18.1758 12.8945C18.1758 12.9225 18.1872 12.9453 18.2012 12.9453C18.2151 12.9453 18.2266 12.9682 18.2266 12.9961C18.2266 13.024 18.238 13.0469 18.252 13.0469C18.2659 13.0469 18.2773 13.0812 18.2773 13.123C18.2773 13.1649 18.2888 13.1992 18.3027 13.1992C18.3167 13.1992 18.3281 13.2335 18.3281 13.2754C18.3281 13.3173 18.3396 13.3516 18.3535 13.3516C18.3675 13.3516 18.3789 13.3858 18.3789 13.4277C18.3789 13.4696 18.3903 13.5039 18.4043 13.5039C18.4183 13.5039 18.4297 13.5496 18.4297 13.6055C18.4297 13.6613 18.4411 13.707 18.4551 13.707C18.4696 13.707 18.4805 13.7832 18.4805 13.8848C18.4805 13.9863 18.4914 14.0625 18.5059 14.0625C18.5217 14.0625 18.5312 14.2148 18.5312 14.4688C18.5312 14.7227 18.5217 14.875 18.5059 14.875C18.4914 14.875 18.4805 14.9512 18.4805 15.0527C18.4805 15.1543 18.4696 15.2305 18.4551 15.2305C18.4411 15.2305 18.4297 15.2762 18.4297 15.332C18.4297 15.3879 18.4183 15.4336 18.4043 15.4336C18.3903 15.4336 18.3789 15.4679 18.3789 15.5098C18.3789 15.5517 18.3675 15.5859 18.3535 15.5859C18.3396 15.5859 18.3281 15.6202 18.3281 15.6621C18.3281 15.704 18.3167 15.7383 18.3027 15.7383C18.2888 15.7383 18.2773 15.7726 18.2773 15.8145C18.2773 15.8563 18.2659 15.8906 18.252 15.8906C18.238 15.8906 18.2266 15.9135 18.2266 15.9414C18.2266 15.9693 18.2151 15.9922 18.2012 15.9922C18.1872 15.9922 18.1758 16.015 18.1758 16.043C18.1758 16.0709 18.1644 16.0938 18.1504 16.0938C18.1364 16.0938 18.125 16.1166 18.125 16.1445C18.125 16.1725 18.1136 16.1953 18.0996 16.1953C18.0856 16.1953 18.0742 16.2157 18.0742 16.2405C18.0742 16.2653 18.0514 16.3021 18.0234 16.3223C17.9955 16.3424 17.9727 16.3767 17.9727 16.3984C17.9727 16.4202 17.9498 16.4545 17.9219 16.4746C17.8939 16.4947 17.8711 16.529 17.8711 16.5508C17.8711 16.5725 17.8482 16.6068 17.8203 16.627C17.7924 16.6471 17.7695 16.6783 17.7695 16.6963C17.7695 16.739 17.1453 17.3633 17.1025 17.3633C17.0845 17.3633 17.0533 17.3861 17.0332 17.4141C17.0131 17.442 16.9788 17.4648 16.957 17.4648C16.9353 17.4648 16.901 17.4877 16.8809 17.5156C16.8607 17.5436 16.8264 17.5664 16.8047 17.5664C16.7829 17.5664 16.7487 17.5893 16.7285 17.6172C16.7084 17.6451 16.6716 17.668 16.6467 17.668C16.6219 17.668 16.6016 17.6794 16.6016 17.6934C16.6016 17.7073 16.5787 17.7188 16.5508 17.7188C16.5229 17.7188 16.5 17.7302 16.5 17.7441C16.5 17.7581 16.4771 17.7695 16.4492 17.7695C16.4213 17.7695 16.3984 17.781 16.3984 17.7949C16.3984 17.8089 16.3756 17.8203 16.3477 17.8203C16.3197 17.8203 16.2969 17.8317 16.2969 17.8457C16.2969 17.8597 16.2626 17.8711 16.2207 17.8711C16.1788 17.8711 16.1445 17.8825 16.1445 17.8965C16.1445 17.9104 16.1103 17.9219 16.0684 17.9219C16.0265 17.9219 15.9922 17.9333 15.9922 17.9473C15.9922 17.9612 15.9579 17.9727 15.916 17.9727C15.8741 17.9727 15.8398 17.9841 15.8398 17.998C15.8398 18.012 15.7941 18.0234 15.7383 18.0234C15.6824 18.0234 15.6367 18.0349 15.6367 18.0488C15.6367 18.0633 15.5605 18.0742 15.459 18.0742C15.3574 18.0742 15.2812 18.0851 15.2812 18.0996C15.2812 18.1162 14.765 18.125 13.7832 18.125C12.8014 18.125 12.2852 18.1338 12.2852 18.1504C12.2852 18.1644 12.2675 18.1758 12.2459 18.1758C12.1951 18.1758 12.082 18.2889 12.082 18.3397C12.082 18.3613 12.0706 18.3789 12.0566 18.3789C12.0399 18.3789 12.0312 19.166 12.0312 20.6895V23H11.4219H10.8125V17.0332C10.8125 13.0723 10.821 11.0664 10.8379 11.0664C10.8519 11.0664 10.8633 11.0488 10.8633 11.0272C10.8633 11.0056 10.8913 10.9599 10.9256 10.9256C10.9599 10.8913 11.0056 10.8633 11.0272 10.8633C11.0488 10.8633 11.0664 10.8519 11.0664 10.8379C11.0664 10.8212 11.7858 10.8125 13.1738 10.8125C14.5619 10.8125 15.2812 10.8212 15.2812 10.8379ZM12.2852 12.0566C12.2852 12.0706 12.2675 12.082 12.2459 12.082C12.1951 12.082 12.082 12.1951 12.082 12.2459C12.082 12.2675 12.0706 12.2852 12.0566 12.2852C12.0399 12.2852 12.0312 13.0299 12.0312 14.4688C12.0312 15.9076 12.0399 16.6523 12.0566 16.6523C12.0706 16.6523 12.082 16.67 12.082 16.6916C12.082 16.7424 12.1951 16.8555 12.2459 16.8555C12.2675 16.8555 12.2852 16.8669 12.2852 16.8809C12.2852 16.8975 12.793 16.9062 13.7578 16.9062C14.7227 16.9062 15.2305 16.8975 15.2305 16.8809C15.2305 16.8669 15.2876 16.8555 15.3574 16.8555C15.4272 16.8555 15.4844 16.844 15.4844 16.8301C15.4844 16.8161 15.5187 16.8047 15.5605 16.8047C15.6024 16.8047 15.6367 16.7933 15.6367 16.7793C15.6367 16.7653 15.671 16.7539 15.7129 16.7539C15.7548 16.7539 15.7891 16.7425 15.7891 16.7285C15.7891 16.7146 15.8119 16.7031 15.8398 16.7031C15.8678 16.7031 15.8906 16.6917 15.8906 16.6777C15.8906 16.6638 15.9135 16.6523 15.9414 16.6523C15.9693 16.6523 15.9922 16.6409 15.9922 16.627C15.9922 16.613 16.015 16.6016 16.043 16.6016C16.0709 16.6016 16.0938 16.5901 16.0938 16.5762C16.0938 16.5622 16.1141 16.5508 16.1389 16.5508C16.1638 16.5508 16.2006 16.5279 16.2207 16.5C16.2408 16.4721 16.272 16.4492 16.2901 16.4492C16.3081 16.4492 16.4427 16.3294 16.5892 16.1829C16.7356 16.0364 16.8555 15.9018 16.8555 15.8838C16.8555 15.8658 16.8783 15.8346 16.9062 15.8145C16.9342 15.7943 16.957 15.7575 16.957 15.7327C16.957 15.7078 16.9685 15.6875 16.9824 15.6875C16.9964 15.6875 17.0078 15.6646 17.0078 15.6367C17.0078 15.6088 17.0192 15.5859 17.0332 15.5859C17.0472 15.5859 17.0586 15.5631 17.0586 15.5352C17.0586 15.5072 17.07 15.4844 17.084 15.4844C17.0979 15.4844 17.1094 15.4615 17.1094 15.4336C17.1094 15.4057 17.1208 15.3828 17.1348 15.3828C17.1487 15.3828 17.1602 15.3485 17.1602 15.3066C17.1602 15.2647 17.1716 15.2305 17.1855 15.2305C17.1995 15.2305 17.2109 15.1962 17.2109 15.1543C17.2109 15.1124 17.2224 15.0781 17.2363 15.0781C17.2503 15.0781 17.2617 15.021 17.2617 14.9512C17.2617 14.8813 17.2731 14.8242 17.2871 14.8242C17.3028 14.8242 17.3125 14.6888 17.3125 14.4688C17.3125 14.2487 17.3028 14.1133 17.2871 14.1133C17.2731 14.1133 17.2617 14.0562 17.2617 13.9863C17.2617 13.9165 17.2503 13.8594 17.2363 13.8594C17.2224 13.8594 17.2109 13.8251 17.2109 13.7832C17.2109 13.7413 17.1995 13.707 17.1855 13.707C17.1716 13.707 17.1602 13.6728 17.1602 13.6309C17.1602 13.589 17.1487 13.5547 17.1348 13.5547C17.1208 13.5547 17.1094 13.5318 17.1094 13.5039C17.1094 13.476 17.0979 13.4531 17.084 13.4531C17.07 13.4531 17.0586 13.4303 17.0586 13.4023C17.0586 13.3744 17.0472 13.3516 17.0332 13.3516C17.0192 13.3516 17.0078 13.3287 17.0078 13.3008C17.0078 13.2729 16.9964 13.25 16.9824 13.25C16.9685 13.25 16.957 13.2297 16.957 13.2048C16.957 13.18 16.9342 13.1432 16.9062 13.123C16.8783 13.1029 16.8555 13.0717 16.8555 13.0537C16.8555 13.0109 16.3329 12.4883 16.2901 12.4883C16.272 12.4883 16.2408 12.4654 16.2207 12.4375C16.2006 12.4096 16.1638 12.3867 16.1389 12.3867C16.1141 12.3867 16.0938 12.3753 16.0938 12.3613C16.0938 12.3474 16.0709 12.3359 16.043 12.3359C16.015 12.3359 15.9922 12.3245 15.9922 12.3105C15.9922 12.2966 15.9693 12.2852 15.9414 12.2852C15.9135 12.2852 15.8906 12.2737 15.8906 12.2598C15.8906 12.2458 15.8678 12.2344 15.8398 12.2344C15.8119 12.2344 15.7891 12.2229 15.7891 12.209C15.7891 12.195 15.7548 12.1836 15.7129 12.1836C15.671 12.1836 15.6367 12.1722 15.6367 12.1582C15.6367 12.1442 15.6024 12.1328 15.5605 12.1328C15.5187 12.1328 15.4844 12.1214 15.4844 12.1074C15.4844 12.0935 15.4272 12.082 15.3574 12.082C15.2876 12.082 15.2305 12.0706 15.2305 12.0566C15.2305 12.04 14.7227 12.0312 13.7578 12.0312C12.793 12.0312 12.2852 12.04 12.2852 12.0566ZM15.1289 12.8691C15.1289 12.8831 15.186 12.8945 15.2559 12.8945C15.3257 12.8945 15.3828 12.906 15.3828 12.9199C15.3828 12.9339 15.4057 12.9453 15.4336 12.9453C15.4615 12.9453 15.4844 12.9567 15.4844 12.9707C15.4844 12.9847 15.5072 12.9961 15.5352 12.9961C15.5631 12.9961 15.5859 13.0075 15.5859 13.0215C15.5859 13.0354 15.6088 13.0469 15.6367 13.0469C15.6646 13.0469 15.6875 13.0583 15.6875 13.0723C15.6875 13.0862 15.7078 13.0977 15.7327 13.0977C15.7575 13.0977 15.7943 13.1205 15.8145 13.1484C15.8346 13.1764 15.866 13.1992 15.8842 13.1992C15.9273 13.1992 16.1445 13.4164 16.1445 13.4595C16.1445 13.4778 16.1674 13.5092 16.1953 13.5293C16.2232 13.5494 16.2461 13.5862 16.2461 13.6111C16.2461 13.6359 16.2575 13.6562 16.2715 13.6562C16.2854 13.6562 16.2969 13.6791 16.2969 13.707C16.2969 13.735 16.3083 13.7578 16.3223 13.7578C16.3362 13.7578 16.3477 13.7807 16.3477 13.8086C16.3477 13.8365 16.3591 13.8594 16.373 13.8594C16.387 13.8594 16.3984 13.8822 16.3984 13.9102C16.3984 13.9381 16.4099 13.9609 16.4238 13.9609C16.4378 13.9609 16.4492 14.0181 16.4492 14.0879C16.4492 14.1577 16.4606 14.2148 16.4746 14.2148C16.4898 14.2148 16.5 14.3164 16.5 14.4688C16.5 14.6211 16.4898 14.7227 16.4746 14.7227C16.4606 14.7227 16.4492 14.7798 16.4492 14.8496C16.4492 14.9194 16.4378 14.9766 16.4238 14.9766C16.4099 14.9766 16.3984 14.9994 16.3984 15.0273C16.3984 15.0553 16.387 15.0781 16.373 15.0781C16.3591 15.0781 16.3477 15.101 16.3477 15.1289C16.3477 15.1568 16.3362 15.1797 16.3223 15.1797C16.3083 15.1797 16.2969 15.2025 16.2969 15.2305C16.2969 15.2584 16.2854 15.2812 16.2715 15.2812C16.2575 15.2812 16.2461 15.3016 16.2461 15.3264C16.2461 15.3513 16.2232 15.3881 16.1953 15.4082C16.1674 15.4283 16.1445 15.4597 16.1445 15.478C16.1445 15.5211 15.9273 15.7383 15.8842 15.7383C15.866 15.7383 15.8346 15.7611 15.8145 15.7891C15.7943 15.817 15.7575 15.8398 15.7327 15.8398C15.7078 15.8398 15.6875 15.8513 15.6875 15.8652C15.6875 15.8792 15.6646 15.8906 15.6367 15.8906C15.6088 15.8906 15.5859 15.9021 15.5859 15.916C15.5859 15.93 15.5631 15.9414 15.5352 15.9414C15.5072 15.9414 15.4844 15.9528 15.4844 15.9668C15.4844 15.9808 15.4615 15.9922 15.4336 15.9922C15.4057 15.9922 15.3828 16.0036 15.3828 16.0176C15.3828 16.0315 15.3257 16.043 15.2559 16.043C15.186 16.043 15.1289 16.0544 15.1289 16.0684C15.1289 16.0849 14.7311 16.0938 13.9863 16.0938H12.8438V14.4688V12.8438H13.9863C14.7311 12.8438 15.1289 12.8526 15.1289 12.8691ZM18.9883 20.2324C18.9883 20.2464 18.9426 20.2578 18.8867 20.2578C18.8309 20.2578 18.7852 20.2692 18.7852 20.2832C18.7852 20.2972 18.7509 20.3086 18.709 20.3086C18.6671 20.3086 18.6328 20.32 18.6328 20.334C18.6328 20.3479 18.61 20.3594 18.582 20.3594C18.5541 20.3594 18.5312 20.3708 18.5312 20.3848C18.5312 20.3987 18.5084 20.4102 18.4805 20.4102C18.4525 20.4102 18.4297 20.4216 18.4297 20.4355C18.4297 20.4495 18.4093 20.4609 18.3845 20.4609C18.3597 20.4609 18.3229 20.4838 18.3027 20.5117C18.2826 20.5396 18.2514 20.5625 18.2333 20.5625C18.1905 20.5625 17.7188 21.0343 17.7188 21.0771C17.7188 21.0951 17.6959 21.1263 17.668 21.1465C17.64 21.1666 17.6172 21.2034 17.6172 21.2283C17.6172 21.2531 17.6058 21.2734 17.5918 21.2734C17.5778 21.2734 17.5664 21.2963 17.5664 21.3242C17.5664 21.3521 17.555 21.375 17.541 21.375C17.5271 21.375 17.5156 21.4093 17.5156 21.4512C17.5156 21.4931 17.5042 21.5273 17.4902 21.5273C17.4763 21.5273 17.4648 21.5616 17.4648 21.6035C17.4648 21.6454 17.4534 21.6797 17.4395 21.6797C17.4255 21.6797 17.4141 21.7025 17.4141 21.7305C17.4141 21.7584 17.4026 21.7812 17.3887 21.7812C17.3747 21.7812 17.3633 21.8041 17.3633 21.832C17.3633 21.86 17.3519 21.8828 17.3379 21.8828C17.3239 21.8828 17.3125 21.9057 17.3125 21.9336C17.3125 21.9615 17.3011 21.9844 17.2871 21.9844C17.2731 21.9844 17.2617 22.0187 17.2617 22.0605C17.2617 22.1024 17.2503 22.1367 17.2363 22.1367C17.2224 22.1367 17.2109 22.1596 17.2109 22.1875C17.2109 22.2154 17.1995 22.2383 17.1855 22.2383C17.1716 22.2383 17.1602 22.2611 17.1602 22.2891C17.1602 22.317 17.1487 22.3398 17.1348 22.3398C17.1208 22.3398 17.1094 22.3741 17.1094 22.416C17.1094 22.4579 17.0979 22.4922 17.084 22.4922C17.07 22.4922 17.0586 22.515 17.0586 22.543C17.0586 22.5709 17.0472 22.5938 17.0332 22.5938C17.0192 22.5938 17.0078 22.6166 17.0078 22.6445C17.0078 22.6725 16.9964 22.6953 16.9824 22.6953C16.9685 22.6953 16.957 22.7182 16.957 22.7461C16.957 22.774 16.9456 22.7969 16.9316 22.7969C16.9177 22.7969 16.9062 22.8312 16.9062 22.873C16.9062 22.9149 16.8948 22.9492 16.8809 22.9492C16.8669 22.9492 16.8555 22.9721 16.8555 23C16.8555 23.0279 16.844 23.0508 16.8301 23.0508C16.8161 23.0508 16.8047 23.0736 16.8047 23.1016C16.8047 23.1295 16.7933 23.1523 16.7793 23.1523C16.7653 23.1523 16.7539 23.1752 16.7539 23.2031C16.7539 23.2311 16.7425 23.2539 16.7285 23.2539C16.7146 23.2539 16.7031 23.2882 16.7031 23.3301C16.7031 23.372 16.6917 23.4062 16.6777 23.4062C16.6638 23.4062 16.6523 23.4291 16.6523 23.457C16.6523 23.485 16.6409 23.5078 16.627 23.5078C16.613 23.5078 16.6016 23.5307 16.6016 23.5586C16.6016 23.5865 16.5901 23.6094 16.5762 23.6094C16.5622 23.6094 16.5508 23.6437 16.5508 23.6855C16.5508 23.7274 16.5394 23.7617 16.5254 23.7617C16.5114 23.7617 16.5 23.7846 16.5 23.8125C16.5 23.8404 16.4886 23.8633 16.4746 23.8633C16.4606 23.8633 16.4492 23.8861 16.4492 23.9141C16.4492 23.942 16.4378 23.9648 16.4238 23.9648C16.4099 23.9648 16.3984 23.9877 16.3984 24.0156C16.3984 24.0436 16.387 24.0664 16.373 24.0664C16.3591 24.0664 16.3477 24.1007 16.3477 24.1426C16.3477 24.1845 16.3362 24.2188 16.3223 24.2188C16.3083 24.2188 16.2969 24.2416 16.2969 24.2695C16.2969 24.2975 16.2854 24.3203 16.2715 24.3203C16.2575 24.3203 16.2461 24.3432 16.2461 24.3711C16.2461 24.399 16.2347 24.4219 16.2207 24.4219C16.2067 24.4219 16.1953 24.4447 16.1953 24.4727C16.1953 24.5006 16.1839 24.5234 16.1699 24.5234C16.156 24.5234 16.1445 24.5577 16.1445 24.5996C16.1445 24.6415 16.1331 24.6758 16.1191 24.6758C16.1052 24.6758 16.0938 24.6986 16.0938 24.7266C16.0938 24.7545 16.0823 24.7773 16.0684 24.7773C16.0544 24.7773 16.043 24.8002 16.043 24.8281C16.043 24.8561 16.0315 24.8789 16.0176 24.8789C16.0036 24.8789 15.9922 24.9132 15.9922 24.9551C15.9922 24.997 15.9808 25.0312 15.9668 25.0312C15.9528 25.0312 15.9414 25.0541 15.9414 25.082C15.9414 25.11 15.93 25.1328 15.916 25.1328C15.9021 25.1328 15.8906 25.1557 15.8906 25.1836C15.8906 25.2115 15.8792 25.2344 15.8652 25.2344C15.8513 25.2344 15.8398 25.2572 15.8398 25.2852C15.8398 25.3131 15.8284 25.3359 15.8145 25.3359C15.8005 25.3359 15.7891 25.3702 15.7891 25.4121C15.7891 25.454 15.7776 25.4883 15.7637 25.4883C15.7497 25.4883 15.7383 25.5111 15.7383 25.5391C15.7383 25.567 15.7269 25.5898 15.7129 25.5898C15.6989 25.5898 15.6875 25.6127 15.6875 25.6406C15.6875 25.6686 15.6761 25.6914 15.6621 25.6914C15.6481 25.6914 15.6367 25.7143 15.6367 25.7422C15.6367 25.7701 15.6253 25.793 15.6113 25.793C15.5974 25.793 15.5859 25.8272 15.5859 25.8691C15.5859 25.911 15.5745 25.9453 15.5605 25.9453C15.5466 25.9453 15.5352 25.9682 15.5352 25.9961C15.5352 26.024 15.5237 26.0469 15.5098 26.0469C15.4958 26.0469 15.4844 26.0697 15.4844 26.0977C15.4844 26.1256 15.4729 26.1484 15.459 26.1484C15.445 26.1484 15.4336 26.1664 15.4336 26.1883C15.4336 26.2545 15.3664 26.3008 15.2704 26.3008C15.2205 26.3008 15.1797 26.3122 15.1797 26.3262C15.1797 26.3401 15.1568 26.3516 15.1289 26.3516C15.101 26.3516 15.0781 26.363 15.0781 26.377C15.0781 26.3909 15.0553 26.4023 15.0273 26.4023C14.9994 26.4023 14.9766 26.4138 14.9766 26.4277C14.9766 26.4417 14.9537 26.4531 14.9258 26.4531C14.8979 26.4531 14.875 26.4646 14.875 26.4785C14.875 26.4925 14.8547 26.5039 14.8298 26.5039C14.805 26.5039 14.7682 26.5268 14.748 26.5547C14.7279 26.5826 14.6965 26.6055 14.6783 26.6055C14.6352 26.6055 14.418 26.8227 14.418 26.8658C14.418 26.884 14.3951 26.9154 14.3672 26.9355C14.3393 26.9557 14.3164 26.99 14.3164 27.0117C14.3164 27.0335 14.2936 27.0678 14.2656 27.0879C14.2358 27.1094 14.2148 27.1536 14.2148 27.1951C14.2148 27.2339 14.2034 27.2656 14.1895 27.2656C14.1755 27.2656 14.1641 27.2885 14.1641 27.3164C14.1641 27.3443 14.1526 27.3672 14.1387 27.3672C14.1247 27.3672 14.1133 27.4129 14.1133 27.4688C14.1133 27.5246 14.1019 27.5703 14.0879 27.5703C14.0711 27.5703 14.0625 28.8314 14.0625 31.3027C14.0625 33.7741 14.0711 35.0352 14.0879 35.0352C14.1019 35.0352 14.1133 35.0694 14.1133 35.1113C14.1133 35.1532 14.1247 35.1875 14.1387 35.1875C14.1526 35.1875 14.1641 35.2193 14.1641 35.2581C14.1641 35.2995 14.185 35.3437 14.2148 35.3652C14.2428 35.3854 14.2656 35.4167 14.2656 35.4348C14.2656 35.4777 14.5848 35.7969 14.6277 35.7969C14.6458 35.7969 14.6771 35.8197 14.6973 35.8477C14.7188 35.8775 14.763 35.8984 14.8044 35.8984C14.8432 35.8984 14.875 35.9099 14.875 35.9238C14.875 35.9378 14.9093 35.9492 14.9512 35.9492C14.9931 35.9492 15.0273 35.9606 15.0273 35.9746C15.0273 35.9912 15.5352 36 16.5 36C17.4648 36 17.9727 35.9912 17.9727 35.9746C17.9727 35.9606 18.0069 35.9492 18.0488 35.9492C18.0907 35.9492 18.125 35.9378 18.125 35.9238C18.125 35.9099 18.1568 35.8984 18.1956 35.8984C18.237 35.8984 18.2812 35.8775 18.3027 35.8477C18.3229 35.8197 18.3542 35.7969 18.3723 35.7969C18.4152 35.7969 18.7344 35.4777 18.7344 35.4348C18.7344 35.4167 18.7572 35.3854 18.7852 35.3652C18.815 35.3437 18.8359 35.2995 18.8359 35.2581C18.8359 35.2193 18.8474 35.1875 18.8613 35.1875C18.8753 35.1875 18.8867 35.1532 18.8867 35.1113C18.8867 35.0694 18.8981 35.0352 18.9121 35.0352C18.9282 35.0352 18.9375 34.8405 18.9375 34.502V33.9688H25.0312H31.125V34.502C31.125 34.8405 31.1343 35.0352 31.1504 35.0352C31.1644 35.0352 31.1758 35.0694 31.1758 35.1113C31.1758 35.1532 31.1872 35.1875 31.2012 35.1875C31.2151 35.1875 31.2266 35.2193 31.2266 35.2581C31.2266 35.2995 31.2475 35.3437 31.2773 35.3652C31.3053 35.3854 31.3281 35.4167 31.3281 35.4348C31.3281 35.4777 31.6473 35.7969 31.6902 35.7969C31.7083 35.7969 31.7396 35.8197 31.7598 35.8477C31.7813 35.8775 31.8255 35.8984 31.8669 35.8984C31.9057 35.8984 31.9375 35.9099 31.9375 35.9238C31.9375 35.9378 31.9718 35.9492 32.0137 35.9492C32.0556 35.9492 32.0898 35.9606 32.0898 35.9746C32.0898 35.9912 32.5977 36 33.5625 36C34.5273 36 35.0352 35.9912 35.0352 35.9746C35.0352 35.9606 35.0694 35.9492 35.1113 35.9492C35.1532 35.9492 35.1875 35.9378 35.1875 35.9238C35.1875 35.9099 35.2193 35.8984 35.2581 35.8984C35.2995 35.8984 35.3437 35.8775 35.3652 35.8477C35.3854 35.8197 35.4167 35.7969 35.4348 35.7969C35.4777 35.7969 35.7969 35.4777 35.7969 35.4348C35.7969 35.4167 35.8197 35.3854 35.8477 35.3652C35.8775 35.3437 35.8984 35.2995 35.8984 35.2581C35.8984 35.2193 35.9099 35.1875 35.9238 35.1875C35.9378 35.1875 35.9492 35.1532 35.9492 35.1113C35.9492 35.0694 35.9606 35.0352 35.9746 35.0352C35.9914 35.0352 36 33.7741 36 31.3027C36 28.8314 35.9914 27.5703 35.9746 27.5703C35.9606 27.5703 35.9492 27.5246 35.9492 27.4688C35.9492 27.4129 35.9378 27.3672 35.9238 27.3672C35.9099 27.3672 35.8984 27.3443 35.8984 27.3164C35.8984 27.2885 35.887 27.2656 35.873 27.2656C35.8591 27.2656 35.8477 27.2428 35.8477 27.2148C35.8477 27.1869 35.8362 27.1641 35.8223 27.1641C35.8083 27.1641 35.7969 27.1412 35.7969 27.1133C35.7969 27.0854 35.7854 27.0625 35.7715 27.0625C35.7575 27.0625 35.7461 27.0422 35.7461 27.0173C35.7461 26.9925 35.7232 26.9557 35.6953 26.9355C35.6674 26.9154 35.6445 26.884 35.6445 26.8658C35.6445 26.8476 35.5934 26.7815 35.5309 26.7191C35.4685 26.6566 35.4024 26.6055 35.3842 26.6055C35.366 26.6055 35.3346 26.5826 35.3145 26.5547C35.2943 26.5268 35.26 26.5039 35.2383 26.5039C35.2165 26.5039 35.1822 26.4811 35.1621 26.4531C35.1406 26.4233 35.0964 26.4023 35.0549 26.4023C35.0161 26.4023 34.9844 26.3909 34.9844 26.377C34.9844 26.363 34.9615 26.3516 34.9336 26.3516C34.9057 26.3516 34.8828 26.3401 34.8828 26.3262C34.8828 26.3122 34.842 26.3008 34.7921 26.3008C34.6961 26.3008 34.6289 26.2545 34.6289 26.1883C34.6289 26.1664 34.6175 26.1484 34.6035 26.1484C34.5896 26.1484 34.5781 26.1256 34.5781 26.0977C34.5781 26.0697 34.5667 26.0469 34.5527 26.0469C34.5388 26.0469 34.5273 26.024 34.5273 25.9961C34.5273 25.9682 34.5159 25.9453 34.502 25.9453C34.488 25.9453 34.4766 25.9225 34.4766 25.8945C34.4766 25.8666 34.4651 25.8438 34.4512 25.8438C34.4372 25.8438 34.4258 25.8095 34.4258 25.7676C34.4258 25.7257 34.4144 25.6914 34.4004 25.6914C34.3864 25.6914 34.375 25.6686 34.375 25.6406C34.375 25.6127 34.3636 25.5898 34.3496 25.5898C34.3356 25.5898 34.3242 25.567 34.3242 25.5391C34.3242 25.5111 34.3128 25.4883 34.2988 25.4883C34.2849 25.4883 34.2734 25.454 34.2734 25.4121C34.2734 25.3702 34.262 25.3359 34.248 25.3359C34.2341 25.3359 34.2227 25.3131 34.2227 25.2852C34.2227 25.2572 34.2112 25.2344 34.1973 25.2344C34.1833 25.2344 34.1719 25.2115 34.1719 25.1836C34.1719 25.1557 34.1604 25.1328 34.1465 25.1328C34.1325 25.1328 34.1211 25.11 34.1211 25.082C34.1211 25.0541 34.1097 25.0312 34.0957 25.0312C34.0817 25.0312 34.0703 24.997 34.0703 24.9551C34.0703 24.9132 34.0589 24.8789 34.0449 24.8789C34.031 24.8789 34.0195 24.8561 34.0195 24.8281C34.0195 24.8002 34.0081 24.7773 33.9941 24.7773C33.9802 24.7773 33.9688 24.7545 33.9688 24.7266C33.9688 24.6986 33.9573 24.6758 33.9434 24.6758C33.9294 24.6758 33.918 24.6415 33.918 24.5996C33.918 24.5577 33.9065 24.5234 33.8926 24.5234C33.8786 24.5234 33.8672 24.5006 33.8672 24.4727C33.8672 24.4447 33.8558 24.4219 33.8418 24.4219C33.8278 24.4219 33.8164 24.399 33.8164 24.3711C33.8164 24.3432 33.805 24.3203 33.791 24.3203C33.7771 24.3203 33.7656 24.2975 33.7656 24.2695C33.7656 24.2416 33.7542 24.2188 33.7402 24.2188C33.7263 24.2188 33.7148 24.1845 33.7148 24.1426C33.7148 24.1007 33.7034 24.0664 33.6895 24.0664C33.6755 24.0664 33.6641 24.0436 33.6641 24.0156C33.6641 23.9877 33.6526 23.9648 33.6387 23.9648C33.6247 23.9648 33.6133 23.942 33.6133 23.9141C33.6133 23.8861 33.6019 23.8633 33.5879 23.8633C33.5739 23.8633 33.5625 23.8404 33.5625 23.8125C33.5625 23.7846 33.5511 23.7617 33.5371 23.7617C33.5231 23.7617 33.5117 23.7274 33.5117 23.6855C33.5117 23.6437 33.5003 23.6094 33.4863 23.6094C33.4724 23.6094 33.4609 23.5865 33.4609 23.5586C33.4609 23.5307 33.4495 23.5078 33.4355 23.5078C33.4216 23.5078 33.4102 23.485 33.4102 23.457C33.4102 23.4291 33.3987 23.4062 33.3848 23.4062C33.3708 23.4062 33.3594 23.372 33.3594 23.3301C33.3594 23.2882 33.3479 23.2539 33.334 23.2539C33.32 23.2539 33.3086 23.2311 33.3086 23.2031C33.3086 23.1752 33.2972 23.1523 33.2832 23.1523C33.2692 23.1523 33.2578 23.1295 33.2578 23.1016C33.2578 23.0736 33.2464 23.0508 33.2324 23.0508C33.2185 23.0508 33.207 23.0279 33.207 23C33.207 22.9721 33.1956 22.9492 33.1816 22.9492C33.1677 22.9492 33.1562 22.9149 33.1562 22.873C33.1562 22.8312 33.1448 22.7969 33.1309 22.7969C33.1169 22.7969 33.1055 22.774 33.1055 22.7461C33.1055 22.7182 33.094 22.6953 33.0801 22.6953C33.0661 22.6953 33.0547 22.6725 33.0547 22.6445C33.0547 22.6166 33.0433 22.5938 33.0293 22.5938C33.0153 22.5938 33.0039 22.5595 33.0039 22.5176C33.0039 22.4757 32.9925 22.4414 32.9785 22.4414C32.9646 22.4414 32.9531 22.4186 32.9531 22.3906C32.9531 22.3627 32.9417 22.3398 32.9277 22.3398C32.9138 22.3398 32.9023 22.317 32.9023 22.2891C32.9023 22.2611 32.8909 22.2383 32.877 22.2383C32.863 22.2383 32.8516 22.2154 32.8516 22.1875C32.8516 22.1596 32.8401 22.1367 32.8262 22.1367C32.8122 22.1367 32.8008 22.1024 32.8008 22.0605C32.8008 22.0187 32.7894 21.9844 32.7754 21.9844C32.7614 21.9844 32.75 21.9615 32.75 21.9336C32.75 21.9057 32.7386 21.8828 32.7246 21.8828C32.7106 21.8828 32.6992 21.86 32.6992 21.832C32.6992 21.8041 32.6878 21.7812 32.6738 21.7812C32.6599 21.7812 32.6484 21.7584 32.6484 21.7305C32.6484 21.7025 32.637 21.6797 32.623 21.6797C32.6091 21.6797 32.5977 21.6454 32.5977 21.6035C32.5977 21.5616 32.5862 21.5273 32.5723 21.5273C32.5583 21.5273 32.5469 21.4931 32.5469 21.4512C32.5469 21.4093 32.5354 21.375 32.5215 21.375C32.5075 21.375 32.4961 21.3521 32.4961 21.3242C32.4961 21.2963 32.4847 21.2734 32.4707 21.2734C32.4567 21.2734 32.4453 21.2531 32.4453 21.2283C32.4453 21.2034 32.4225 21.1666 32.3945 21.1465C32.3666 21.1263 32.3438 21.0951 32.3438 21.0771C32.3438 21.0343 31.872 20.5625 31.8292 20.5625C31.8111 20.5625 31.7799 20.5396 31.7598 20.5117C31.7396 20.4838 31.7028 20.4609 31.678 20.4609C31.6532 20.4609 31.6328 20.4495 31.6328 20.4355C31.6328 20.4216 31.61 20.4102 31.582 20.4102C31.5541 20.4102 31.5312 20.3987 31.5312 20.3848C31.5312 20.3708 31.5084 20.3594 31.4805 20.3594C31.4525 20.3594 31.4297 20.3479 31.4297 20.334C31.4297 20.32 31.3954 20.3086 31.3535 20.3086C31.3116 20.3086 31.2773 20.2972 31.2773 20.2832C31.2773 20.2692 31.2316 20.2578 31.1758 20.2578C31.1199 20.2578 31.0742 20.2464 31.0742 20.2324C31.0742 20.2156 29.043 20.207 25.0312 20.207C21.0195 20.207 18.9883 20.2156 18.9883 20.2324ZM30.9727 21.0449C30.9727 21.0589 31.0069 21.0703 31.0488 21.0703C31.0907 21.0703 31.125 21.0817 31.125 21.0957C31.125 21.1097 31.1479 21.1211 31.1758 21.1211C31.2037 21.1211 31.2266 21.1325 31.2266 21.1465C31.2266 21.1604 31.2448 21.1719 31.2672 21.1719C31.2895 21.1719 31.3398 21.2062 31.3789 21.248C31.418 21.2899 31.4634 21.3242 31.4798 21.3242C31.5181 21.3242 31.582 21.3881 31.582 21.4265C31.582 21.4428 31.6163 21.4882 31.6582 21.5273C31.7001 21.5665 31.7344 21.6168 31.7344 21.6391C31.7344 21.6614 31.7458 21.6797 31.7598 21.6797C31.7737 21.6797 31.7852 21.7025 31.7852 21.7305C31.7852 21.7584 31.7966 21.7812 31.8105 21.7812C31.8245 21.7812 31.8359 21.8155 31.8359 21.8574C31.8359 21.8993 31.8474 21.9336 31.8613 21.9336C31.8753 21.9336 31.8867 21.9679 31.8867 22.0098C31.8867 22.0517 31.8981 22.0859 31.9121 22.0859C31.9261 22.0859 31.9375 22.1088 31.9375 22.1367C31.9375 22.1646 31.9489 22.1875 31.9629 22.1875C31.9769 22.1875 31.9883 22.2104 31.9883 22.2383C31.9883 22.2662 31.9997 22.2891 32.0137 22.2891C32.0276 22.2891 32.0391 22.3119 32.0391 22.3398C32.0391 22.3678 32.0505 22.3906 32.0645 22.3906C32.0784 22.3906 32.0898 22.4249 32.0898 22.4668C32.0898 22.5087 32.1013 22.543 32.1152 22.543C32.1292 22.543 32.1406 22.5658 32.1406 22.5938C32.1406 22.6217 32.1521 22.6445 32.166 22.6445C32.18 22.6445 32.1914 22.6674 32.1914 22.6953C32.1914 22.7232 32.2028 22.7461 32.2168 22.7461C32.2308 22.7461 32.2422 22.7689 32.2422 22.7969C32.2422 22.8248 32.2536 22.8477 32.2676 22.8477C32.2815 22.8477 32.293 22.8819 32.293 22.9238C32.293 22.9657 32.3044 23 32.3184 23C32.3323 23 32.3438 23.0229 32.3438 23.0508C32.3438 23.0787 32.3552 23.1016 32.3691 23.1016C32.3831 23.1016 32.3945 23.1244 32.3945 23.1523C32.3945 23.1803 32.406 23.2031 32.4199 23.2031C32.4339 23.2031 32.4453 23.2374 32.4453 23.2793C32.4453 23.3212 32.4567 23.3555 32.4707 23.3555C32.4847 23.3555 32.4961 23.3783 32.4961 23.4062C32.4961 23.4342 32.5075 23.457 32.5215 23.457C32.5354 23.457 32.5469 23.4799 32.5469 23.5078C32.5469 23.5357 32.5583 23.5586 32.5723 23.5586C32.5862 23.5586 32.5977 23.5814 32.5977 23.6094C32.5977 23.6373 32.6091 23.6602 32.623 23.6602C32.637 23.6602 32.6484 23.6944 32.6484 23.7363C32.6484 23.7782 32.6599 23.8125 32.6738 23.8125C32.6878 23.8125 32.6992 23.8354 32.6992 23.8633C32.6992 23.8912 32.7106 23.9141 32.7246 23.9141C32.7386 23.9141 32.75 23.9369 32.75 23.9648C32.75 23.9928 32.7614 24.0156 32.7754 24.0156C32.7894 24.0156 32.8008 24.0385 32.8008 24.0664C32.8008 24.0943 32.8122 24.1172 32.8262 24.1172C32.8401 24.1172 32.8516 24.1515 32.8516 24.1934C32.8516 24.2353 32.863 24.2695 32.877 24.2695C32.8909 24.2695 32.9023 24.2924 32.9023 24.3203C32.9023 24.3482 32.9138 24.3711 32.9277 24.3711C32.9417 24.3711 32.9531 24.3939 32.9531 24.4219C32.9531 24.4498 32.9646 24.4727 32.9785 24.4727C32.9925 24.4727 33.0039 24.5069 33.0039 24.5488C33.0039 24.5907 33.0153 24.625 33.0293 24.625C33.0433 24.625 33.0547 24.6479 33.0547 24.6758C33.0547 24.7037 33.0661 24.7266 33.0801 24.7266C33.094 24.7266 33.1055 24.7494 33.1055 24.7773C33.1055 24.8053 33.1169 24.8281 33.1309 24.8281C33.1448 24.8281 33.1562 24.851 33.1562 24.8789C33.1562 24.9068 33.1677 24.9297 33.1816 24.9297C33.1956 24.9297 33.207 24.964 33.207 25.0059C33.207 25.0478 33.2185 25.082 33.2324 25.082C33.2464 25.082 33.2578 25.1049 33.2578 25.1328C33.2578 25.1607 33.2692 25.1836 33.2832 25.1836C33.2972 25.1836 33.3086 25.2064 33.3086 25.2344C33.3086 25.2623 33.32 25.2852 33.334 25.2852C33.3479 25.2852 33.3594 25.3194 33.3594 25.3613C33.3594 25.4032 33.3708 25.4375 33.3848 25.4375C33.3987 25.4375 33.4102 25.4604 33.4102 25.4883C33.4102 25.5162 33.4216 25.5391 33.4355 25.5391C33.4495 25.5391 33.4609 25.5619 33.4609 25.5898C33.4609 25.6178 33.4724 25.6406 33.4863 25.6406C33.5003 25.6406 33.5117 25.6635 33.5117 25.6914C33.5117 25.7193 33.5231 25.7422 33.5371 25.7422C33.5511 25.7422 33.5625 25.7765 33.5625 25.8184C33.5625 25.8603 33.5739 25.8945 33.5879 25.8945C33.6019 25.8945 33.6133 25.9174 33.6133 25.9453C33.6133 25.9732 33.6247 25.9961 33.6387 25.9961C33.6526 25.9961 33.6641 26.0189 33.6641 26.0469C33.6641 26.0748 33.6755 26.0977 33.6895 26.0977C33.7034 26.0977 33.7148 26.1319 33.7148 26.1738V26.25H25.0059C19.2168 26.25 16.2969 26.2415 16.2969 26.2246C16.2969 26.2106 16.3083 26.1992 16.3223 26.1992C16.3362 26.1992 16.3477 26.1764 16.3477 26.1484C16.3477 26.1205 16.3591 26.0977 16.373 26.0977C16.387 26.0977 16.3984 26.0748 16.3984 26.0469C16.3984 26.0189 16.4099 25.9961 16.4238 25.9961C16.4378 25.9961 16.4492 25.9732 16.4492 25.9453C16.4492 25.9174 16.4606 25.8945 16.4746 25.8945C16.4886 25.8945 16.5 25.8603 16.5 25.8184C16.5 25.7765 16.5114 25.7422 16.5254 25.7422C16.5394 25.7422 16.5508 25.7193 16.5508 25.6914C16.5508 25.6635 16.5622 25.6406 16.5762 25.6406C16.5901 25.6406 16.6016 25.6178 16.6016 25.5898C16.6016 25.5619 16.613 25.5391 16.627 25.5391C16.6409 25.5391 16.6523 25.5162 16.6523 25.4883C16.6523 25.4604 16.6638 25.4375 16.6777 25.4375C16.6917 25.4375 16.7031 25.4032 16.7031 25.3613C16.7031 25.3194 16.7146 25.2852 16.7285 25.2852C16.7425 25.2852 16.7539 25.2623 16.7539 25.2344C16.7539 25.2064 16.7653 25.1836 16.7793 25.1836C16.7933 25.1836 16.8047 25.1607 16.8047 25.1328C16.8047 25.1049 16.8161 25.082 16.8301 25.082C16.844 25.082 16.8555 25.0478 16.8555 25.0059C16.8555 24.964 16.8669 24.9297 16.8809 24.9297C16.8948 24.9297 16.9062 24.9068 16.9062 24.8789C16.9062 24.851 16.9177 24.8281 16.9316 24.8281C16.9456 24.8281 16.957 24.8053 16.957 24.7773C16.957 24.7494 16.9685 24.7266 16.9824 24.7266C16.9964 24.7266 17.0078 24.7037 17.0078 24.6758C17.0078 24.6479 17.0192 24.625 17.0332 24.625C17.0472 24.625 17.0586 24.5907 17.0586 24.5488C17.0586 24.5069 17.07 24.4727 17.084 24.4727C17.0979 24.4727 17.1094 24.4498 17.1094 24.4219C17.1094 24.3939 17.1208 24.3711 17.1348 24.3711C17.1487 24.3711 17.1602 24.3482 17.1602 24.3203C17.1602 24.2924 17.1716 24.2695 17.1855 24.2695C17.1995 24.2695 17.2109 24.2467 17.2109 24.2188C17.2109 24.1908 17.2224 24.168 17.2363 24.168C17.2503 24.168 17.2617 24.1337 17.2617 24.0918C17.2617 24.0499 17.2731 24.0156 17.2871 24.0156C17.3011 24.0156 17.3125 23.9928 17.3125 23.9648C17.3125 23.9369 17.3239 23.9141 17.3379 23.9141C17.3519 23.9141 17.3633 23.8912 17.3633 23.8633C17.3633 23.8354 17.3747 23.8125 17.3887 23.8125C17.4026 23.8125 17.4141 23.7782 17.4141 23.7363C17.4141 23.6944 17.4255 23.6602 17.4395 23.6602C17.4534 23.6602 17.4648 23.6373 17.4648 23.6094C17.4648 23.5814 17.4763 23.5586 17.4902 23.5586C17.5042 23.5586 17.5156 23.5357 17.5156 23.5078C17.5156 23.4799 17.5271 23.457 17.541 23.457C17.555 23.457 17.5664 23.4342 17.5664 23.4062C17.5664 23.3783 17.5778 23.3555 17.5918 23.3555C17.6058 23.3555 17.6172 23.3212 17.6172 23.2793C17.6172 23.2374 17.6286 23.2031 17.6426 23.2031C17.6565 23.2031 17.668 23.1803 17.668 23.1523C17.668 23.1244 17.6794 23.1016 17.6934 23.1016C17.7073 23.1016 17.7188 23.0787 17.7188 23.0508C17.7188 23.0229 17.7302 23 17.7441 23C17.7581 23 17.7695 22.9657 17.7695 22.9238C17.7695 22.8819 17.781 22.8477 17.7949 22.8477C17.8089 22.8477 17.8203 22.8248 17.8203 22.7969C17.8203 22.7689 17.8317 22.7461 17.8457 22.7461C17.8597 22.7461 17.8711 22.7232 17.8711 22.6953C17.8711 22.6674 17.8825 22.6445 17.8965 22.6445C17.9104 22.6445 17.9219 22.6217 17.9219 22.5938C17.9219 22.5658 17.9333 22.543 17.9473 22.543C17.9612 22.543 17.9727 22.5087 17.9727 22.4668C17.9727 22.4249 17.9841 22.3906 17.998 22.3906C18.012 22.3906 18.0234 22.3678 18.0234 22.3398C18.0234 22.3119 18.0349 22.2891 18.0488 22.2891C18.0628 22.2891 18.0742 22.2662 18.0742 22.2383C18.0742 22.2104 18.0856 22.1875 18.0996 22.1875C18.1136 22.1875 18.125 22.1532 18.125 22.1113C18.125 22.0694 18.1364 22.0352 18.1504 22.0352C18.1644 22.0352 18.1758 22.0123 18.1758 21.9844C18.1758 21.9564 18.1872 21.9336 18.2012 21.9336C18.2151 21.9336 18.2266 21.8993 18.2266 21.8574C18.2266 21.8155 18.238 21.7812 18.252 21.7812C18.2659 21.7812 18.2773 21.7584 18.2773 21.7305C18.2773 21.7025 18.2888 21.6797 18.3027 21.6797C18.3167 21.6797 18.3281 21.6614 18.3281 21.6391C18.3281 21.6168 18.3624 21.5665 18.4043 21.5273C18.4462 21.4882 18.4805 21.4428 18.4805 21.4265C18.4805 21.4101 18.4968 21.3804 18.5168 21.3605C18.5367 21.3405 18.5664 21.3242 18.5827 21.3242C18.5991 21.3242 18.6445 21.2899 18.6836 21.248C18.7227 21.2062 18.773 21.1719 18.7953 21.1719C18.8177 21.1719 18.8359 21.1604 18.8359 21.1465C18.8359 21.1325 18.8588 21.1211 18.8867 21.1211C18.9146 21.1211 18.9375 21.1097 18.9375 21.0957C18.9375 21.0817 18.9718 21.0703 19.0137 21.0703C19.0556 21.0703 19.0898 21.0589 19.0898 21.0449C19.0898 21.0281 21.0872 21.0195 25.0312 21.0195C28.9753 21.0195 30.9727 21.0281 30.9727 21.0449ZM34.5781 27.0879C34.5781 27.1019 34.6124 27.1133 34.6543 27.1133C34.6962 27.1133 34.7305 27.1247 34.7305 27.1387C34.7305 27.1526 34.7479 27.1641 34.7691 27.1641C34.8194 27.1641 35.0859 27.4306 35.0859 27.4809C35.0859 27.5021 35.0974 27.5195 35.1113 27.5195C35.1253 27.5195 35.1367 27.5538 35.1367 27.5957C35.1367 27.6376 35.1481 27.6719 35.1621 27.6719C35.1789 27.6719 35.1875 28.5013 35.1875 30.1094C35.1875 31.7174 35.1789 32.5469 35.1621 32.5469C35.1481 32.5469 35.1367 32.5812 35.1367 32.623C35.1367 32.6649 35.1253 32.6992 35.1113 32.6992C35.0974 32.6992 35.0859 32.7166 35.0859 32.7379C35.0859 32.7881 34.8194 33.0547 34.7691 33.0547C34.7479 33.0547 34.7305 33.0661 34.7305 33.0801C34.7305 33.094 34.6962 33.1055 34.6543 33.1055C34.6124 33.1055 34.5781 33.1169 34.5781 33.1309C34.5781 33.1476 33.7608 33.1562 32.1769 33.1562C29.6287 33.1562 29.7031 33.1596 29.7031 33.0438C29.7031 33.0219 29.6917 33.0039 29.6777 33.0039C29.6638 33.0039 29.6523 32.9811 29.6523 32.9531C29.6523 32.9252 29.6409 32.9023 29.627 32.9023C29.613 32.9023 29.6016 32.8795 29.6016 32.8516C29.6016 32.8236 29.5901 32.8008 29.5762 32.8008C29.5622 32.8008 29.5508 32.7779 29.5508 32.75C29.5508 32.7221 29.5394 32.6992 29.5254 32.6992C29.5114 32.6992 29.5 32.6764 29.5 32.6484C29.5 32.6205 29.4886 32.5977 29.4746 32.5977C29.4606 32.5977 29.4492 32.5748 29.4492 32.5469C29.4492 32.5189 29.4378 32.4961 29.4238 32.4961C29.4099 32.4961 29.3984 32.4732 29.3984 32.4453C29.3984 32.4174 29.387 32.3945 29.373 32.3945C29.3591 32.3945 29.3477 32.3717 29.3477 32.3438C29.3477 32.3158 29.3362 32.293 29.3223 32.293C29.3083 32.293 29.2969 32.2701 29.2969 32.2422C29.2969 32.2143 29.2854 32.1914 29.2715 32.1914C29.2575 32.1914 29.2461 32.1686 29.2461 32.1406C29.2461 32.1127 29.2347 32.0898 29.2207 32.0898C29.2067 32.0898 29.1953 32.067 29.1953 32.0391C29.1953 32.0111 29.1839 31.9883 29.1699 31.9883C29.156 31.9883 29.1445 31.9654 29.1445 31.9375C29.1445 31.9096 29.1331 31.8867 29.1191 31.8867C29.1052 31.8867 29.0938 31.8639 29.0938 31.8359C29.0938 31.808 29.0823 31.7852 29.0684 31.7852C29.0544 31.7852 29.043 31.7675 29.043 31.7459C29.043 31.6951 28.9299 31.582 28.8791 31.582C28.8575 31.582 28.8398 31.5706 28.8398 31.5566C28.8398 31.5398 27.5534 31.5312 25.0312 31.5312C22.5091 31.5312 21.2227 31.5398 21.2227 31.5566C21.2227 31.5706 21.205 31.582 21.1834 31.582C21.1326 31.582 21.0195 31.6951 21.0195 31.7459C21.0195 31.7675 21.0081 31.7852 20.9941 31.7852C20.9802 31.7852 20.9688 31.808 20.9688 31.8359C20.9688 31.8639 20.9573 31.8867 20.9434 31.8867C20.9294 31.8867 20.918 31.9096 20.918 31.9375C20.918 31.9654 20.9065 31.9883 20.8926 31.9883C20.8786 31.9883 20.8672 32.0111 20.8672 32.0391C20.8672 32.067 20.8558 32.0898 20.8418 32.0898C20.8278 32.0898 20.8164 32.1127 20.8164 32.1406C20.8164 32.1686 20.805 32.1914 20.791 32.1914C20.7771 32.1914 20.7656 32.2143 20.7656 32.2422C20.7656 32.2701 20.7542 32.293 20.7402 32.293C20.7263 32.293 20.7148 32.3158 20.7148 32.3438C20.7148 32.3717 20.7034 32.3945 20.6895 32.3945C20.6755 32.3945 20.6641 32.4174 20.6641 32.4453C20.6641 32.4732 20.6526 32.4961 20.6387 32.4961C20.6247 32.4961 20.6133 32.5189 20.6133 32.5469C20.6133 32.5748 20.6019 32.5977 20.5879 32.5977C20.5739 32.5977 20.5625 32.6205 20.5625 32.6484C20.5625 32.6764 20.5511 32.6992 20.5371 32.6992C20.5231 32.6992 20.5117 32.7221 20.5117 32.75C20.5117 32.7779 20.5003 32.8008 20.4863 32.8008C20.4724 32.8008 20.4609 32.8236 20.4609 32.8516C20.4609 32.8795 20.4495 32.9023 20.4355 32.9023C20.4216 32.9023 20.4102 32.9252 20.4102 32.9531C20.4102 32.9811 20.3987 33.0039 20.3848 33.0039C20.3708 33.0039 20.3594 33.0219 20.3594 33.0438C20.3594 33.1596 20.4338 33.1562 17.8856 33.1562C16.3017 33.1562 15.4844 33.1476 15.4844 33.1309C15.4844 33.1169 15.4501 33.1055 15.4082 33.1055C15.3663 33.1055 15.332 33.094 15.332 33.0801C15.332 33.0661 15.3146 33.0547 15.2934 33.0547C15.2431 33.0547 14.9766 32.7881 14.9766 32.7379C14.9766 32.7166 14.9651 32.6992 14.9512 32.6992C14.9372 32.6992 14.9258 32.6649 14.9258 32.623C14.9258 32.5812 14.9144 32.5469 14.9004 32.5469C14.8836 32.5469 14.875 31.7174 14.875 30.1094C14.875 28.5013 14.8836 27.6719 14.9004 27.6719C14.9144 27.6719 14.9258 27.6376 14.9258 27.5957C14.9258 27.5538 14.9372 27.5195 14.9512 27.5195C14.9651 27.5195 14.9766 27.5021 14.9766 27.4809C14.9766 27.4306 15.2431 27.1641 15.2934 27.1641C15.3146 27.1641 15.332 27.1526 15.332 27.1387C15.332 27.1247 15.3663 27.1133 15.4082 27.1133C15.4501 27.1133 15.4844 27.1019 15.4844 27.0879C15.4844 27.071 18.6836 27.0625 25.0312 27.0625C31.3789 27.0625 34.5781 27.071 34.5781 27.0879ZM15.9414 28.3066C15.9414 28.3206 15.9238 28.332 15.9022 28.332C15.8514 28.332 15.7383 28.4451 15.7383 28.4959C15.7383 28.5175 15.7269 28.5352 15.7129 28.5352C15.6967 28.5352 15.6875 28.7552 15.6875 29.1445C15.6875 29.5338 15.6967 29.7539 15.7129 29.7539C15.7269 29.7539 15.7383 29.7882 15.7383 29.8301C15.7383 29.872 15.7497 29.9062 15.7637 29.9062C15.7776 29.9062 15.7891 29.938 15.7891 29.9768C15.7891 30.0182 15.81 30.0625 15.8398 30.084C15.8678 30.1041 15.8906 30.1354 15.8906 30.1535C15.8906 30.1965 16.2098 30.5156 16.2527 30.5156C16.2708 30.5156 16.3021 30.5385 16.3223 30.5664C16.3438 30.5962 16.388 30.6172 16.4294 30.6172C16.4682 30.6172 16.5 30.6286 16.5 30.6426C16.5 30.6565 16.5343 30.668 16.5762 30.668C16.6181 30.668 16.6523 30.6794 16.6523 30.6934C16.6523 30.71 17.1432 30.7188 18.0742 30.7188C19.0052 30.7188 19.4961 30.71 19.4961 30.6934C19.4961 30.6794 19.5137 30.668 19.5353 30.668C19.5861 30.668 19.6992 30.5549 19.6992 30.5041C19.6992 30.4825 19.7106 30.4648 19.7246 30.4648C19.7408 30.4648 19.75 30.2448 19.75 29.8555C19.75 29.4662 19.7408 29.2461 19.7246 29.2461C19.7106 29.2461 19.6992 29.2118 19.6992 29.1699C19.6992 29.128 19.6878 29.0938 19.6738 29.0938C19.6599 29.0938 19.6484 29.062 19.6484 29.0232C19.6484 28.9818 19.6275 28.9375 19.5977 28.916C19.5697 28.8959 19.5469 28.8646 19.5469 28.8465C19.5469 28.8035 19.2277 28.4844 19.1848 28.4844C19.1667 28.4844 19.1354 28.4615 19.1152 28.4336C19.0937 28.4038 19.0495 28.3828 19.0081 28.3828C18.9693 28.3828 18.9375 28.3714 18.9375 28.3574C18.9375 28.3435 18.9032 28.332 18.8613 28.332C18.8194 28.332 18.7852 28.3206 18.7852 28.3066C18.7852 28.29 18.2943 28.2812 17.3633 28.2812C16.4323 28.2812 15.9414 28.29 15.9414 28.3066ZM31.2773 28.3066C31.2773 28.3206 31.2431 28.332 31.2012 28.332C31.1593 28.332 31.125 28.3435 31.125 28.3574C31.125 28.3714 31.0932 28.3828 31.0544 28.3828C31.013 28.3828 30.9688 28.4038 30.9473 28.4336C30.9271 28.4615 30.8958 28.4844 30.8777 28.4844C30.8596 28.4844 30.7707 28.5584 30.6802 28.6489C30.5897 28.7394 30.5156 28.8283 30.5156 28.8465C30.5156 28.8646 30.4928 28.8959 30.4648 28.916C30.435 28.9375 30.4141 28.9818 30.4141 29.0232C30.4141 29.062 30.4026 29.0938 30.3887 29.0938C30.3747 29.0938 30.3633 29.128 30.3633 29.1699C30.3633 29.2118 30.3519 29.2461 30.3379 29.2461C30.3217 29.2461 30.3125 29.4662 30.3125 29.8555C30.3125 30.2448 30.3217 30.4648 30.3379 30.4648C30.3519 30.4648 30.3633 30.4825 30.3633 30.5041C30.3633 30.5549 30.4764 30.668 30.5272 30.668C30.5488 30.668 30.5664 30.6794 30.5664 30.6934C30.5664 30.71 31.0573 30.7188 31.9883 30.7188C32.9193 30.7188 33.4102 30.71 33.4102 30.6934C33.4102 30.6794 33.4444 30.668 33.4863 30.668C33.5282 30.668 33.5625 30.6565 33.5625 30.6426C33.5625 30.6286 33.5943 30.6172 33.6331 30.6172C33.6745 30.6172 33.7187 30.5962 33.7402 30.5664C33.7604 30.5385 33.7917 30.5156 33.8098 30.5156C33.8279 30.5156 33.9168 30.4416 34.0073 30.3511C34.0978 30.2606 34.1719 30.1717 34.1719 30.1535C34.1719 30.1354 34.1947 30.1041 34.2227 30.084C34.2525 30.0625 34.2734 30.0182 34.2734 29.9768C34.2734 29.938 34.2849 29.9062 34.2988 29.9062C34.3128 29.9062 34.3242 29.872 34.3242 29.8301C34.3242 29.7882 34.3356 29.7539 34.3496 29.7539C34.3658 29.7539 34.375 29.5338 34.375 29.1445C34.375 28.7552 34.3658 28.5352 34.3496 28.5352C34.3356 28.5352 34.3242 28.5175 34.3242 28.4959C34.3242 28.4451 34.2111 28.332 34.1603 28.332C34.1387 28.332 34.1211 28.3206 34.1211 28.3066C34.1211 28.29 33.6302 28.2812 32.6992 28.2812C31.7682 28.2812 31.2773 28.29 31.2773 28.3066ZM18.6836 29.1191C18.6836 29.1331 18.7012 29.1445 18.7228 29.1445C18.7736 29.1445 18.8867 29.2576 18.8867 29.3084C18.8867 29.33 18.8981 29.3477 18.9121 29.3477C18.9275 29.3477 18.9375 29.4577 18.9375 29.627V29.9062H17.8457C17.1348 29.9062 16.7539 29.8974 16.7539 29.8809C16.7539 29.8669 16.7363 29.8555 16.7147 29.8555C16.6639 29.8555 16.5508 29.7424 16.5508 29.6916C16.5508 29.67 16.5394 29.6523 16.5254 29.6523C16.51 29.6523 16.5 29.5423 16.5 29.373V29.0938H17.5918C18.3027 29.0938 18.6836 29.1026 18.6836 29.1191ZM33.5625 29.373C33.5625 29.5423 33.5525 29.6523 33.5371 29.6523C33.5231 29.6523 33.5117 29.67 33.5117 29.6916C33.5117 29.7424 33.3986 29.8555 33.3478 29.8555C33.3262 29.8555 33.3086 29.8669 33.3086 29.8809C33.3086 29.8974 32.9277 29.9062 32.2168 29.9062H31.125V29.627C31.125 29.4577 31.135 29.3477 31.1504 29.3477C31.1644 29.3477 31.1758 29.33 31.1758 29.3084C31.1758 29.2868 31.2038 29.2411 31.2381 29.2069C31.2724 29.1726 31.3181 29.1445 31.3397 29.1445C31.3613 29.1445 31.3789 29.1331 31.3789 29.1191C31.3789 29.1026 31.7598 29.0938 32.4707 29.0938H33.5625V29.373ZM21.2227 29.9316C21.2227 29.9456 21.205 29.957 21.1834 29.957C21.1326 29.957 21.0195 30.0701 21.0195 30.1209C21.0195 30.1425 21.0081 30.1602 20.9941 30.1602C20.98 30.1602 20.9688 30.2279 20.9688 30.3125C20.9688 30.3971 20.98 30.4648 20.9941 30.4648C21.0081 30.4648 21.0195 30.4825 21.0195 30.5041C21.0195 30.5549 21.1326 30.668 21.1834 30.668C21.205 30.668 21.2227 30.6794 21.2227 30.6934C21.2227 30.7102 22.5091 30.7188 25.0312 30.7188C27.5534 30.7188 28.8398 30.7102 28.8398 30.6934C28.8398 30.6794 28.8575 30.668 28.8791 30.668C28.9299 30.668 29.043 30.5549 29.043 30.5041C29.043 30.4825 29.0544 30.4648 29.0684 30.4648C29.0825 30.4648 29.0938 30.3971 29.0938 30.3125C29.0938 30.2279 29.0825 30.1602 29.0684 30.1602C29.0544 30.1602 29.043 30.1425 29.043 30.1209C29.043 30.0701 28.9299 29.957 28.8791 29.957C28.8575 29.957 28.8398 29.9456 28.8398 29.9316C28.8398 29.9148 27.5534 29.9062 25.0312 29.9062C22.5091 29.9062 21.2227 29.9148 21.2227 29.9316ZM17.5664 31.5566C17.5664 31.5706 17.5488 31.582 17.5272 31.582C17.4764 31.582 17.3633 31.6951 17.3633 31.7459C17.3633 31.7675 17.3519 31.7852 17.3379 31.7852C17.3238 31.7852 17.3125 31.8529 17.3125 31.9375C17.3125 32.0221 17.3238 32.0898 17.3379 32.0898C17.3519 32.0898 17.3633 32.1075 17.3633 32.1291C17.3633 32.1799 17.4764 32.293 17.5272 32.293C17.5488 32.293 17.5664 32.3044 17.5664 32.3184C17.5664 32.3348 17.9049 32.3438 18.5312 32.3438C19.1576 32.3438 19.4961 32.3348 19.4961 32.3184C19.4961 32.3044 19.5137 32.293 19.5353 32.293C19.5861 32.293 19.6992 32.1799 19.6992 32.1291C19.6992 32.1075 19.7106 32.0898 19.7246 32.0898C19.7387 32.0898 19.75 32.0221 19.75 31.9375C19.75 31.8529 19.7387 31.7852 19.7246 31.7852C19.7106 31.7852 19.6992 31.7675 19.6992 31.7459C19.6992 31.6951 19.5861 31.582 19.5353 31.582C19.5137 31.582 19.4961 31.5706 19.4961 31.5566C19.4961 31.5402 19.1576 31.5312 18.5312 31.5312C17.9049 31.5312 17.5664 31.5402 17.5664 31.5566ZM30.5664 31.5566C30.5664 31.5706 30.5488 31.582 30.5272 31.582C30.5056 31.582 30.4599 31.6101 30.4256 31.6444C30.3913 31.6786 30.3633 31.7243 30.3633 31.7459C30.3633 31.7675 30.3519 31.7852 30.3379 31.7852C30.3238 31.7852 30.3125 31.8529 30.3125 31.9375C30.3125 32.0221 30.3238 32.0898 30.3379 32.0898C30.3519 32.0898 30.3633 32.1075 30.3633 32.1291C30.3633 32.1799 30.4764 32.293 30.5272 32.293C30.5488 32.293 30.5664 32.3044 30.5664 32.3184C30.5664 32.3348 30.9049 32.3438 31.5312 32.3438C32.1576 32.3438 32.4961 32.3348 32.4961 32.3184C32.4961 32.3044 32.5137 32.293 32.5353 32.293C32.5861 32.293 32.6992 32.1799 32.6992 32.1291C32.6992 32.1075 32.7106 32.0898 32.7246 32.0898C32.7387 32.0898 32.75 32.0221 32.75 31.9375C32.75 31.8529 32.7387 31.7852 32.7246 31.7852C32.7106 31.7852 32.6992 31.7675 32.6992 31.7459C32.6992 31.6951 32.5861 31.582 32.5353 31.582C32.5137 31.582 32.4961 31.5706 32.4961 31.5566C32.4961 31.5402 32.1576 31.5312 31.5312 31.5312C30.9049 31.5312 30.5664 31.5402 30.5664 31.5566ZM28.4481 32.38C28.468 32.4 28.4844 32.4342 28.4844 32.4562C28.4844 32.4781 28.4958 32.4961 28.5098 32.4961C28.5237 32.4961 28.5352 32.5189 28.5352 32.5469C28.5352 32.5748 28.5466 32.5977 28.5605 32.5977C28.5745 32.5977 28.5859 32.6205 28.5859 32.6484C28.5859 32.6764 28.5974 32.6992 28.6113 32.6992C28.6253 32.6992 28.6367 32.7221 28.6367 32.75C28.6367 32.7779 28.6481 32.8008 28.6621 32.8008C28.6761 32.8008 28.6875 32.8236 28.6875 32.8516C28.6875 32.8795 28.6989 32.9023 28.7129 32.9023C28.7269 32.9023 28.7383 32.9252 28.7383 32.9531C28.7383 32.9811 28.7497 33.0039 28.7637 33.0039C28.7776 33.0039 28.7891 33.0268 28.7891 33.0547C28.7891 33.0826 28.8005 33.1055 28.8145 33.1055C28.8284 33.1055 28.8398 33.1169 28.8398 33.1309C28.8398 33.1477 27.5534 33.1562 25.0312 33.1562C22.5091 33.1562 21.2227 33.1477 21.2227 33.1309C21.2227 33.1169 21.2341 33.1055 21.248 33.1055C21.262 33.1055 21.2734 33.0826 21.2734 33.0547C21.2734 33.0268 21.2849 33.0039 21.2988 33.0039C21.3128 33.0039 21.3242 32.9811 21.3242 32.9531C21.3242 32.9252 21.3356 32.9023 21.3496 32.9023C21.3636 32.9023 21.375 32.8795 21.375 32.8516C21.375 32.8236 21.3864 32.8008 21.4004 32.8008C21.4144 32.8008 21.4258 32.7779 21.4258 32.75C21.4258 32.7221 21.4372 32.6992 21.4512 32.6992C21.4651 32.6992 21.4766 32.6764 21.4766 32.6484C21.4766 32.6205 21.488 32.5977 21.502 32.5977C21.5159 32.5977 21.5273 32.5748 21.5273 32.5469C21.5273 32.5189 21.5388 32.4961 21.5527 32.4961C21.5667 32.4961 21.5781 32.4785 21.5781 32.4569C21.5781 32.341 21.4313 32.3457 25.0267 32.3447C27.9275 32.3439 28.417 32.3489 28.4481 32.38ZM14.9766 33.791C14.9766 33.805 14.9994 33.8164 15.0273 33.8164C15.0553 33.8164 15.0781 33.8278 15.0781 33.8418C15.0781 33.8558 15.1124 33.8672 15.1543 33.8672C15.1962 33.8672 15.2305 33.8786 15.2305 33.8926C15.2305 33.9065 15.2762 33.918 15.332 33.918C15.3879 33.918 15.4336 33.9294 15.4336 33.9434C15.4336 33.96 15.8991 33.9688 16.7793 33.9688H18.125V34.4512C18.125 34.7559 18.1157 34.9336 18.0996 34.9336C18.0856 34.9336 18.0742 34.9512 18.0742 34.9728C18.0742 35.0236 17.9611 35.1367 17.9103 35.1367C17.8887 35.1367 17.8711 35.1481 17.8711 35.1621C17.8711 35.1787 17.3971 35.1875 16.5 35.1875C15.6029 35.1875 15.1289 35.1787 15.1289 35.1621C15.1289 35.1481 15.1113 35.1367 15.0897 35.1367C15.0389 35.1367 14.9258 35.0236 14.9258 34.9728C14.9258 34.9512 14.9144 34.9336 14.9004 34.9336C14.8842 34.9336 14.875 34.722 14.875 34.3496C14.875 33.7826 14.8765 33.7656 14.9258 33.7656C14.9537 33.7656 14.9766 33.7771 14.9766 33.791ZM35.1875 34.3496C35.1875 34.722 35.1783 34.9336 35.1621 34.9336C35.1481 34.9336 35.1367 34.9512 35.1367 34.9728C35.1367 35.0236 35.0236 35.1367 34.9728 35.1367C34.9512 35.1367 34.9336 35.1481 34.9336 35.1621C34.9336 35.1787 34.4596 35.1875 33.5625 35.1875C32.6654 35.1875 32.1914 35.1787 32.1914 35.1621C32.1914 35.1481 32.1738 35.1367 32.1522 35.1367C32.1014 35.1367 31.9883 35.0236 31.9883 34.9728C31.9883 34.9512 31.9769 34.9336 31.9629 34.9336C31.9468 34.9336 31.9375 34.7559 31.9375 34.4512V33.9688H33.2832C34.1634 33.9688 34.6289 33.96 34.6289 33.9434C34.6289 33.9294 34.6746 33.918 34.7305 33.918C34.7863 33.918 34.832 33.9065 34.832 33.8926C34.832 33.8786 34.8663 33.8672 34.9082 33.8672C34.9501 33.8672 34.9844 33.8558 34.9844 33.8418C34.9844 33.8278 35.0072 33.8164 35.0352 33.8164C35.0631 33.8164 35.0859 33.805 35.0859 33.791C35.0859 33.7771 35.1088 33.7656 35.1367 33.7656C35.186 33.7656 35.1875 33.7826 35.1875 34.3496Z" fill="#0089B1"/>
</svg>
