<svg width="53" height="61" viewBox="0 0 53 61" fill="none" xmlns="http://www.w3.org/2000/svg">
<path d="M8 61V44L18 51L8 61Z" fill="#F8B41B"/>
<circle cx="26.5" cy="26.5" r="25" fill="#F8B41B" stroke="#F8B41B" stroke-width="3"/>
<path d="M22.2847 32.0443C22.2847 31.1449 22.3875 30.3226 22.5931 29.5774C22.7987 28.8321 23.1328 28.1512 23.5953 27.5345C24.0578 26.892 24.6874 26.3267 25.484 25.8385C25.9209 25.5815 26.4348 25.2988 27.0258 24.9905C27.6169 24.6564 28.1822 24.2709 28.7218 23.8341C29.2615 23.3972 29.7112 22.8833 30.0709 22.2923C30.4564 21.7012 30.6491 21.0074 30.6491 20.2108C30.6491 19.3628 30.4435 18.6561 30.0324 18.0908C29.6212 17.4998 29.0944 17.0629 28.452 16.7803C27.8353 16.4719 27.1543 16.3177 26.4091 16.3177C25.6125 16.3177 24.8801 16.4848 24.212 16.8188C23.5439 17.1529 22.9657 17.5769 22.4775 18.0908C21.9892 18.6048 21.5781 19.1444 21.244 19.7097L18.4688 17.821C18.9313 16.7674 19.5737 15.868 20.396 15.1228C21.2183 14.3776 22.1563 13.8123 23.2098 13.4268C24.2634 13.0414 25.3684 12.8486 26.5248 12.8486C27.4755 12.8486 28.4135 13.0028 29.3386 13.3112C30.2894 13.5938 31.1374 14.0435 31.8826 14.6603C32.6278 15.277 33.2188 16.0608 33.6557 17.0115C34.1182 17.9366 34.3495 19.0545 34.3495 20.365C34.3495 21.2644 34.2338 22.0481 34.0026 22.7163C33.797 23.3587 33.4886 23.9369 33.0775 24.4508C32.6663 24.9648 32.1909 25.4273 31.6513 25.8385C31.1117 26.2239 30.5206 26.5965 29.8782 26.9563C29.2358 27.3417 28.6062 27.74 27.9895 28.1512C27.3728 28.5366 26.8588 29.0249 26.4477 29.6159C26.0365 30.2069 25.8309 31.0164 25.8309 32.0443H22.2847ZM22.4004 40.5628V35.7061H25.908V40.5628H22.4004Z" fill="white"/>
</svg>
