<svg width="46" height="45" viewBox="0 0 46 45" fill="none" xmlns="http://www.w3.org/2000/svg">
<path d="M45 23C45 35.1503 35.1503 45 23 45C10.8497 45 1 35.1503 1 23C1 10.8497 10.8497 1 23 1C35.1503 1 45 10.8497 45 23Z" fill="white"/>
<path fill-rule="evenodd" clip-rule="evenodd" d="M46 22.5C46 34.9264 35.7025 45 23 45C10.2975 45 0 34.9264 0 22.5C0 10.0736 10.2975 0 23 0C35.7025 0 46 10.0736 46 22.5ZM23 44.1346C35.214 44.1346 45.1154 34.4485 45.1154 22.5C45.1154 10.5515 35.214 0.865385 23 0.865385C10.786 0.865385 0.884615 10.5515 0.884615 22.5C0.884615 34.4485 10.786 44.1346 23 44.1346Z" fill="#0089B1"/>
<path fill-rule="evenodd" clip-rule="evenodd" d="M8.1875 11.0307C8.1875 11.0477 8.13125 11.0615 8.0625 11.0615C7.99375 11.0615 7.9375 11.0753 7.9375 11.0922C7.9375 11.1092 7.90938 11.123 7.875 11.123C7.84062 11.123 7.8125 11.1368 7.8125 11.1537C7.8125 11.1707 7.78438 11.1845 7.75 11.1845C7.71562 11.1845 7.6875 11.1983 7.6875 11.2152C7.6875 11.2322 7.66609 11.246 7.63994 11.246C7.57806 11.246 7.25 11.5688 7.25 11.6297C7.25 11.6554 7.23594 11.6765 7.21875 11.6765C7.20156 11.6765 7.1875 11.7041 7.1875 11.738C7.1875 11.7718 7.17344 11.7995 7.15625 11.7995C7.13906 11.7995 7.125 11.8271 7.125 11.861C7.125 11.8948 7.11094 11.9225 7.09375 11.9225C7.07656 11.9225 7.0625 11.964 7.0625 12.0147C7.0625 12.0654 7.04844 12.107 7.03125 12.107C7.0105 12.107 7 15.0178 7 20.7781C7 26.5383 7.0105 29.4492 7.03125 29.4492C7.04844 29.4492 7.0625 29.4907 7.0625 29.5414C7.0625 29.5922 7.07656 29.6337 7.09375 29.6337C7.11094 29.6337 7.125 29.6614 7.125 29.6952C7.125 29.729 7.13906 29.7567 7.15625 29.7567C7.17344 29.7567 7.1875 29.7844 7.1875 29.8182C7.1875 29.852 7.20156 29.8797 7.21875 29.8797C7.23594 29.8797 7.25 29.9007 7.25 29.9265C7.25 29.9874 7.57806 30.3102 7.63994 30.3102C7.66609 30.3102 7.6875 30.324 7.6875 30.3409C7.6875 30.3578 7.71562 30.3717 7.75 30.3717C7.78438 30.3717 7.8125 30.3855 7.8125 30.4024C7.8125 30.4193 7.84062 30.4332 7.875 30.4332C7.90938 30.4332 7.9375 30.447 7.9375 30.4639C7.9375 30.4808 7.97969 30.4947 8.03125 30.4947C8.08281 30.4947 8.125 30.5085 8.125 30.5254C8.125 30.5454 8.60416 30.5561 9.5 30.5561C10.7392 30.5561 10.875 30.561 10.875 30.6053C10.875 30.6323 10.8328 30.6933 10.7812 30.7406C10.7297 30.788 10.6875 30.8459 10.6875 30.8692C10.6875 30.8925 10.6594 30.9315 10.625 30.9559C10.5906 30.9803 10.5625 31.0218 10.5625 31.0481C10.5625 31.0745 10.5344 31.116 10.5 31.1404C10.4656 31.1648 10.4375 31.2063 10.4375 31.2326C10.4375 31.259 10.4094 31.3005 10.375 31.3249C10.3406 31.3492 10.3125 31.3883 10.3125 31.4116C10.3125 31.4349 10.2703 31.4927 10.2188 31.5401C10.1672 31.5875 10.125 31.6484 10.125 31.6754C10.125 31.7025 10.1109 31.7246 10.0938 31.7246C10.0766 31.7246 10.0625 31.7523 10.0625 31.7861C10.0625 31.8199 10.0484 31.8476 10.0312 31.8476C10.0141 31.8476 10 31.8753 10 31.9091C10 31.9429 9.98594 31.9706 9.96875 31.9706C9.95156 31.9706 9.9375 32.0259 9.9375 32.0936C9.9375 32.1612 9.92344 32.2166 9.90625 32.2166C9.88803 32.2166 9.875 32.3191 9.875 32.4626C9.875 32.6061 9.88803 32.7086 9.90625 32.7086C9.92344 32.7086 9.9375 32.7639 9.9375 32.8316C9.9375 32.8992 9.95156 32.9545 9.96875 32.9545C9.98594 32.9545 10 32.9961 10 33.0468C10 33.0975 10.0141 33.139 10.0312 33.139C10.0484 33.139 10.0625 33.1611 10.0625 33.1882C10.0625 33.2152 10.1047 33.2761 10.1563 33.3235C10.2078 33.3709 10.25 33.4255 10.25 33.4449C10.25 33.4934 10.3941 33.631 10.4448 33.631C10.4676 33.631 10.5065 33.6587 10.5312 33.6925C10.556 33.7263 10.6013 33.754 10.6319 33.754C10.6625 33.754 10.6875 33.7678 10.6875 33.7848C10.6875 33.8017 10.7156 33.8155 10.75 33.8155C10.7844 33.8155 10.8125 33.8293 10.8125 33.8463C10.8125 33.8632 10.8406 33.877 10.875 33.877C10.9094 33.877 10.9375 33.8908 10.9375 33.9078C10.9375 33.9247 11.0078 33.9385 11.0938 33.9385C11.1797 33.9385 11.25 33.9523 11.25 33.9692C11.25 33.9862 11.3203 34 11.4063 34C11.4922 34 11.5625 33.9862 11.5625 33.9692C11.5625 33.9523 11.6328 33.9385 11.7188 33.9385C11.8047 33.9385 11.875 33.9247 11.875 33.9078C11.875 33.8908 11.9031 33.877 11.9375 33.877C11.9719 33.877 12 33.8632 12 33.8463C12 33.8293 12.0281 33.8155 12.0625 33.8155C12.0969 33.8155 12.125 33.8017 12.125 33.7848C12.125 33.7678 12.15 33.754 12.1806 33.754C12.2112 33.754 12.2565 33.7263 12.2812 33.6925C12.306 33.6587 12.3449 33.631 12.3677 33.631C12.4184 33.631 12.5625 33.4934 12.5625 33.4449C12.5625 33.4255 12.6047 33.3709 12.6562 33.3235C12.7078 33.2761 12.75 33.2183 12.75 33.195C12.75 33.1717 12.7781 33.1327 12.8125 33.1083C12.8469 33.0839 12.875 33.0424 12.875 33.016C12.875 32.9897 12.9031 32.9482 12.9375 32.9238C12.9719 32.8994 13 32.8604 13 32.8371C13 32.8138 13.0422 32.7559 13.0938 32.7086C13.1453 32.6612 13.1875 32.6033 13.1875 32.58C13.1875 32.5567 13.2156 32.5177 13.25 32.4933C13.2844 32.4689 13.3125 32.4274 13.3125 32.4011C13.3125 32.3747 13.3406 32.3332 13.375 32.3088C13.4094 32.2844 13.4375 32.2429 13.4375 32.2166C13.4375 32.1902 13.4656 32.1487 13.5 32.1243C13.5344 32.0999 13.5625 32.0609 13.5625 32.0376C13.5625 32.0143 13.6047 31.9565 13.6562 31.9091C13.7078 31.8617 13.75 31.8038 13.75 31.7806C13.75 31.7573 13.7781 31.7182 13.8125 31.6938C13.8469 31.6695 13.875 31.628 13.875 31.6016C13.875 31.5753 13.9031 31.5337 13.9375 31.5094C13.9719 31.485 14 31.4435 14 31.4171C14 31.3908 14.0281 31.3492 14.0625 31.3249C14.0969 31.3005 14.125 31.259 14.125 31.2326C14.125 31.2063 14.1531 31.1648 14.1875 31.1404C14.2219 31.116 14.25 31.077 14.25 31.0537C14.25 31.0304 14.2922 30.9725 14.3438 30.9251C14.3953 30.8777 14.4375 30.8199 14.4375 30.7966C14.4375 30.7733 14.4656 30.7343 14.5 30.7099C14.5344 30.6855 14.5625 30.641 14.5625 30.6109C14.5625 30.5585 14.9323 30.5561 23 30.5561C31.0677 30.5561 31.4375 30.5585 31.4375 30.6109C31.4375 30.641 31.4656 30.6855 31.5 30.7099C31.5344 30.7343 31.5625 30.7733 31.5625 30.7966C31.5625 30.8199 31.6047 30.8777 31.6562 30.9251C31.7078 30.9725 31.75 31.0304 31.75 31.0537C31.75 31.077 31.7781 31.116 31.8125 31.1404C31.8469 31.1648 31.875 31.2063 31.875 31.2326C31.875 31.259 31.9031 31.3005 31.9375 31.3249C31.9719 31.3492 32 31.3908 32 31.4171C32 31.4435 32.0281 31.485 32.0625 31.5094C32.0969 31.5337 32.125 31.5753 32.125 31.6016C32.125 31.628 32.1531 31.6695 32.1875 31.6938C32.2219 31.7182 32.25 31.7573 32.25 31.7806C32.25 31.8038 32.2922 31.8617 32.3438 31.9091C32.3953 31.9565 32.4375 32.0143 32.4375 32.0376C32.4375 32.0609 32.4656 32.0999 32.5 32.1243C32.5344 32.1487 32.5625 32.1902 32.5625 32.2166C32.5625 32.2429 32.5906 32.2844 32.625 32.3088C32.6594 32.3332 32.6875 32.3747 32.6875 32.4011C32.6875 32.4274 32.7156 32.4689 32.75 32.4933C32.7844 32.5177 32.8125 32.5567 32.8125 32.58C32.8125 32.6033 32.8547 32.6612 32.9062 32.7086C32.9578 32.7559 33 32.8138 33 32.8371C33 32.8604 33.0281 32.8994 33.0625 32.9238C33.0969 32.9482 33.125 32.9897 33.125 33.016C33.125 33.0424 33.1531 33.0839 33.1875 33.1083C33.2219 33.1327 33.25 33.1717 33.25 33.195C33.25 33.2183 33.2922 33.2761 33.3438 33.3235C33.3953 33.3709 33.4375 33.4255 33.4375 33.4449C33.4375 33.4934 33.5816 33.631 33.6323 33.631C33.6551 33.631 33.694 33.6587 33.7188 33.6925C33.7435 33.7263 33.7888 33.754 33.8194 33.754C33.85 33.754 33.875 33.7678 33.875 33.7848C33.875 33.8017 33.9031 33.8155 33.9375 33.8155C33.9719 33.8155 34 33.8293 34 33.8463C34 33.8632 34.0281 33.877 34.0625 33.877C34.0969 33.877 34.125 33.8908 34.125 33.9078C34.125 33.9247 34.1953 33.9385 34.2812 33.9385C34.3672 33.9385 34.4375 33.9523 34.4375 33.9692C34.4375 33.9862 34.4937 34 34.5625 34C34.6313 34 34.6875 33.9862 34.6875 33.9692C34.6875 33.9522 34.7708 33.9385 34.875 33.9385C34.9792 33.9385 35.0625 33.9248 35.0625 33.9078C35.0625 33.8908 35.0906 33.877 35.125 33.877C35.1594 33.877 35.1875 33.8632 35.1875 33.8463C35.1875 33.8293 35.2156 33.8155 35.25 33.8155C35.2844 33.8155 35.3125 33.8017 35.3125 33.7848C35.3125 33.7678 35.3375 33.754 35.3681 33.754C35.3987 33.754 35.444 33.7263 35.4688 33.6925C35.4935 33.6587 35.5324 33.631 35.5552 33.631C35.6088 33.631 35.75 33.4921 35.75 33.4393C35.75 33.4169 35.7781 33.3787 35.8125 33.3543C35.8469 33.3299 35.875 33.2884 35.875 33.262C35.875 33.2357 35.9031 33.1942 35.9375 33.1698C35.9742 33.1437 36 33.0902 36 33.04C36 32.993 36.0141 32.9545 36.0312 32.9545C36.0484 32.9545 36.0625 32.8992 36.0625 32.8316C36.0625 32.7639 36.0766 32.7086 36.0938 32.7086C36.1116 32.7086 36.125 32.6163 36.125 32.4933C36.125 32.3703 36.1116 32.2781 36.0938 32.2781C36.0766 32.2781 36.0625 32.2089 36.0625 32.1243C36.0625 32.0398 36.0484 31.9706 36.0312 31.9706C36.0141 31.9706 36 31.9429 36 31.9091C36 31.8753 35.9859 31.8476 35.9688 31.8476C35.9516 31.8476 35.9375 31.8199 35.9375 31.7861C35.9375 31.7523 35.9234 31.7246 35.9062 31.7246C35.8891 31.7246 35.875 31.7025 35.875 31.6754C35.875 31.6484 35.8328 31.5875 35.7812 31.5401C35.7297 31.4927 35.6875 31.4349 35.6875 31.4116C35.6875 31.3883 35.6594 31.3492 35.625 31.3249C35.5906 31.3005 35.5625 31.259 35.5625 31.2326C35.5625 31.2063 35.5344 31.1648 35.5 31.1404C35.4656 31.116 35.4375 31.0745 35.4375 31.0481C35.4375 31.0218 35.4094 30.9803 35.375 30.9559C35.3406 30.9315 35.3125 30.8925 35.3125 30.8692C35.3125 30.8459 35.2703 30.788 35.2188 30.7406C35.1672 30.6933 35.125 30.6323 35.125 30.6053C35.125 30.561 35.2608 30.5561 36.5 30.5561C37.3958 30.5561 37.875 30.5454 37.875 30.5254C37.875 30.5085 37.9172 30.4947 37.9687 30.4947C38.0203 30.4947 38.0625 30.4808 38.0625 30.4639C38.0625 30.447 38.0906 30.4332 38.125 30.4332C38.1594 30.4332 38.1875 30.4193 38.1875 30.4024C38.1875 30.3855 38.2156 30.3717 38.25 30.3717C38.2844 30.3717 38.3125 30.3578 38.3125 30.3409C38.3125 30.324 38.3339 30.3102 38.3601 30.3102C38.4219 30.3102 38.75 29.9874 38.75 29.9265C38.75 29.9007 38.7641 29.8797 38.7812 29.8797C38.7984 29.8797 38.8125 29.852 38.8125 29.8182C38.8125 29.7844 38.8266 29.7567 38.8438 29.7567C38.8609 29.7567 38.875 29.729 38.875 29.6952C38.875 29.6614 38.8891 29.6337 38.9062 29.6337C38.9234 29.6337 38.9375 29.5922 38.9375 29.5414C38.9375 29.4907 38.9516 29.4492 38.9688 29.4492C38.9895 29.4492 39 26.5383 39 20.7781C39 15.0178 38.9895 12.107 38.9688 12.107C38.9516 12.107 38.9375 12.0654 38.9375 12.0147C38.9375 11.964 38.9234 11.9225 38.9062 11.9225C38.8891 11.9225 38.875 11.8948 38.875 11.861C38.875 11.8271 38.8609 11.7995 38.8438 11.7995C38.8266 11.7995 38.8125 11.7718 38.8125 11.738C38.8125 11.7041 38.7984 11.6765 38.7812 11.6765C38.7641 11.6765 38.75 11.6554 38.75 11.6297C38.75 11.5688 38.4219 11.246 38.3601 11.246C38.3339 11.246 38.3125 11.2322 38.3125 11.2152C38.3125 11.1983 38.2844 11.1845 38.25 11.1845C38.2156 11.1845 38.1875 11.1707 38.1875 11.1537C38.1875 11.1368 38.1594 11.123 38.125 11.123C38.0906 11.123 38.0625 11.1092 38.0625 11.0922C38.0625 11.0753 38.0062 11.0615 37.9375 11.0615C37.8687 11.0615 37.8125 11.0477 37.8125 11.0307C37.8125 11.0103 32.8542 11 23 11C13.1458 11 8.1875 11.0103 8.1875 11.0307ZM37.75 11.8917C37.75 11.9086 37.7716 11.9225 37.7979 11.9225C37.8601 11.9225 38.0625 12.1216 38.0625 12.1828C38.0625 12.2087 38.0766 12.2299 38.0938 12.2299C38.1145 12.2299 38.125 15.0998 38.125 20.7781C38.125 26.4563 38.1145 29.3262 38.0938 29.3262C38.0766 29.3262 38.0625 29.3474 38.0625 29.3733C38.0625 29.4346 37.8601 29.6337 37.7979 29.6337C37.7716 29.6337 37.75 29.6475 37.75 29.6644C37.75 29.6849 32.8125 29.6952 23 29.6952C13.1875 29.6952 8.25 29.6849 8.25 29.6644C8.25 29.6475 8.22844 29.6337 8.20209 29.6337C8.13988 29.6337 7.9375 29.4346 7.9375 29.3733C7.9375 29.3474 7.92344 29.3262 7.90625 29.3262C7.8855 29.3262 7.875 26.4563 7.875 20.7781C7.875 15.0998 7.8855 12.2299 7.90625 12.2299C7.92344 12.2299 7.9375 12.2087 7.9375 12.1828C7.9375 12.1216 8.13988 11.9225 8.20209 11.9225C8.22844 11.9225 8.25 11.9086 8.25 11.8917C8.25 11.8713 13.1875 11.861 23 11.861C32.8125 11.861 37.75 11.8713 37.75 11.8917ZM9.3125 12.9987C9.3125 13.0156 9.29078 13.0294 9.26422 13.0294C9.20169 13.0294 9.0625 13.1664 9.0625 13.2279C9.0625 13.254 9.04844 13.2754 9.03125 13.2754C9.0105 13.2754 9 15.8022 9 20.7942V28.3131L9.13981 28.4507L9.27959 28.5882H23H36.7204L36.8602 28.4507L37 28.3131V20.7942C37 15.8022 36.9895 13.2754 36.9688 13.2754C36.9516 13.2754 36.9375 13.254 36.9375 13.2279C36.9375 13.1664 36.7983 13.0294 36.7358 13.0294C36.7092 13.0294 36.6875 13.0156 36.6875 12.9987C36.6875 12.9782 32.1042 12.9679 23 12.9679C13.8958 12.9679 9.3125 12.9782 9.3125 12.9987ZM36.125 20.7781V27.7273H23H9.875V20.7781V13.8289H23H36.125V20.7781ZM17.0391 17.8121C16.9457 17.9082 16.9375 17.9329 16.9375 18.1175C16.9375 18.2308 16.9511 18.3182 16.9688 18.3182C16.9859 18.3182 17 18.3459 17 18.3797C17 18.4207 17.0208 18.4412 17.0625 18.4412C17.0969 18.4412 17.125 18.455 17.125 18.4719C17.125 18.4888 17.1531 18.5027 17.1875 18.5027C17.2219 18.5027 17.25 18.5165 17.25 18.5334C17.25 18.5533 17.5938 18.5642 18.2188 18.5642H19.1875V21.1019V23.6398L19.2958 23.7463C19.3956 23.8445 19.4191 23.8529 19.5938 23.8529C19.7684 23.8529 19.7919 23.8445 19.8917 23.7463C19.9512 23.6877 20 23.6185 20 23.5926C20 23.5667 20.0141 23.5455 20.0312 23.5455C20.0518 23.5455 20.0625 22.6947 20.0625 21.0548V18.5642H21C21.6042 18.5642 21.9375 18.5532 21.9375 18.5334C21.9375 18.5165 21.9733 18.5027 22.017 18.5027C22.1048 18.5027 22.25 18.3789 22.25 18.3042C22.25 18.2781 22.2641 18.2567 22.2812 18.2567C22.2984 18.2567 22.3125 18.1905 22.3125 18.1097C22.3125 17.9981 22.2975 17.9521 22.25 17.9184C22.2156 17.8941 22.1875 17.8495 22.1875 17.8194C22.1875 17.7852 22.1641 17.7647 22.125 17.7647C22.0906 17.7647 22.0625 17.7509 22.0625 17.734C22.0625 17.7137 21.2228 17.7039 19.6016 17.7053L17.1406 17.7074L17.0391 17.8121ZM23.9375 17.734C23.9375 17.7509 23.9094 17.7647 23.875 17.7647C23.8359 17.7647 23.8125 17.7852 23.8125 17.8194C23.8125 17.8495 23.7844 17.8941 23.75 17.9184C23.7025 17.9521 23.6875 17.9981 23.6875 18.1097C23.6875 18.1905 23.7016 18.2567 23.7188 18.2567C23.7359 18.2567 23.75 18.2844 23.75 18.3182C23.75 18.352 23.7641 18.3797 23.7812 18.3797C23.7984 18.3797 23.8125 18.4212 23.8125 18.4719C23.8125 18.5227 23.8266 18.5642 23.8438 18.5642C23.8609 18.5642 23.875 18.5918 23.875 18.6257C23.875 18.6595 23.8891 18.6872 23.9063 18.6872C23.9234 18.6872 23.9375 18.7287 23.9375 18.7794C23.9375 18.8301 23.9516 18.8717 23.9688 18.8717C23.9859 18.8717 24 18.8993 24 18.9332C24 18.967 24.0141 18.9947 24.0312 18.9947C24.0484 18.9947 24.0625 19.0223 24.0625 19.0561C24.0625 19.09 24.0766 19.1176 24.0938 19.1176C24.1109 19.1176 24.125 19.1592 24.125 19.2099C24.125 19.2606 24.1391 19.3021 24.1562 19.3021C24.1734 19.3021 24.1875 19.3298 24.1875 19.3636C24.1875 19.3975 24.2016 19.4251 24.2188 19.4251C24.2359 19.4251 24.25 19.4666 24.25 19.5174C24.25 19.5681 24.2641 19.6096 24.2812 19.6096C24.2984 19.6096 24.3125 19.6373 24.3125 19.6711C24.3125 19.7049 24.3266 19.7326 24.3438 19.7326C24.3609 19.7326 24.375 19.7603 24.375 19.7941C24.375 19.8279 24.3891 19.8556 24.4062 19.8556C24.4234 19.8556 24.4375 19.8971 24.4375 19.9479C24.4375 19.9986 24.4516 20.0401 24.4688 20.0401C24.4859 20.0401 24.5 20.0678 24.5 20.1016C24.5 20.1354 24.5141 20.1631 24.5312 20.1631C24.5484 20.1631 24.5625 20.2046 24.5625 20.2553C24.5625 20.3061 24.5766 20.3476 24.5938 20.3476C24.6109 20.3476 24.625 20.3753 24.625 20.4091C24.625 20.4429 24.6391 20.4706 24.6562 20.4706C24.6734 20.4706 24.6875 20.4983 24.6875 20.5321C24.6875 20.5659 24.7016 20.5936 24.7188 20.5936C24.7359 20.5936 24.75 20.6351 24.75 20.6858C24.75 20.7366 24.7641 20.7781 24.7812 20.7781C24.7984 20.7781 24.8125 20.8057 24.8125 20.8396C24.8125 20.8734 24.8266 20.9011 24.8438 20.9011C24.8609 20.9011 24.875 20.9426 24.875 20.9933C24.875 21.0441 24.8891 21.0856 24.9062 21.0856C24.9234 21.0856 24.9375 21.1132 24.9375 21.1471C24.9375 21.1809 24.9516 21.2086 24.9688 21.2086C24.9859 21.2086 25 21.2362 25 21.2701C25 21.3039 25.0141 21.3315 25.0312 21.3315C25.0484 21.3315 25.0625 21.3731 25.0625 21.4238C25.0625 21.4745 25.0766 21.516 25.0938 21.516C25.1109 21.516 25.125 21.5437 25.125 21.5775C25.125 21.6114 25.1391 21.639 25.1562 21.639C25.1734 21.639 25.1875 21.6805 25.1875 21.7313C25.1875 21.782 25.2016 21.8235 25.2188 21.8235C25.2359 21.8235 25.25 21.8512 25.25 21.885C25.25 21.9188 25.2641 21.9465 25.2812 21.9465C25.2984 21.9465 25.3125 21.9742 25.3125 22.008C25.3125 22.0418 25.3266 22.0695 25.3438 22.0695C25.3609 22.0695 25.375 22.111 25.375 22.1618C25.375 22.2125 25.3891 22.254 25.4062 22.254C25.4234 22.254 25.4375 22.2817 25.4375 22.3155C25.4375 22.3493 25.4516 22.377 25.4688 22.377C25.4859 22.377 25.5 22.4047 25.5 22.4385C25.5 22.4723 25.5141 22.5 25.5312 22.5C25.5484 22.5 25.5625 22.5415 25.5625 22.5922C25.5625 22.643 25.5766 22.6845 25.5938 22.6845C25.6109 22.6845 25.625 22.7122 25.625 22.746C25.625 22.7798 25.6391 22.8075 25.6562 22.8075C25.6734 22.8075 25.6875 22.849 25.6875 22.8997C25.6875 22.9505 25.7016 22.992 25.7188 22.992C25.7359 22.992 25.75 23.0197 25.75 23.0535C25.75 23.0873 25.7641 23.115 25.7812 23.115C25.7984 23.115 25.8125 23.1426 25.8125 23.1765C25.8125 23.2103 25.8266 23.238 25.8438 23.238C25.8609 23.238 25.875 23.2795 25.875 23.3302C25.875 23.3809 25.8891 23.4225 25.9062 23.4225C25.9234 23.4225 25.9375 23.4501 25.9375 23.484C25.9375 23.5178 25.9516 23.5455 25.9688 23.5455C25.9859 23.5455 26 23.5667 26 23.5926C26 23.6185 26.0487 23.6877 26.1083 23.7463C26.2081 23.8445 26.2316 23.8529 26.4062 23.8529C26.5809 23.8529 26.6044 23.8445 26.7042 23.7463C26.7708 23.6808 26.8125 23.6097 26.8125 23.5618C26.8125 23.519 26.8266 23.484 26.8438 23.484C26.8609 23.484 26.875 23.4563 26.875 23.4225C26.875 23.3886 26.8891 23.361 26.9062 23.361C26.9234 23.361 26.9375 23.3333 26.9375 23.2995C26.9375 23.2656 26.9516 23.238 26.9688 23.238C26.9859 23.238 27 23.1965 27 23.1457C27 23.095 27.0141 23.0535 27.0312 23.0535C27.0484 23.0535 27.0625 23.0258 27.0625 22.992C27.0625 22.9582 27.0766 22.9305 27.0938 22.9305C27.1109 22.9305 27.125 22.889 27.125 22.8382C27.125 22.7875 27.1391 22.746 27.1563 22.746C27.1734 22.746 27.1875 22.7183 27.1875 22.6845C27.1875 22.6507 27.2016 22.623 27.2188 22.623C27.2359 22.623 27.25 22.5953 27.25 22.5615C27.25 22.5277 27.2641 22.5 27.2812 22.5C27.2984 22.5 27.3125 22.4585 27.3125 22.4078C27.3125 22.357 27.3266 22.3155 27.3438 22.3155C27.3609 22.3155 27.375 22.2878 27.375 22.254C27.375 22.2202 27.3891 22.1925 27.4062 22.1925C27.4234 22.1925 27.4375 22.151 27.4375 22.1003C27.4375 22.0495 27.4516 22.008 27.4688 22.008C27.4859 22.008 27.5 21.9803 27.5 21.9465C27.5 21.9127 27.5141 21.885 27.5313 21.885C27.5484 21.885 27.5625 21.8574 27.5625 21.8235C27.5625 21.7897 27.5766 21.762 27.5938 21.762C27.6109 21.762 27.625 21.7205 27.625 21.6698C27.625 21.6191 27.6391 21.5775 27.6562 21.5775C27.6734 21.5775 27.6875 21.5499 27.6875 21.516C27.6875 21.4822 27.7016 21.4545 27.7188 21.4545C27.7359 21.4545 27.75 21.413 27.75 21.3623C27.75 21.3116 27.7641 21.2701 27.7812 21.2701C27.7984 21.2701 27.8125 21.2424 27.8125 21.2086C27.8125 21.1747 27.8266 21.1471 27.8438 21.1471C27.8609 21.1471 27.875 21.1194 27.875 21.0856C27.875 21.0517 27.8891 21.0241 27.9063 21.0241C27.9234 21.0241 27.9375 20.9826 27.9375 20.9318C27.9375 20.8811 27.9516 20.8396 27.9688 20.8396C27.9859 20.8396 28 20.8119 28 20.7781C28 20.7443 28.0141 20.7166 28.0312 20.7166C28.0484 20.7166 28.0625 20.6751 28.0625 20.6243C28.0625 20.5736 28.0766 20.5321 28.0938 20.5321C28.1109 20.5321 28.125 20.5044 28.125 20.4706C28.125 20.4368 28.1391 20.4091 28.1562 20.4091C28.1734 20.4091 28.1875 20.3814 28.1875 20.3476C28.1875 20.3138 28.2016 20.2861 28.2188 20.2861C28.2359 20.2861 28.25 20.2446 28.25 20.1939C28.25 20.1431 28.2641 20.1016 28.2812 20.1016C28.2984 20.1016 28.3125 20.0739 28.3125 20.0401C28.3125 20.0063 28.3266 19.9786 28.3438 19.9786C28.3609 19.9786 28.375 19.9371 28.375 19.8864C28.375 19.8356 28.3891 19.7941 28.4062 19.7941C28.4234 19.7941 28.4375 19.7664 28.4375 19.7326C28.4375 19.6988 28.4516 19.6711 28.4688 19.6711C28.4859 19.6711 28.5 19.6434 28.5 19.6096C28.5 19.5758 28.5141 19.5481 28.5312 19.5481C28.5484 19.5481 28.5625 19.5066 28.5625 19.4559C28.5625 19.4051 28.5766 19.3636 28.5938 19.3636C28.6109 19.3636 28.625 19.336 28.625 19.3021C28.625 19.2683 28.6391 19.2406 28.6562 19.2406C28.6734 19.2406 28.6875 19.1991 28.6875 19.1484C28.6875 19.0977 28.7016 19.0561 28.7188 19.0561C28.7359 19.0561 28.75 19.0285 28.75 18.9947C28.75 18.9608 28.7641 18.9332 28.7812 18.9332C28.7984 18.9332 28.8125 18.9055 28.8125 18.8717C28.8125 18.8378 28.8266 18.8102 28.8438 18.8102C28.8609 18.8102 28.875 18.7686 28.875 18.7179C28.875 18.6672 28.8891 18.6257 28.9062 18.6257C28.9234 18.6257 28.9375 18.598 28.9375 18.5642C28.9375 18.5303 28.9516 18.5027 28.9688 18.5027C28.9859 18.5027 29 18.4612 29 18.4104C29 18.3597 29.0141 18.3182 29.0312 18.3182C29.0484 18.3182 29.0625 18.2778 29.0625 18.2285C29.0625 18.1792 29.0801 18.1307 29.1016 18.1209C29.1328 18.1065 29.1328 18.0993 29.1016 18.085C29.0801 18.0751 29.0625 18.0332 29.0625 17.9917C29.0625 17.9468 29.0188 17.8734 28.9542 17.8098C28.8544 17.7116 28.8309 17.7032 28.6562 17.7032C28.4816 17.7032 28.4581 17.7116 28.3583 17.8098C28.2987 17.8684 28.25 17.9376 28.25 17.9636C28.25 17.9895 28.2359 18.0107 28.2188 18.0107C28.2016 18.0107 28.1875 18.0522 28.1875 18.1029C28.1875 18.1537 28.1734 18.1952 28.1562 18.1952C28.1391 18.1952 28.125 18.2229 28.125 18.2567C28.125 18.2905 28.1109 18.3182 28.0938 18.3182C28.0766 18.3182 28.0625 18.3459 28.0625 18.3797C28.0625 18.4135 28.0484 18.4412 28.0312 18.4412C28.0141 18.4412 28 18.4827 28 18.5334C28 18.5842 27.9859 18.6257 27.9688 18.6257C27.9516 18.6257 27.9375 18.6533 27.9375 18.6872C27.9375 18.721 27.9234 18.7487 27.9063 18.7487C27.8891 18.7487 27.875 18.7902 27.875 18.8409C27.875 18.8916 27.8609 18.9332 27.8438 18.9332C27.8266 18.9332 27.8125 18.9608 27.8125 18.9947C27.8125 19.0285 27.7984 19.0561 27.7812 19.0561C27.7641 19.0561 27.75 19.0838 27.75 19.1176C27.75 19.1515 27.7359 19.1791 27.7188 19.1791C27.7016 19.1791 27.6875 19.2207 27.6875 19.2714C27.6875 19.3221 27.6734 19.3636 27.6562 19.3636C27.6391 19.3636 27.625 19.3913 27.625 19.4251C27.625 19.459 27.6109 19.4866 27.5938 19.4866C27.5766 19.4866 27.5625 19.5281 27.5625 19.5789C27.5625 19.6296 27.5484 19.6711 27.5313 19.6711C27.5141 19.6711 27.5 19.6988 27.5 19.7326C27.5 19.7664 27.4859 19.7941 27.4688 19.7941C27.4516 19.7941 27.4375 19.8218 27.4375 19.8556C27.4375 19.8894 27.4234 19.9171 27.4062 19.9171C27.3891 19.9171 27.375 19.9586 27.375 20.0094C27.375 20.0601 27.3609 20.1016 27.3438 20.1016C27.3266 20.1016 27.3125 20.1293 27.3125 20.1631C27.3125 20.1969 27.2984 20.2246 27.2812 20.2246C27.2641 20.2246 27.25 20.2661 27.25 20.3168C27.25 20.3676 27.2359 20.4091 27.2188 20.4091C27.2016 20.4091 27.1875 20.4368 27.1875 20.4706C27.1875 20.5044 27.1734 20.5321 27.1563 20.5321C27.1391 20.5321 27.125 20.5598 27.125 20.5936C27.125 20.6274 27.1109 20.6551 27.0938 20.6551C27.0766 20.6551 27.0625 20.6966 27.0625 20.7473C27.0625 20.7981 27.0484 20.8396 27.0312 20.8396C27.0141 20.8396 27 20.8672 27 20.9011C27 20.9349 26.9859 20.9626 26.9688 20.9626C26.9516 20.9626 26.9375 21.0041 26.9375 21.0548C26.9375 21.1055 26.9234 21.1471 26.9062 21.1471C26.8891 21.1471 26.875 21.1747 26.875 21.2086C26.875 21.2424 26.8609 21.2701 26.8438 21.2701C26.8266 21.2701 26.8125 21.2977 26.8125 21.3315C26.8125 21.3654 26.7984 21.393 26.7813 21.393C26.7641 21.393 26.75 21.4346 26.75 21.4853C26.75 21.536 26.7359 21.5775 26.7188 21.5775C26.7016 21.5775 26.6875 21.6052 26.6875 21.639C26.6875 21.6729 26.6734 21.7005 26.6562 21.7005C26.6391 21.7005 26.625 21.742 26.625 21.7928C26.625 21.8435 26.6109 21.885 26.5938 21.885C26.5766 21.885 26.5625 21.9127 26.5625 21.9465C26.5625 21.9803 26.5484 22.008 26.5312 22.008C26.5141 22.008 26.5 22.0357 26.5 22.0695C26.5 22.1033 26.4859 22.131 26.4688 22.131C26.4516 22.131 26.4375 22.1725 26.4375 22.2233C26.4375 22.274 26.4234 22.3155 26.4062 22.3155C26.3891 22.3155 26.375 22.2878 26.375 22.254C26.375 22.2202 26.3609 22.1925 26.3438 22.1925C26.3266 22.1925 26.3125 22.1648 26.3125 22.131C26.3125 22.0972 26.2984 22.0695 26.2812 22.0695C26.2641 22.0695 26.25 22.028 26.25 21.9773C26.25 21.9265 26.2359 21.885 26.2188 21.885C26.2016 21.885 26.1875 21.8574 26.1875 21.8235C26.1875 21.7897 26.1734 21.762 26.1562 21.762C26.1391 21.762 26.125 21.7344 26.125 21.7005C26.125 21.6667 26.1109 21.639 26.0938 21.639C26.0766 21.639 26.0625 21.5975 26.0625 21.5468C26.0625 21.4961 26.0484 21.4545 26.0312 21.4545C26.0141 21.4545 26 21.4269 26 21.393C26 21.3592 25.9859 21.3315 25.9688 21.3315C25.9516 21.3315 25.9375 21.3039 25.9375 21.2701C25.9375 21.2362 25.9234 21.2086 25.9062 21.2086C25.8891 21.2086 25.875 21.167 25.875 21.1163C25.875 21.0656 25.8609 21.0241 25.8438 21.0241C25.8266 21.0241 25.8125 20.9964 25.8125 20.9626C25.8125 20.9287 25.7984 20.9011 25.7812 20.9011C25.7641 20.9011 25.75 20.8596 25.75 20.8088C25.75 20.7581 25.7359 20.7166 25.7188 20.7166C25.7016 20.7166 25.6875 20.6889 25.6875 20.6551C25.6875 20.6213 25.6734 20.5936 25.6562 20.5936C25.6391 20.5936 25.625 20.5659 25.625 20.5321C25.625 20.4983 25.6109 20.4706 25.5938 20.4706C25.5766 20.4706 25.5625 20.4291 25.5625 20.3783C25.5625 20.3276 25.5484 20.2861 25.5312 20.2861C25.5141 20.2861 25.5 20.2584 25.5 20.2246C25.5 20.1908 25.4859 20.1631 25.4688 20.1631C25.4516 20.1631 25.4375 20.1216 25.4375 20.0709C25.4375 20.0201 25.4234 19.9786 25.4062 19.9786C25.3891 19.9786 25.375 19.9509 25.375 19.9171C25.375 19.8833 25.3609 19.8556 25.3438 19.8556C25.3266 19.8556 25.3125 19.8279 25.3125 19.7941C25.3125 19.7603 25.2984 19.7326 25.2812 19.7326C25.2641 19.7326 25.25 19.6911 25.25 19.6404C25.25 19.5896 25.2359 19.5481 25.2188 19.5481C25.2016 19.5481 25.1875 19.5205 25.1875 19.4866C25.1875 19.4528 25.1734 19.4251 25.1562 19.4251C25.1391 19.4251 25.125 19.3836 25.125 19.3329C25.125 19.2822 25.1109 19.2406 25.0938 19.2406C25.0766 19.2406 25.0625 19.213 25.0625 19.1791C25.0625 19.1453 25.0484 19.1176 25.0312 19.1176C25.0141 19.1176 25 19.09 25 19.0561C25 19.0223 24.9859 18.9947 24.9688 18.9947C24.9516 18.9947 24.9375 18.9531 24.9375 18.9024C24.9375 18.8517 24.9234 18.8102 24.9062 18.8102C24.8891 18.8102 24.875 18.7825 24.875 18.7487C24.875 18.7148 24.8609 18.6872 24.8438 18.6872C24.8266 18.6872 24.8125 18.6457 24.8125 18.5949C24.8125 18.5442 24.7984 18.5027 24.7812 18.5027C24.7641 18.5027 24.75 18.475 24.75 18.4412C24.75 18.4074 24.7359 18.3797 24.7188 18.3797C24.7016 18.3797 24.6875 18.352 24.6875 18.3182C24.6875 18.2844 24.6734 18.2567 24.6562 18.2567C24.6391 18.2567 24.625 18.2152 24.625 18.1644C24.625 18.1137 24.6109 18.0722 24.5938 18.0722C24.5766 18.0722 24.5625 18.0445 24.5625 18.0107C24.5625 17.9769 24.5484 17.9492 24.5312 17.9492C24.5141 17.9492 24.5 17.9275 24.5 17.9009C24.5 17.8387 24.4247 17.7647 24.3616 17.7647C24.3346 17.7647 24.3125 17.7509 24.3125 17.734C24.3125 17.7169 24.2292 17.7032 24.125 17.7032C24.0208 17.7032 23.9375 17.7169 23.9375 17.734ZM13.5 30.6109C13.5 30.641 13.4719 30.6855 13.4375 30.7099C13.4031 30.7343 13.375 30.7733 13.375 30.7966C13.375 30.8199 13.3328 30.8777 13.2812 30.9251C13.2297 30.9725 13.1875 31.0304 13.1875 31.0537C13.1875 31.077 13.1594 31.116 13.125 31.1404C13.0906 31.1648 13.0625 31.2063 13.0625 31.2326C13.0625 31.259 13.0344 31.3005 13 31.3249C12.9656 31.3492 12.9375 31.3908 12.9375 31.4171C12.9375 31.4435 12.9094 31.485 12.875 31.5094C12.8406 31.5337 12.8125 31.5728 12.8125 31.5961C12.8125 31.6193 12.7703 31.6772 12.7188 31.7246C12.6672 31.772 12.625 31.8299 12.625 31.8531C12.625 31.8764 12.5969 31.9155 12.5625 31.9398C12.5281 31.9642 12.5 32.0057 12.5 32.0321C12.5 32.0584 12.4719 32.0999 12.4375 32.1243C12.4031 32.1487 12.375 32.1902 12.375 32.2166C12.375 32.2429 12.3469 32.2844 12.3125 32.3088C12.2781 32.3332 12.25 32.3747 12.25 32.4011C12.25 32.4274 12.2219 32.4689 12.1875 32.4933C12.1531 32.5177 12.125 32.5567 12.125 32.58C12.125 32.6033 12.0828 32.6612 12.0312 32.7086C11.9797 32.7559 11.9375 32.8106 11.9375 32.8299C11.9375 32.8817 11.7919 33.016 11.7358 33.016C11.7092 33.016 11.6875 33.0299 11.6875 33.0468C11.6875 33.0637 11.6594 33.0775 11.625 33.0775C11.5906 33.0775 11.5625 33.0914 11.5625 33.1083C11.5625 33.1254 11.4792 33.139 11.375 33.139C11.2708 33.139 11.1875 33.1254 11.1875 33.1083C11.1875 33.0914 11.166 33.0775 11.1398 33.0775C11.0778 33.0775 10.8125 32.8165 10.8125 32.7555C10.8125 32.7297 10.7984 32.7086 10.7812 32.7086C10.7634 32.7086 10.75 32.6163 10.75 32.4933C10.75 32.3703 10.7634 32.2781 10.7812 32.2781C10.7984 32.2781 10.8125 32.2534 10.8125 32.2234C10.8125 32.1933 10.8406 32.1487 10.875 32.1243C10.9094 32.0999 10.9375 32.0584 10.9375 32.0321C10.9375 32.0057 10.9656 31.9642 11 31.9398C11.0344 31.9155 11.0625 31.8739 11.0625 31.8476C11.0625 31.8212 11.0906 31.7797 11.125 31.7553C11.1594 31.731 11.1875 31.6919 11.1875 31.6686C11.1875 31.6454 11.2297 31.5875 11.2812 31.5401C11.3328 31.4927 11.375 31.4349 11.375 31.4116C11.375 31.3883 11.4031 31.3492 11.4375 31.3249C11.4719 31.3005 11.5 31.259 11.5 31.2326C11.5 31.2063 11.5281 31.1648 11.5625 31.1404C11.5969 31.116 11.625 31.0745 11.625 31.0481C11.625 31.0218 11.6531 30.9803 11.6875 30.9559C11.7219 30.9315 11.75 30.8925 11.75 30.8692C11.75 30.8459 11.7922 30.788 11.8438 30.7406C11.8953 30.6933 11.9375 30.6323 11.9375 30.6053C11.9375 30.5616 12.0237 30.5561 12.7188 30.5561C13.4468 30.5561 13.5 30.5599 13.5 30.6109ZM34.0625 30.6053C34.0625 30.6323 34.1047 30.6933 34.1562 30.7406C34.2078 30.788 34.25 30.8459 34.25 30.8692C34.25 30.8925 34.2781 30.9315 34.3125 30.9559C34.3469 30.9803 34.375 31.0218 34.375 31.0481C34.375 31.0745 34.4031 31.116 34.4375 31.1404C34.4719 31.1648 34.5 31.2063 34.5 31.2326C34.5 31.259 34.5281 31.3005 34.5625 31.3249C34.5969 31.3492 34.625 31.3883 34.625 31.4116C34.625 31.4349 34.6672 31.4927 34.7188 31.5401C34.7703 31.5875 34.8125 31.6454 34.8125 31.6686C34.8125 31.6919 34.8406 31.731 34.875 31.7553C34.9094 31.7797 34.9375 31.8212 34.9375 31.8476C34.9375 31.8739 34.9656 31.9155 35 31.9398C35.0344 31.9642 35.0625 32.0057 35.0625 32.0321C35.0625 32.0584 35.0906 32.0999 35.125 32.1243C35.1594 32.1487 35.1875 32.1933 35.1875 32.2234C35.1875 32.2534 35.2016 32.2781 35.2188 32.2781C35.2366 32.2781 35.25 32.3703 35.25 32.4933C35.25 32.6163 35.2366 32.7086 35.2188 32.7086C35.2016 32.7086 35.1875 32.7297 35.1875 32.7555C35.1875 32.7813 35.1246 32.8643 35.0477 32.94C34.9708 33.0156 34.8864 33.0775 34.8602 33.0775C34.834 33.0775 34.8125 33.0914 34.8125 33.1083C34.8125 33.1254 34.7292 33.139 34.625 33.139C34.5208 33.139 34.4375 33.1254 34.4375 33.1083C34.4375 33.0914 34.4094 33.0775 34.375 33.0775C34.3406 33.0775 34.3125 33.0637 34.3125 33.0468C34.3125 33.0299 34.2908 33.016 34.2642 33.016C34.2081 33.016 34.0625 32.8817 34.0625 32.8299C34.0625 32.8106 34.0203 32.7559 33.9688 32.7086C33.9172 32.6612 33.875 32.6033 33.875 32.58C33.875 32.5567 33.8469 32.5177 33.8125 32.4933C33.7781 32.4689 33.75 32.4274 33.75 32.4011C33.75 32.3747 33.7219 32.3332 33.6875 32.3088C33.6531 32.2844 33.625 32.2429 33.625 32.2166C33.625 32.1902 33.5969 32.1487 33.5625 32.1243C33.5281 32.0999 33.5 32.0584 33.5 32.0321C33.5 32.0057 33.4719 31.9642 33.4375 31.9398C33.4031 31.9155 33.375 31.8764 33.375 31.8531C33.375 31.8299 33.3328 31.772 33.2812 31.7246C33.2297 31.6772 33.1875 31.6193 33.1875 31.5961C33.1875 31.5728 33.1594 31.5337 33.125 31.5094C33.0906 31.485 33.0625 31.4435 33.0625 31.4171C33.0625 31.3908 33.0344 31.3492 33 31.3249C32.9656 31.3005 32.9375 31.259 32.9375 31.2326C32.9375 31.2063 32.9094 31.1648 32.875 31.1404C32.8406 31.116 32.8125 31.077 32.8125 31.0537C32.8125 31.0304 32.7703 30.9725 32.7188 30.9251C32.6672 30.8777 32.625 30.8199 32.625 30.7966C32.625 30.7733 32.5969 30.7343 32.5625 30.7099C32.5281 30.6855 32.5 30.641 32.5 30.6109C32.5 30.5599 32.5532 30.5561 33.2812 30.5561C33.9763 30.5561 34.0625 30.5616 34.0625 30.6053Z" fill="#0089B1"/>
</svg>
