<svg width="46" height="45" viewBox="0 0 46 45" fill="none" xmlns="http://www.w3.org/2000/svg">
<path d="M45 23C45 35.1503 35.1503 45 23 45C10.8497 45 1 35.1503 1 23C1 10.8497 10.8497 1 23 1C35.1503 1 45 10.8497 45 23Z" fill="white"/>
<path fill-rule="evenodd" clip-rule="evenodd" d="M46 22.5C46 34.9264 35.7025 45 23 45C10.2975 45 0 34.9264 0 22.5C0 10.0736 10.2975 0 23 0C35.7025 0 46 10.0736 46 22.5ZM23 44.1346C35.214 44.1346 45.1154 34.4485 45.1154 22.5C45.1154 10.5515 35.214 0.865385 23 0.865385C10.786 0.865385 0.884615 10.5515 0.884615 22.5C0.884615 34.4485 10.786 44.1346 23 44.1346Z" fill="#0089B1"/>
<path fill-rule="evenodd" clip-rule="evenodd" d="M22.7734 11.0306C22.7734 11.0499 22.5716 11.0612 22.2285 11.0612C21.8854 11.0612 21.6836 11.0726 21.6836 11.0918C21.6836 11.1102 21.5625 11.1224 21.3809 11.1224C21.1992 11.1224 21.0781 11.1347 21.0781 11.1531C21.0781 11.1709 20.9772 11.1837 20.8359 11.1837C20.6947 11.1837 20.5938 11.1964 20.5938 11.2143C20.5938 11.2318 20.5029 11.2449 20.3818 11.2449C20.2607 11.2449 20.1699 11.258 20.1699 11.2755C20.1699 11.2925 20.0892 11.3061 19.9883 11.3061C19.8874 11.3061 19.8066 11.3197 19.8066 11.3367C19.8066 11.3538 19.7259 11.3673 19.625 11.3673C19.5241 11.3673 19.4434 11.3809 19.4434 11.398C19.4434 11.4148 19.3752 11.4286 19.292 11.4286C19.2087 11.4286 19.1406 11.4423 19.1406 11.4592C19.1406 11.476 19.0861 11.4898 19.0195 11.4898C18.9529 11.4898 18.8984 11.5036 18.8984 11.5204C18.8984 11.5372 18.8303 11.551 18.7471 11.551C18.6638 11.551 18.5957 11.5648 18.5957 11.5816C18.5957 11.5985 18.5412 11.6122 18.4746 11.6122C18.408 11.6122 18.3535 11.626 18.3535 11.6429C18.3535 11.6597 18.299 11.6735 18.2324 11.6735C18.1658 11.6735 18.1113 11.6872 18.1113 11.7041C18.1113 11.7209 18.0568 11.7347 17.9902 11.7347C17.9236 11.7347 17.8691 11.7485 17.8691 11.7653C17.8691 11.7821 17.8146 11.7959 17.748 11.7959C17.6814 11.7959 17.627 11.8097 17.627 11.8265C17.627 11.8434 17.5861 11.8571 17.5361 11.8571C17.4862 11.8571 17.4453 11.8709 17.4453 11.8878C17.4453 11.9046 17.3908 11.9184 17.3242 11.9184C17.2576 11.9184 17.2031 11.9321 17.2031 11.949C17.2031 11.9658 17.1623 11.9796 17.1123 11.9796C17.0624 11.9796 17.0215 11.9934 17.0215 12.0102C17.0215 12.027 16.9806 12.0408 16.9307 12.0408C16.8807 12.0408 16.8398 12.0546 16.8398 12.0714C16.8398 12.0883 16.799 12.102 16.749 12.102C16.6991 12.102 16.6582 12.1158 16.6582 12.1327C16.6582 12.1495 16.6173 12.1633 16.5674 12.1633C16.5174 12.1633 16.4766 12.177 16.4766 12.1939C16.4766 12.2107 16.4357 12.2245 16.3857 12.2245C16.3358 12.2245 16.2949 12.2383 16.2949 12.2551C16.2949 12.2719 16.2541 12.2857 16.2041 12.2857C16.1542 12.2857 16.1133 12.2995 16.1133 12.3163C16.1133 12.3332 16.086 12.3469 16.0527 12.3469C16.0194 12.3469 15.9922 12.3607 15.9922 12.3776C15.9922 12.3944 15.9513 12.4082 15.9014 12.4082C15.8514 12.4082 15.8105 12.4219 15.8105 12.4388C15.8105 12.4556 15.7697 12.4694 15.7197 12.4694C15.6698 12.4694 15.6289 12.4832 15.6289 12.5C15.6289 12.5168 15.6017 12.5306 15.5684 12.5306C15.5351 12.5306 15.5078 12.5444 15.5078 12.5612C15.5078 12.5781 15.4669 12.5918 15.417 12.5918C15.367 12.5918 15.3262 12.6056 15.3262 12.6224C15.3262 12.6393 15.2989 12.6531 15.2656 12.6531C15.2323 12.6531 15.2051 12.6668 15.2051 12.6837C15.2051 12.7005 15.1642 12.7143 15.1143 12.7143C15.0643 12.7143 15.0234 12.7281 15.0234 12.7449C15.0234 12.7617 14.9962 12.7755 14.9629 12.7755C14.9296 12.7755 14.9023 12.7893 14.9023 12.8061C14.9023 12.823 14.8751 12.8367 14.8418 12.8367C14.8085 12.8367 14.7812 12.8505 14.7812 12.8673C14.7812 12.8842 14.7404 12.898 14.6904 12.898C14.6405 12.898 14.5996 12.9117 14.5996 12.9286C14.5996 12.9454 14.5724 12.9592 14.5391 12.9592C14.5058 12.9592 14.4785 12.973 14.4785 12.9898C14.4785 13.0066 14.4513 13.0204 14.418 13.0204C14.3847 13.0204 14.3574 13.0342 14.3574 13.051C14.3574 13.0679 14.3302 13.0816 14.2969 13.0816C14.2636 13.0816 14.2363 13.0954 14.2363 13.1122C14.2363 13.1291 14.2091 13.1429 14.1758 13.1429C14.1425 13.1429 14.1152 13.1566 14.1152 13.1735C14.1152 13.1903 14.088 13.2041 14.0547 13.2041C14.0214 13.2041 13.9941 13.2179 13.9941 13.2347C13.9941 13.2515 13.9669 13.2653 13.9336 13.2653C13.9003 13.2653 13.873 13.2791 13.873 13.2959C13.873 13.3128 13.8458 13.3265 13.8125 13.3265C13.7792 13.3265 13.752 13.3403 13.752 13.3571C13.752 13.374 13.7247 13.3878 13.6914 13.3878C13.6581 13.3878 13.6309 13.4015 13.6309 13.4184C13.6309 13.4352 13.6036 13.449 13.5703 13.449C13.537 13.449 13.5098 13.4628 13.5098 13.4796C13.5098 13.4964 13.4825 13.5102 13.4492 13.5102C13.4159 13.5102 13.3887 13.524 13.3887 13.5408C13.3887 13.5577 13.3614 13.5714 13.3281 13.5714C13.2948 13.5714 13.2676 13.5852 13.2676 13.602C13.2676 13.6189 13.2403 13.6327 13.207 13.6327C13.1737 13.6327 13.1465 13.6464 13.1465 13.6633C13.1465 13.6801 13.1222 13.6939 13.0926 13.6939C13.063 13.6939 13.0191 13.7214 12.9951 13.7551C12.9711 13.7888 12.9272 13.8163 12.8976 13.8163C12.868 13.8163 12.8438 13.8301 12.8438 13.8469C12.8438 13.8638 12.8165 13.8776 12.7832 13.8776C12.7499 13.8776 12.7227 13.8913 12.7227 13.9082C12.7227 13.925 12.6954 13.9388 12.6621 13.9388C12.6288 13.9388 12.6016 13.9526 12.6016 13.9694C12.6016 13.9862 12.5773 14 12.5477 14C12.5181 14 12.4742 14.0276 12.4502 14.0612C12.4262 14.0949 12.3853 14.1224 12.3594 14.1224C12.3334 14.1224 12.2926 14.15 12.2686 14.1837C12.2445 14.2173 12.2007 14.2449 12.171 14.2449C12.1414 14.2449 12.1172 14.2587 12.1172 14.2755C12.1172 14.2923 12.0929 14.3061 12.0633 14.3061C12.0337 14.3061 11.9898 14.3337 11.9658 14.3673C11.9418 14.401 11.9009 14.4286 11.875 14.4286C11.8491 14.4286 11.8082 14.4561 11.7842 14.4898C11.7602 14.5235 11.7163 14.551 11.6867 14.551C11.6571 14.551 11.6328 14.5648 11.6328 14.5816C11.6328 14.5985 11.611 14.6122 11.5844 14.6122C11.5578 14.6122 11.4978 14.6536 11.4512 14.7041C11.4045 14.7546 11.3475 14.7959 11.3246 14.7959C11.3017 14.7959 11.2633 14.8235 11.2393 14.8571C11.2153 14.8908 11.1744 14.9184 11.1484 14.9184C11.1225 14.9184 11.0816 14.9459 11.0576 14.9796C11.0336 15.0133 10.9927 15.0408 10.9668 15.0408C10.9409 15.0408 10.9 15.0684 10.876 15.102C10.852 15.1357 10.8139 15.1633 10.7912 15.1633C10.7686 15.1633 10.6978 15.2184 10.6338 15.2857C10.5698 15.3531 10.5014 15.4082 10.4818 15.4082C10.4622 15.4082 10.408 15.4495 10.3613 15.5C10.3147 15.5505 10.2602 15.5918 10.2402 15.5918C10.2203 15.5918 10.1658 15.6332 10.1191 15.6837C10.0725 15.7342 10.0185 15.7755 9.99908 15.7755C9.9797 15.7755 9.89751 15.8444 9.81641 15.9286C9.7353 16.0128 9.65372 16.0816 9.63507 16.0816C9.61639 16.0816 9.52091 16.1643 9.42285 16.2653C9.3248 16.3663 9.2298 16.449 9.21172 16.449C9.19365 16.449 9.01622 16.6143 8.81738 16.8163C8.61855 17.0184 8.44151 17.1837 8.42392 17.1837C8.37799 17.1837 8.12109 17.4499 8.12109 17.4975C8.12109 17.5195 8.09385 17.5574 8.06055 17.5816C8.01202 17.617 8 17.6609 8 17.8027C8 17.9002 8.01359 17.9796 8.03027 17.9796C8.04692 17.9796 8.06055 18.0009 8.06055 18.0269C8.06055 18.0881 8.19538 18.2245 8.25596 18.2245C8.28169 18.2245 8.30273 18.2383 8.30273 18.2551C8.30273 18.2721 8.38347 18.2857 8.48438 18.2857C8.58528 18.2857 8.66602 18.2721 8.66602 18.2551C8.66602 18.2383 8.68733 18.2245 8.71339 18.2245C8.73946 18.2245 8.8271 18.1556 8.9082 18.0714C8.98931 17.9872 9.07056 17.9184 9.08875 17.9184C9.10698 17.9184 9.28456 17.7531 9.4834 17.551C9.68223 17.349 9.85967 17.1837 9.87774 17.1837C9.89581 17.1837 9.99081 17.101 10.0889 17C10.1869 16.899 10.2826 16.8163 10.3015 16.8163C10.3204 16.8163 10.3882 16.7612 10.4521 16.6939C10.5161 16.6265 10.5843 16.5714 10.6035 16.5714C10.6228 16.5714 10.6909 16.5163 10.7549 16.449C10.8189 16.3816 10.8873 16.3265 10.9069 16.3265C10.9265 16.3265 10.9807 16.2852 11.0273 16.2347C11.074 16.1842 11.1285 16.1429 11.1484 16.1429C11.1684 16.1429 11.2229 16.1015 11.2695 16.051C11.3162 16.0005 11.3732 15.9592 11.3961 15.9592C11.419 15.9592 11.4574 15.9316 11.4814 15.898C11.5055 15.8643 11.5463 15.8367 11.5723 15.8367C11.5982 15.8367 11.6391 15.8092 11.6631 15.7755C11.6871 15.7418 11.7255 15.7143 11.7485 15.7143C11.7714 15.7143 11.8283 15.673 11.875 15.6224C11.9217 15.5719 11.9786 15.5306 12.0015 15.5306C12.0245 15.5306 12.0629 15.5031 12.0869 15.4694C12.1109 15.4357 12.1548 15.4082 12.1844 15.4082C12.214 15.4082 12.2383 15.3944 12.2383 15.3776C12.2383 15.3607 12.2625 15.3469 12.2921 15.3469C12.3218 15.3469 12.3656 15.3194 12.3896 15.2857C12.4137 15.252 12.4545 15.2245 12.4805 15.2245C12.5064 15.2245 12.5473 15.1969 12.5713 15.1633C12.5953 15.1296 12.6392 15.102 12.6688 15.102C12.6984 15.102 12.7227 15.0883 12.7227 15.0714C12.7227 15.0546 12.7469 15.0408 12.7765 15.0408C12.8062 15.0408 12.85 15.0133 12.874 14.9796C12.898 14.9459 12.9419 14.9184 12.9715 14.9184C13.0011 14.9184 13.0254 14.9046 13.0254 14.8878C13.0254 14.8709 13.0496 14.8571 13.0792 14.8571C13.1089 14.8571 13.1528 14.8296 13.1768 14.7959C13.2008 14.7622 13.2446 14.7347 13.2743 14.7347C13.3039 14.7347 13.3281 14.7209 13.3281 14.7041C13.3281 14.6872 13.3554 14.6735 13.3887 14.6735C13.422 14.6735 13.4492 14.6597 13.4492 14.6429C13.4492 14.626 13.4765 14.6122 13.5098 14.6122C13.5431 14.6122 13.5703 14.5985 13.5703 14.5816C13.5703 14.5648 13.5946 14.551 13.6242 14.551C13.6538 14.551 13.6977 14.5235 13.7217 14.4898C13.7457 14.4561 13.7896 14.4286 13.8192 14.4286C13.8488 14.4286 13.873 14.4148 13.873 14.398C13.873 14.3811 13.9003 14.3673 13.9336 14.3673C13.9669 14.3673 13.9941 14.3536 13.9941 14.3367C13.9941 14.3199 14.0214 14.3061 14.0547 14.3061C14.088 14.3061 14.1152 14.2923 14.1152 14.2755C14.1152 14.2587 14.1425 14.2449 14.1758 14.2449C14.2091 14.2449 14.2363 14.2311 14.2363 14.2143C14.2363 14.1974 14.2636 14.1837 14.2969 14.1837C14.3302 14.1837 14.3574 14.1699 14.3574 14.1531C14.3574 14.1362 14.3847 14.1224 14.418 14.1224C14.4513 14.1224 14.4785 14.1087 14.4785 14.0918C14.4785 14.075 14.5058 14.0612 14.5391 14.0612C14.5724 14.0612 14.5996 14.0474 14.5996 14.0306C14.5996 14.0138 14.6269 14 14.6602 14C14.6935 14 14.7207 13.9862 14.7207 13.9694C14.7207 13.9526 14.7616 13.9388 14.8115 13.9388C14.8615 13.9388 14.9023 13.925 14.9023 13.9082C14.9023 13.8913 14.9296 13.8776 14.9629 13.8776C14.9962 13.8776 15.0234 13.8638 15.0234 13.8469C15.0234 13.8301 15.0507 13.8163 15.084 13.8163C15.1173 13.8163 15.1445 13.8026 15.1445 13.7857C15.1445 13.7689 15.1854 13.7551 15.2354 13.7551C15.2853 13.7551 15.3262 13.7413 15.3262 13.7245C15.3262 13.7077 15.3534 13.6939 15.3867 13.6939C15.42 13.6939 15.4473 13.6801 15.4473 13.6633C15.4473 13.6464 15.4745 13.6327 15.5078 13.6327C15.5411 13.6327 15.5684 13.6189 15.5684 13.602C15.5684 13.5852 15.6092 13.5714 15.6592 13.5714C15.7091 13.5714 15.75 13.5577 15.75 13.5408C15.75 13.524 15.7772 13.5102 15.8105 13.5102C15.8438 13.5102 15.8711 13.4964 15.8711 13.4796C15.8711 13.4628 15.912 13.449 15.9619 13.449C16.0119 13.449 16.0527 13.4352 16.0527 13.4184C16.0527 13.4015 16.08 13.3878 16.1133 13.3878C16.1466 13.3878 16.1738 13.374 16.1738 13.3571C16.1738 13.3403 16.2147 13.3265 16.2646 13.3265C16.3146 13.3265 16.3555 13.3128 16.3555 13.2959C16.3555 13.2791 16.3963 13.2653 16.4463 13.2653C16.4962 13.2653 16.5371 13.2515 16.5371 13.2347C16.5371 13.2179 16.578 13.2041 16.6279 13.2041C16.6779 13.2041 16.7188 13.1903 16.7188 13.1735C16.7188 13.1566 16.7596 13.1429 16.8096 13.1429C16.8595 13.1429 16.9004 13.1291 16.9004 13.1122C16.9004 13.0954 16.9413 13.0816 16.9912 13.0816C17.0412 13.0816 17.082 13.0679 17.082 13.051C17.082 13.0342 17.1229 13.0204 17.1729 13.0204C17.2228 13.0204 17.2637 13.0066 17.2637 12.9898C17.2637 12.973 17.3045 12.9592 17.3545 12.9592C17.4044 12.9592 17.4453 12.9454 17.4453 12.9286C17.4453 12.9117 17.4862 12.898 17.5361 12.898C17.5861 12.898 17.627 12.8842 17.627 12.8673C17.627 12.8505 17.6814 12.8367 17.748 12.8367C17.8146 12.8367 17.8691 12.823 17.8691 12.8061C17.8691 12.7893 17.91 12.7755 17.96 12.7755C18.0099 12.7755 18.0508 12.7617 18.0508 12.7449C18.0508 12.7281 18.1053 12.7143 18.1719 12.7143C18.2385 12.7143 18.293 12.7005 18.293 12.6837C18.293 12.6668 18.3475 12.6531 18.4141 12.6531C18.4807 12.6531 18.5352 12.6393 18.5352 12.6224C18.5352 12.6056 18.5896 12.5918 18.6562 12.5918C18.7229 12.5918 18.7773 12.5781 18.7773 12.5612C18.7773 12.5444 18.8455 12.5306 18.9287 12.5306C19.012 12.5306 19.0801 12.5168 19.0801 12.5C19.0801 12.4832 19.1346 12.4694 19.2012 12.4694C19.2678 12.4694 19.3223 12.4556 19.3223 12.4388C19.3223 12.4219 19.3904 12.4082 19.4736 12.4082C19.5569 12.4082 19.625 12.3944 19.625 12.3776C19.625 12.3605 19.7057 12.3469 19.8066 12.3469C19.9075 12.3469 19.9883 12.3333 19.9883 12.3163C19.9883 12.2993 20.069 12.2857 20.1699 12.2857C20.2708 12.2857 20.3516 12.2721 20.3516 12.2551C20.3516 12.2373 20.4525 12.2245 20.5938 12.2245C20.735 12.2245 20.8359 12.2117 20.8359 12.1939C20.8359 12.176 20.9368 12.1633 21.0781 12.1633C21.2194 12.1633 21.3203 12.1505 21.3203 12.1327C21.3203 12.1139 21.4616 12.102 21.6836 12.102C21.9056 12.102 22.0469 12.0901 22.0469 12.0714C22.0469 12.0514 22.5514 12.0408 23.5 12.0408C24.4486 12.0408 24.9531 12.0514 24.9531 12.0714C24.9531 12.0901 25.0944 12.102 25.3164 12.102C25.5384 12.102 25.6797 12.1139 25.6797 12.1327C25.6797 12.1505 25.7806 12.1633 25.9219 12.1633C26.0632 12.1633 26.1641 12.176 26.1641 12.1939C26.1641 12.2117 26.265 12.2245 26.4062 12.2245C26.5475 12.2245 26.6484 12.2373 26.6484 12.2551C26.6484 12.2721 26.7292 12.2857 26.8301 12.2857C26.931 12.2857 27.0117 12.2993 27.0117 12.3163C27.0117 12.3333 27.0925 12.3469 27.1934 12.3469C27.2943 12.3469 27.375 12.3605 27.375 12.3776C27.375 12.3944 27.4295 12.4082 27.4961 12.4082C27.5627 12.4082 27.6172 12.4219 27.6172 12.4388C27.6172 12.4556 27.6853 12.4694 27.7686 12.4694C27.8518 12.4694 27.9199 12.4832 27.9199 12.5C27.9199 12.5168 27.988 12.5306 28.0713 12.5306C28.1545 12.5306 28.2227 12.5444 28.2227 12.5612C28.2227 12.5781 28.2771 12.5918 28.3438 12.5918C28.4104 12.5918 28.4648 12.6056 28.4648 12.6224C28.4648 12.6393 28.5193 12.6531 28.5859 12.6531C28.6525 12.6531 28.707 12.6668 28.707 12.6837C28.707 12.7005 28.7479 12.7143 28.7979 12.7143C28.8478 12.7143 28.8887 12.7281 28.8887 12.7449C28.8887 12.7617 28.9432 12.7755 29.0098 12.7755C29.0764 12.7755 29.1309 12.7893 29.1309 12.8061C29.1309 12.823 29.1854 12.8367 29.252 12.8367C29.3186 12.8367 29.373 12.8505 29.373 12.8673C29.373 12.8842 29.4139 12.898 29.4639 12.898C29.5138 12.898 29.5547 12.9117 29.5547 12.9286C29.5547 12.9454 29.5956 12.9592 29.6455 12.9592C29.6955 12.9592 29.7363 12.973 29.7363 12.9898C29.7363 13.0066 29.7772 13.0204 29.8271 13.0204C29.8771 13.0204 29.918 13.0342 29.918 13.051C29.918 13.0679 29.9588 13.0816 30.0088 13.0816C30.0587 13.0816 30.0996 13.0954 30.0996 13.1122C30.0996 13.1291 30.1405 13.1429 30.1904 13.1429C30.2404 13.1429 30.2812 13.1566 30.2812 13.1735C30.2812 13.1903 30.3221 13.2041 30.3721 13.2041C30.422 13.2041 30.4629 13.2179 30.4629 13.2347C30.4629 13.2515 30.5038 13.2653 30.5537 13.2653C30.6037 13.2653 30.6445 13.2791 30.6445 13.2959C30.6445 13.3128 30.6718 13.3265 30.7051 13.3265C30.7384 13.3265 30.7656 13.3403 30.7656 13.3571C30.7656 13.374 30.8065 13.3878 30.8564 13.3878C30.9064 13.3878 30.9473 13.4015 30.9473 13.4184C30.9473 13.4352 30.9881 13.449 31.0381 13.449C31.088 13.449 31.1289 13.4628 31.1289 13.4796C31.1289 13.4964 31.1562 13.5102 31.1895 13.5102C31.2228 13.5102 31.25 13.524 31.25 13.5408C31.25 13.5577 31.2909 13.5714 31.3408 13.5714C31.3908 13.5714 31.4316 13.5852 31.4316 13.602C31.4316 13.6189 31.4589 13.6327 31.4922 13.6327C31.5255 13.6327 31.5527 13.6464 31.5527 13.6633C31.5527 13.6801 31.58 13.6939 31.6133 13.6939C31.6466 13.6939 31.6738 13.7077 31.6738 13.7245C31.6738 13.7413 31.7147 13.7551 31.7646 13.7551C31.8146 13.7551 31.8555 13.7689 31.8555 13.7857C31.8555 13.8026 31.8827 13.8163 31.916 13.8163C31.9493 13.8163 31.9766 13.8301 31.9766 13.8469C31.9766 13.8638 32.0038 13.8776 32.0371 13.8776C32.0704 13.8776 32.0977 13.8913 32.0977 13.9082C32.0977 13.925 32.1249 13.9388 32.1582 13.9388C32.1915 13.9388 32.2187 13.9526 32.2187 13.9694C32.2187 13.9862 32.246 14 32.2793 14C32.3126 14 32.3398 14.0138 32.3398 14.0306C32.3398 14.0474 32.3671 14.0612 32.4004 14.0612C32.4337 14.0612 32.4609 14.075 32.4609 14.0918C32.4609 14.1087 32.5018 14.1224 32.5518 14.1224C32.6017 14.1224 32.6426 14.1362 32.6426 14.1531C32.6426 14.1699 32.6698 14.1837 32.7031 14.1837C32.7364 14.1837 32.7637 14.1974 32.7637 14.2143C32.7637 14.2311 32.7909 14.2449 32.8242 14.2449C32.8575 14.2449 32.8848 14.2587 32.8848 14.2755C32.8848 14.2923 32.912 14.3061 32.9453 14.3061C32.9786 14.3061 33.0059 14.3199 33.0059 14.3367C33.0059 14.3536 33.0301 14.3673 33.0597 14.3673C33.0894 14.3673 33.1332 14.3949 33.1572 14.4286C33.1812 14.4622 33.2251 14.4898 33.2547 14.4898C33.2843 14.4898 33.3086 14.5036 33.3086 14.5204C33.3086 14.5372 33.3358 14.551 33.3691 14.551C33.4024 14.551 33.4297 14.5648 33.4297 14.5816C33.4297 14.5985 33.4569 14.6122 33.4902 14.6122C33.5235 14.6122 33.5508 14.626 33.5508 14.6429C33.5508 14.6597 33.575 14.6735 33.6046 14.6735C33.6343 14.6735 33.6781 14.701 33.7021 14.7347C33.7262 14.7684 33.77 14.7959 33.7997 14.7959C33.8293 14.7959 33.8535 14.8097 33.8535 14.8265C33.8535 14.8434 33.8808 14.8571 33.9141 14.8571C33.9474 14.8571 33.9746 14.8709 33.9746 14.8878C33.9746 14.9046 33.9989 14.9184 34.0285 14.9184C34.0581 14.9184 34.102 14.9459 34.126 14.9796C34.15 15.0133 34.1909 15.0408 34.2168 15.0408C34.2427 15.0408 34.2836 15.0684 34.3076 15.102C34.3316 15.1357 34.3755 15.1633 34.4051 15.1633C34.4347 15.1633 34.459 15.177 34.459 15.1939C34.459 15.2107 34.4832 15.2245 34.5128 15.2245C34.5425 15.2245 34.5863 15.252 34.6104 15.2857C34.6344 15.3194 34.6752 15.3469 34.7012 15.3469C34.7271 15.3469 34.768 15.3745 34.792 15.4082C34.816 15.4418 34.8569 15.4694 34.8828 15.4694C34.9088 15.4694 34.9496 15.4969 34.9736 15.5306C34.9976 15.5643 35.0385 15.5918 35.0645 15.5918C35.0904 15.5918 35.1313 15.6194 35.1553 15.6531C35.1793 15.6867 35.2201 15.7143 35.2461 15.7143C35.272 15.7143 35.3129 15.7418 35.3369 15.7755C35.3609 15.8092 35.3993 15.8367 35.4223 15.8367C35.4452 15.8367 35.5022 15.8781 35.5488 15.9286C35.5955 15.9791 35.65 16.0204 35.6699 16.0204C35.6899 16.0204 35.7444 16.0617 35.791 16.1122C35.8377 16.1628 35.8922 16.2041 35.9121 16.2041C35.9321 16.2041 35.9866 16.2454 36.0332 16.2959C36.0799 16.3464 36.1343 16.3878 36.1543 16.3878C36.1742 16.3878 36.2287 16.4291 36.2754 16.4796C36.322 16.5301 36.3761 16.5714 36.3955 16.5714C36.4148 16.5714 36.497 16.6403 36.5781 16.7245C36.6592 16.8087 36.7408 16.8776 36.7595 16.8776C36.7781 16.8776 36.8736 16.9602 36.9717 17.0612C37.0697 17.1622 37.1647 17.2449 37.1827 17.2449C37.2007 17.2449 37.4054 17.4378 37.6377 17.6735C37.87 17.9092 38.0753 18.102 38.094 18.102C38.1127 18.102 38.1662 18.1434 38.2129 18.1939C38.2906 18.278 38.3146 18.2857 38.4975 18.2857C38.6105 18.2857 38.6973 18.2724 38.6973 18.2551C38.6973 18.2383 38.7183 18.2245 38.744 18.2245C38.8046 18.2245 38.9395 18.0881 38.9395 18.0269C38.9395 18.0009 38.9531 17.9796 38.9697 17.9796C38.9864 17.9796 39 17.9107 39 17.8265C39 17.7423 38.9864 17.6735 38.9697 17.6735C38.9531 17.6735 38.9395 17.6459 38.9395 17.6122C38.9395 17.5786 38.9258 17.551 38.9092 17.551C38.8925 17.551 38.8789 17.5299 38.8789 17.5041C38.8789 17.4512 38.6863 17.2449 38.6369 17.2449C38.6192 17.2449 38.4284 17.0658 38.2129 16.8469C37.9973 16.6281 37.8062 16.449 37.7882 16.449C37.7702 16.449 37.6752 16.3663 37.5771 16.2653C37.4791 16.1643 37.3834 16.0816 37.3645 16.0816C37.3456 16.0816 37.2779 16.0265 37.2139 15.9592C37.1499 15.8918 37.0818 15.8367 37.0625 15.8367C37.0432 15.8367 36.9751 15.7816 36.9111 15.7143C36.8471 15.6469 36.7787 15.5918 36.7592 15.5918C36.7395 15.5918 36.6853 15.5505 36.6387 15.5C36.592 15.4495 36.5375 15.4082 36.5176 15.4082C36.4976 15.4082 36.4431 15.3668 36.3965 15.3163C36.3498 15.2658 36.2929 15.2245 36.2699 15.2245C36.247 15.2245 36.2086 15.1969 36.1846 15.1633C36.1606 15.1296 36.1221 15.102 36.0992 15.102C36.0763 15.102 36.0193 15.0607 35.9727 15.0102C35.926 14.9597 35.869 14.9184 35.8461 14.9184C35.8232 14.9184 35.7847 14.8908 35.7607 14.8571C35.7367 14.8235 35.6959 14.7959 35.6699 14.7959C35.644 14.7959 35.6031 14.7684 35.5791 14.7347C35.5551 14.701 35.5142 14.6735 35.4883 14.6735C35.4623 14.6735 35.4215 14.6459 35.3975 14.6122C35.3735 14.5786 35.3326 14.551 35.3066 14.551C35.2807 14.551 35.2398 14.5235 35.2158 14.4898C35.1918 14.4561 35.1479 14.4286 35.1183 14.4286C35.0887 14.4286 35.0645 14.4148 35.0645 14.398C35.0645 14.3811 35.0402 14.3673 35.0106 14.3673C34.981 14.3673 34.9371 14.3398 34.9131 14.3061C34.8891 14.2724 34.8482 14.2449 34.8223 14.2449C34.7963 14.2449 34.7555 14.2173 34.7314 14.1837C34.7074 14.15 34.6636 14.1224 34.6339 14.1224C34.6043 14.1224 34.5801 14.1087 34.5801 14.0918C34.5801 14.075 34.5558 14.0612 34.5262 14.0612C34.4966 14.0612 34.4527 14.0337 34.4287 14C34.4047 13.9663 34.3608 13.9388 34.3312 13.9388C34.3016 13.9388 34.2773 13.925 34.2773 13.9082C34.2773 13.8913 34.2501 13.8776 34.2168 13.8776C34.1835 13.8776 34.1562 13.8638 34.1562 13.8469C34.1562 13.8301 34.129 13.8163 34.0957 13.8163C34.0624 13.8163 34.0352 13.8026 34.0352 13.7857C34.0352 13.7689 34.0109 13.7551 33.9813 13.7551C33.9517 13.7551 33.9078 13.7276 33.8838 13.6939C33.8598 13.6602 33.8159 13.6327 33.7863 13.6327C33.7567 13.6327 33.7324 13.6189 33.7324 13.602C33.7324 13.5852 33.7052 13.5714 33.6719 13.5714C33.6386 13.5714 33.6113 13.5577 33.6113 13.5408C33.6113 13.524 33.5841 13.5102 33.5508 13.5102C33.5175 13.5102 33.4902 13.4964 33.4902 13.4796C33.4902 13.4628 33.463 13.449 33.4297 13.449C33.3964 13.449 33.3691 13.4352 33.3691 13.4184C33.3691 13.4015 33.3419 13.3878 33.3086 13.3878C33.2753 13.3878 33.248 13.374 33.248 13.3571C33.248 13.3403 33.2208 13.3265 33.1875 13.3265C33.1542 13.3265 33.127 13.3128 33.127 13.2959C33.127 13.2791 33.0997 13.2653 33.0664 13.2653C33.0331 13.2653 33.0059 13.2515 33.0059 13.2347C33.0059 13.2179 32.9786 13.2041 32.9453 13.2041C32.912 13.2041 32.8848 13.1903 32.8848 13.1735C32.8848 13.1566 32.8575 13.1429 32.8242 13.1429C32.7909 13.1429 32.7637 13.1291 32.7637 13.1122C32.7637 13.0954 32.7364 13.0816 32.7031 13.0816C32.6698 13.0816 32.6426 13.0679 32.6426 13.051C32.6426 13.0342 32.6153 13.0204 32.582 13.0204C32.5487 13.0204 32.5215 13.0066 32.5215 12.9898C32.5215 12.973 32.4806 12.9592 32.4307 12.9592C32.3807 12.9592 32.3398 12.9454 32.3398 12.9286C32.3398 12.9117 32.3126 12.898 32.2793 12.898C32.246 12.898 32.2187 12.8842 32.2187 12.8673C32.2187 12.8505 32.1915 12.8367 32.1582 12.8367C32.1249 12.8367 32.0977 12.823 32.0977 12.8061C32.0977 12.7893 32.0704 12.7755 32.0371 12.7755C32.0038 12.7755 31.9766 12.7617 31.9766 12.7449C31.9766 12.7281 31.9357 12.7143 31.8857 12.7143C31.8358 12.7143 31.7949 12.7005 31.7949 12.6837C31.7949 12.6668 31.7677 12.6531 31.7344 12.6531C31.7011 12.6531 31.6738 12.6393 31.6738 12.6224C31.6738 12.6056 31.633 12.5918 31.583 12.5918C31.5331 12.5918 31.4922 12.5781 31.4922 12.5612C31.4922 12.5444 31.4649 12.5306 31.4316 12.5306C31.3983 12.5306 31.3711 12.5168 31.3711 12.5C31.3711 12.4832 31.3302 12.4694 31.2803 12.4694C31.2303 12.4694 31.1895 12.4556 31.1895 12.4388C31.1895 12.4219 31.1486 12.4082 31.0986 12.4082C31.0487 12.4082 31.0078 12.3944 31.0078 12.3776C31.0078 12.3607 30.9806 12.3469 30.9473 12.3469C30.914 12.3469 30.8867 12.3332 30.8867 12.3163C30.8867 12.2995 30.8458 12.2857 30.7959 12.2857C30.7459 12.2857 30.7051 12.2719 30.7051 12.2551C30.7051 12.2383 30.6642 12.2245 30.6143 12.2245C30.5643 12.2245 30.5234 12.2107 30.5234 12.1939C30.5234 12.177 30.4826 12.1633 30.4326 12.1633C30.3827 12.1633 30.3418 12.1495 30.3418 12.1327C30.3418 12.1158 30.3009 12.102 30.251 12.102C30.201 12.102 30.1602 12.0883 30.1602 12.0714C30.1602 12.0546 30.1193 12.0408 30.0693 12.0408C30.0194 12.0408 29.9785 12.027 29.9785 12.0102C29.9785 11.9934 29.9376 11.9796 29.8877 11.9796C29.8377 11.9796 29.7969 11.9658 29.7969 11.949C29.7969 11.9321 29.7424 11.9184 29.6758 11.9184C29.6092 11.9184 29.5547 11.9046 29.5547 11.8878C29.5547 11.8709 29.5138 11.8571 29.4639 11.8571C29.4139 11.8571 29.373 11.8434 29.373 11.8265C29.373 11.8097 29.3186 11.7959 29.252 11.7959C29.1854 11.7959 29.1309 11.7821 29.1309 11.7653C29.1309 11.7485 29.0764 11.7347 29.0098 11.7347C28.9432 11.7347 28.8887 11.7209 28.8887 11.7041C28.8887 11.6872 28.8342 11.6735 28.7676 11.6735C28.701 11.6735 28.6465 11.6597 28.6465 11.6429C28.6465 11.626 28.592 11.6122 28.5254 11.6122C28.4588 11.6122 28.4043 11.5985 28.4043 11.5816C28.4043 11.5648 28.3362 11.551 28.2529 11.551C28.1697 11.551 28.1016 11.5372 28.1016 11.5204C28.1016 11.5036 28.0471 11.4898 27.9805 11.4898C27.9139 11.4898 27.8594 11.476 27.8594 11.4592C27.8594 11.4423 27.7913 11.4286 27.708 11.4286C27.6248 11.4286 27.5566 11.4148 27.5566 11.398C27.5566 11.3809 27.4759 11.3673 27.375 11.3673C27.2741 11.3673 27.1934 11.3538 27.1934 11.3367C27.1934 11.3197 27.1126 11.3061 27.0117 11.3061C26.9108 11.3061 26.8301 11.2925 26.8301 11.2755C26.8301 11.258 26.7393 11.2449 26.6182 11.2449C26.4971 11.2449 26.4062 11.2318 26.4062 11.2143C26.4062 11.1964 26.3053 11.1837 26.1641 11.1837C26.0228 11.1837 25.9219 11.1709 25.9219 11.1531C25.9219 11.1345 25.7907 11.1224 25.5889 11.1224C25.387 11.1224 25.2559 11.1104 25.2559 11.0918C25.2559 11.0726 25.054 11.0612 24.7109 11.0612C24.3678 11.0612 24.166 11.0499 24.166 11.0306C24.166 11.0111 23.9137 11 23.4697 11C23.0257 11 22.7734 11.0111 22.7734 11.0306ZM22.0469 15.0714C22.0469 15.0898 21.9258 15.102 21.7441 15.102C21.5625 15.102 21.4414 15.1143 21.4414 15.1327C21.4414 15.1505 21.3405 15.1633 21.1992 15.1633C21.0579 15.1633 20.957 15.176 20.957 15.1939C20.957 15.2109 20.8763 15.2245 20.7754 15.2245C20.6745 15.2245 20.5938 15.2381 20.5938 15.2551C20.5938 15.2721 20.513 15.2857 20.4121 15.2857C20.3112 15.2857 20.2305 15.2993 20.2305 15.3163C20.2305 15.3332 20.1624 15.3469 20.0791 15.3469C19.9958 15.3469 19.9277 15.3607 19.9277 15.3776C19.9277 15.3944 19.8596 15.4082 19.7764 15.4082C19.6931 15.4082 19.625 15.4219 19.625 15.4388C19.625 15.4556 19.5705 15.4694 19.5039 15.4694C19.4373 15.4694 19.3828 15.4832 19.3828 15.5C19.3828 15.5168 19.3147 15.5306 19.2314 15.5306C19.1482 15.5306 19.0801 15.5444 19.0801 15.5612C19.0801 15.5781 19.0392 15.5918 18.9893 15.5918C18.9393 15.5918 18.8984 15.6056 18.8984 15.6224C18.8984 15.6393 18.8439 15.6531 18.7773 15.6531C18.7107 15.6531 18.6562 15.6668 18.6562 15.6837C18.6562 15.7005 18.6154 15.7143 18.5654 15.7143C18.5155 15.7143 18.4746 15.7281 18.4746 15.7449C18.4746 15.7617 18.4201 15.7755 18.3535 15.7755C18.2869 15.7755 18.2324 15.7893 18.2324 15.8061C18.2324 15.823 18.1916 15.8367 18.1416 15.8367C18.0917 15.8367 18.0508 15.8505 18.0508 15.8673C18.0508 15.8842 18.0099 15.898 17.96 15.898C17.91 15.898 17.8691 15.9117 17.8691 15.9286C17.8691 15.9454 17.8283 15.9592 17.7783 15.9592C17.7284 15.9592 17.6875 15.973 17.6875 15.9898C17.6875 16.0066 17.6466 16.0204 17.5967 16.0204C17.5467 16.0204 17.5059 16.0342 17.5059 16.051C17.5059 16.0679 17.4786 16.0816 17.4453 16.0816C17.412 16.0816 17.3848 16.0954 17.3848 16.1122C17.3848 16.1291 17.3439 16.1429 17.2939 16.1429C17.244 16.1429 17.2031 16.1566 17.2031 16.1735C17.2031 16.1903 17.1623 16.2041 17.1123 16.2041C17.0624 16.2041 17.0215 16.2179 17.0215 16.2347C17.0215 16.2515 16.9942 16.2653 16.9609 16.2653C16.9276 16.2653 16.9004 16.2791 16.9004 16.2959C16.9004 16.3128 16.8595 16.3265 16.8096 16.3265C16.7596 16.3265 16.7188 16.3403 16.7188 16.3571C16.7188 16.374 16.6915 16.3878 16.6582 16.3878C16.6249 16.3878 16.5977 16.4015 16.5977 16.4184C16.5977 16.4352 16.5704 16.449 16.5371 16.449C16.5038 16.449 16.4766 16.4628 16.4766 16.4796C16.4766 16.4964 16.4357 16.5102 16.3857 16.5102C16.3358 16.5102 16.2949 16.524 16.2949 16.5408C16.2949 16.5577 16.2677 16.5714 16.2344 16.5714C16.2011 16.5714 16.1738 16.5852 16.1738 16.602C16.1738 16.6189 16.1466 16.6327 16.1133 16.6327C16.08 16.6327 16.0527 16.6464 16.0527 16.6633C16.0527 16.6801 16.0255 16.6939 15.9922 16.6939C15.9589 16.6939 15.9316 16.7077 15.9316 16.7245C15.9316 16.7413 15.9044 16.7551 15.8711 16.7551C15.8378 16.7551 15.8105 16.7689 15.8105 16.7857C15.8105 16.8026 15.7833 16.8163 15.75 16.8163C15.7167 16.8163 15.6895 16.8301 15.6895 16.8469C15.6895 16.8638 15.6622 16.8776 15.6289 16.8776C15.5956 16.8776 15.5684 16.8913 15.5684 16.9082C15.5684 16.925 15.5411 16.9388 15.5078 16.9388C15.4745 16.9388 15.4473 16.9526 15.4473 16.9694C15.4473 16.9862 15.42 17 15.3867 17C15.3534 17 15.3262 17.0138 15.3262 17.0306C15.3262 17.0474 15.2989 17.0612 15.2656 17.0612C15.2323 17.0612 15.2051 17.075 15.2051 17.0918C15.2051 17.1087 15.1778 17.1224 15.1445 17.1224C15.1112 17.1224 15.084 17.1362 15.084 17.1531C15.084 17.1699 15.0567 17.1837 15.0234 17.1837C14.9901 17.1837 14.9629 17.1974 14.9629 17.2143C14.9629 17.2311 14.9386 17.2449 14.909 17.2449C14.8794 17.2449 14.8355 17.2724 14.8115 17.3061C14.7875 17.3398 14.7437 17.3673 14.714 17.3673C14.6844 17.3673 14.6602 17.3811 14.6602 17.398C14.6602 17.4148 14.6329 17.4286 14.5996 17.4286C14.5663 17.4286 14.5391 17.4423 14.5391 17.4592C14.5391 17.476 14.5148 17.4898 14.4852 17.4898C14.4556 17.4898 14.4117 17.5173 14.3877 17.551C14.3637 17.5847 14.3198 17.6122 14.2902 17.6122C14.2606 17.6122 14.2363 17.626 14.2363 17.6429C14.2363 17.6597 14.2121 17.6735 14.1825 17.6735C14.1528 17.6735 14.109 17.701 14.085 17.7347C14.061 17.7684 14.0201 17.7959 13.9941 17.7959C13.9682 17.7959 13.9273 17.8235 13.9033 17.8571C13.8793 17.8908 13.8384 17.9184 13.8125 17.9184C13.7866 17.9184 13.7457 17.9459 13.7217 17.9796C13.6977 18.0133 13.6568 18.0408 13.6309 18.0408C13.6049 18.0408 13.564 18.0684 13.54 18.102C13.516 18.1357 13.4752 18.1633 13.4492 18.1633C13.4233 18.1633 13.3824 18.1908 13.3584 18.2245C13.3344 18.2582 13.296 18.2857 13.273 18.2857C13.2501 18.2857 13.1931 18.327 13.1465 18.3776C13.0998 18.4281 13.0429 18.4694 13.0199 18.4694C12.997 18.4694 12.9586 18.4969 12.9346 18.5306C12.9106 18.5643 12.8724 18.5918 12.8498 18.5918C12.8272 18.5918 12.7564 18.6469 12.6924 18.7143C12.6284 18.7816 12.5603 18.8367 12.541 18.8367C12.5218 18.8367 12.4536 18.8918 12.3896 18.9592C12.3257 19.0265 12.2579 19.0816 12.239 19.0816C12.2201 19.0816 12.1244 19.1643 12.0264 19.2653C11.9283 19.3663 11.8336 19.449 11.8159 19.449C11.7654 19.449 10.8457 20.3919 10.8457 20.4436C10.8457 20.469 10.8321 20.4898 10.8154 20.4898C10.7988 20.4898 10.7852 20.5449 10.7852 20.6122C10.7852 20.6796 10.7988 20.7347 10.8154 20.7347C10.8321 20.7347 10.8457 20.7697 10.8457 20.8126C10.8457 20.8985 10.9676 21.0408 11.0411 21.0408C11.0669 21.0408 11.0879 21.0546 11.0879 21.0714C11.0879 21.0888 11.1765 21.102 11.2931 21.102C11.4636 21.102 11.5057 21.0917 11.542 21.0408C11.566 21.0071 11.6034 20.9796 11.6252 20.9796C11.647 20.9796 11.8411 20.8005 12.0566 20.5816C12.2722 20.3628 12.4633 20.1837 12.4813 20.1837C12.4994 20.1837 12.5943 20.101 12.6924 20C12.7904 19.899 12.8864 19.8163 12.9056 19.8163C12.9248 19.8163 12.9787 19.775 13.0254 19.7245C13.072 19.674 13.1263 19.6327 13.1459 19.6327C13.1655 19.6327 13.2339 19.5776 13.2979 19.5102C13.3618 19.4429 13.4302 19.3878 13.4498 19.3878C13.4694 19.3878 13.5237 19.3464 13.5703 19.2959C13.617 19.2454 13.6739 19.2041 13.6969 19.2041C13.7198 19.2041 13.7582 19.1765 13.7822 19.1429C13.8062 19.1092 13.8471 19.0816 13.873 19.0816C13.899 19.0816 13.9399 19.0541 13.9639 19.0204C13.9879 18.9867 14.0287 18.9592 14.0547 18.9592C14.0806 18.9592 14.1215 18.9316 14.1455 18.898C14.1695 18.8643 14.2104 18.8367 14.2363 18.8367C14.2623 18.8367 14.3031 18.8092 14.3271 18.7755C14.3512 18.7418 14.392 18.7143 14.418 18.7143C14.4439 18.7143 14.4848 18.6867 14.5088 18.6531C14.5328 18.6194 14.5737 18.5918 14.5996 18.5918C14.6256 18.5918 14.6664 18.5643 14.6904 18.5306C14.7144 18.4969 14.7583 18.4694 14.7879 18.4694C14.8175 18.4694 14.8418 18.4556 14.8418 18.4388C14.8418 18.4219 14.866 18.4082 14.8957 18.4082C14.9253 18.4082 14.9692 18.3806 14.9932 18.3469C15.0172 18.3133 15.061 18.2857 15.0907 18.2857C15.1203 18.2857 15.1445 18.2719 15.1445 18.2551C15.1445 18.2383 15.1718 18.2245 15.2051 18.2245C15.2384 18.2245 15.2656 18.2107 15.2656 18.1939C15.2656 18.177 15.2929 18.1633 15.3262 18.1633C15.3595 18.1633 15.3867 18.1495 15.3867 18.1327C15.3867 18.1158 15.411 18.102 15.4406 18.102C15.4702 18.102 15.5141 18.0745 15.5381 18.0408C15.5621 18.0071 15.606 17.9796 15.6356 17.9796C15.6652 17.9796 15.6895 17.9658 15.6895 17.949C15.6895 17.9321 15.7167 17.9184 15.75 17.9184C15.7833 17.9184 15.8105 17.9046 15.8105 17.8878C15.8105 17.8709 15.8378 17.8571 15.8711 17.8571C15.9044 17.8571 15.9316 17.8434 15.9316 17.8265C15.9316 17.8097 15.9589 17.7959 15.9922 17.7959C16.0255 17.7959 16.0527 17.7821 16.0527 17.7653C16.0527 17.7485 16.08 17.7347 16.1133 17.7347C16.1466 17.7347 16.1738 17.7209 16.1738 17.7041C16.1738 17.6872 16.2011 17.6735 16.2344 17.6735C16.2677 17.6735 16.2949 17.6597 16.2949 17.6429C16.2949 17.626 16.3222 17.6122 16.3555 17.6122C16.3888 17.6122 16.416 17.5985 16.416 17.5816C16.416 17.5648 16.4569 17.551 16.5068 17.551C16.5568 17.551 16.5977 17.5372 16.5977 17.5204C16.5977 17.5036 16.6249 17.4898 16.6582 17.4898C16.6915 17.4898 16.7188 17.476 16.7188 17.4592C16.7188 17.4423 16.746 17.4286 16.7793 17.4286C16.8126 17.4286 16.8398 17.4148 16.8398 17.398C16.8398 17.3811 16.8671 17.3673 16.9004 17.3673C16.9337 17.3673 16.9609 17.3536 16.9609 17.3367C16.9609 17.3199 17.0018 17.3061 17.0518 17.3061C17.1017 17.3061 17.1426 17.2923 17.1426 17.2755C17.1426 17.2587 17.1698 17.2449 17.2031 17.2449C17.2364 17.2449 17.2637 17.2311 17.2637 17.2143C17.2637 17.1974 17.3045 17.1837 17.3545 17.1837C17.4044 17.1837 17.4453 17.1699 17.4453 17.1531C17.4453 17.1362 17.4862 17.1224 17.5361 17.1224C17.5861 17.1224 17.627 17.1087 17.627 17.0918C17.627 17.075 17.6542 17.0612 17.6875 17.0612C17.7208 17.0612 17.748 17.0474 17.748 17.0306C17.748 17.0138 17.7889 17 17.8389 17C17.8888 17 17.9297 16.9862 17.9297 16.9694C17.9297 16.9526 17.9706 16.9388 18.0205 16.9388C18.0705 16.9388 18.1113 16.925 18.1113 16.9082C18.1113 16.8913 18.1522 16.8776 18.2021 16.8776C18.2521 16.8776 18.293 16.8638 18.293 16.8469C18.293 16.8301 18.3338 16.8163 18.3838 16.8163C18.4337 16.8163 18.4746 16.8026 18.4746 16.7857C18.4746 16.7689 18.5155 16.7551 18.5654 16.7551C18.6154 16.7551 18.6562 16.7413 18.6562 16.7245C18.6562 16.7077 18.7107 16.6939 18.7773 16.6939C18.8439 16.6939 18.8984 16.6801 18.8984 16.6633C18.8984 16.6464 18.9529 16.6327 19.0195 16.6327C19.0861 16.6327 19.1406 16.6189 19.1406 16.602C19.1406 16.5852 19.1815 16.5714 19.2314 16.5714C19.2814 16.5714 19.3223 16.5577 19.3223 16.5408C19.3223 16.524 19.3768 16.5102 19.4434 16.5102C19.51 16.5102 19.5645 16.4964 19.5645 16.4796C19.5645 16.4628 19.6326 16.449 19.7158 16.449C19.7991 16.449 19.8672 16.4352 19.8672 16.4184C19.8672 16.4015 19.9217 16.3878 19.9883 16.3878C20.0549 16.3878 20.1094 16.374 20.1094 16.3571C20.1094 16.3403 20.1775 16.3265 20.2607 16.3265C20.344 16.3265 20.4121 16.3128 20.4121 16.2959C20.4121 16.2789 20.4928 16.2653 20.5938 16.2653C20.6947 16.2653 20.7754 16.2517 20.7754 16.2347C20.7754 16.2172 20.8662 16.2041 20.9873 16.2041C21.1084 16.2041 21.1992 16.1909 21.1992 16.1735C21.1992 16.1556 21.3001 16.1429 21.4414 16.1429C21.5827 16.1429 21.6836 16.1301 21.6836 16.1122C21.6836 16.0935 21.8249 16.0816 22.0469 16.0816C22.2689 16.0816 22.4102 16.0697 22.4102 16.051C22.4102 16.0312 22.7936 16.0204 23.5 16.0204C24.2064 16.0204 24.5898 16.0312 24.5898 16.051C24.5898 16.0697 24.7311 16.0816 24.9531 16.0816C25.1751 16.0816 25.3164 16.0935 25.3164 16.1122C25.3164 16.1301 25.4173 16.1429 25.5586 16.1429C25.6999 16.1429 25.8008 16.1556 25.8008 16.1735C25.8008 16.1909 25.8916 16.2041 26.0127 16.2041C26.1338 16.2041 26.2246 16.2172 26.2246 16.2347C26.2246 16.2517 26.3053 16.2653 26.4062 16.2653C26.5072 16.2653 26.5879 16.2789 26.5879 16.2959C26.5879 16.3128 26.656 16.3265 26.7393 16.3265C26.8225 16.3265 26.8906 16.3403 26.8906 16.3571C26.8906 16.374 26.9451 16.3878 27.0117 16.3878C27.0783 16.3878 27.1328 16.4015 27.1328 16.4184C27.1328 16.4352 27.2009 16.449 27.2842 16.449C27.3674 16.449 27.4355 16.4628 27.4355 16.4796C27.4355 16.4964 27.49 16.5102 27.5566 16.5102C27.6232 16.5102 27.6777 16.524 27.6777 16.5408C27.6777 16.5577 27.7186 16.5714 27.7686 16.5714C27.8185 16.5714 27.8594 16.5852 27.8594 16.602C27.8594 16.6189 27.9139 16.6327 27.9805 16.6327C28.0471 16.6327 28.1016 16.6464 28.1016 16.6633C28.1016 16.6801 28.1561 16.6939 28.2227 16.6939C28.2893 16.6939 28.3438 16.7077 28.3438 16.7245C28.3438 16.7413 28.3846 16.7551 28.4346 16.7551C28.4845 16.7551 28.5254 16.7689 28.5254 16.7857C28.5254 16.8026 28.5663 16.8163 28.6162 16.8163C28.6662 16.8163 28.707 16.8301 28.707 16.8469C28.707 16.8638 28.7479 16.8776 28.7979 16.8776C28.8478 16.8776 28.8887 16.8913 28.8887 16.9082C28.8887 16.925 28.9295 16.9388 28.9795 16.9388C29.0294 16.9388 29.0703 16.9526 29.0703 16.9694C29.0703 16.9862 29.1112 17 29.1611 17C29.2111 17 29.252 17.0138 29.252 17.0306C29.252 17.0474 29.2792 17.0612 29.3125 17.0612C29.3458 17.0612 29.373 17.075 29.373 17.0918C29.373 17.1087 29.4139 17.1224 29.4639 17.1224C29.5138 17.1224 29.5547 17.1362 29.5547 17.1531C29.5547 17.1699 29.5956 17.1837 29.6455 17.1837C29.6955 17.1837 29.7363 17.1974 29.7363 17.2143C29.7363 17.2311 29.7636 17.2449 29.7969 17.2449C29.8302 17.2449 29.8574 17.2587 29.8574 17.2755C29.8574 17.2923 29.8847 17.3061 29.918 17.3061C29.9513 17.3061 29.9785 17.3199 29.9785 17.3367C29.9785 17.3536 30.0194 17.3673 30.0693 17.3673C30.1193 17.3673 30.1602 17.3811 30.1602 17.398C30.1602 17.4148 30.1874 17.4286 30.2207 17.4286C30.254 17.4286 30.2812 17.4423 30.2812 17.4592C30.2812 17.476 30.3085 17.4898 30.3418 17.4898C30.3751 17.4898 30.4023 17.5036 30.4023 17.5204C30.4023 17.5372 30.4432 17.551 30.4932 17.551C30.5431 17.551 30.584 17.5648 30.584 17.5816C30.584 17.5985 30.6112 17.6122 30.6445 17.6122C30.6778 17.6122 30.7051 17.626 30.7051 17.6429C30.7051 17.6597 30.7323 17.6735 30.7656 17.6735C30.7989 17.6735 30.8262 17.6872 30.8262 17.7041C30.8262 17.7209 30.8534 17.7347 30.8867 17.7347C30.92 17.7347 30.9473 17.7485 30.9473 17.7653C30.9473 17.7821 30.9745 17.7959 31.0078 17.7959C31.0411 17.7959 31.0684 17.8097 31.0684 17.8265C31.0684 17.8434 31.0956 17.8571 31.1289 17.8571C31.1622 17.8571 31.1895 17.8709 31.1895 17.8878C31.1895 17.9046 31.2167 17.9184 31.25 17.9184C31.2833 17.9184 31.3105 17.9321 31.3105 17.949C31.3105 17.9658 31.3348 17.9796 31.3644 17.9796C31.394 17.9796 31.4379 18.0071 31.4619 18.0408C31.4859 18.0745 31.5298 18.102 31.5594 18.102C31.589 18.102 31.6133 18.1158 31.6133 18.1327C31.6133 18.1495 31.6405 18.1633 31.6738 18.1633C31.7071 18.1633 31.7344 18.177 31.7344 18.1939C31.7344 18.2107 31.7616 18.2245 31.7949 18.2245C31.8282 18.2245 31.8555 18.2383 31.8555 18.2551C31.8555 18.2719 31.8797 18.2857 31.9093 18.2857C31.939 18.2857 31.9828 18.3133 32.0068 18.3469C32.0308 18.3806 32.0717 18.4082 32.0977 18.4082C32.1236 18.4082 32.1645 18.4357 32.1885 18.4694C32.2125 18.5031 32.2563 18.5306 32.286 18.5306C32.3156 18.5306 32.3398 18.5444 32.3398 18.5612C32.3398 18.5781 32.3641 18.5918 32.3937 18.5918C32.4233 18.5918 32.4672 18.6194 32.4912 18.6531C32.5152 18.6867 32.5561 18.7143 32.582 18.7143C32.608 18.7143 32.6488 18.7418 32.6729 18.7755C32.6969 18.8092 32.7377 18.8367 32.7637 18.8367C32.7896 18.8367 32.8305 18.8643 32.8545 18.898C32.8785 18.9316 32.9194 18.9592 32.9453 18.9592C32.9713 18.9592 33.0121 18.9867 33.0361 19.0204C33.0601 19.0541 33.0986 19.0816 33.1215 19.0816C33.1444 19.0816 33.2014 19.123 33.248 19.1735C33.2947 19.224 33.3492 19.2653 33.3691 19.2653C33.3891 19.2653 33.4436 19.3066 33.4902 19.3571C33.5369 19.4077 33.5914 19.449 33.6113 19.449C33.6313 19.449 33.6858 19.4903 33.7324 19.5408C33.7791 19.5913 33.8333 19.6327 33.8529 19.6327C33.8725 19.6327 33.9409 19.6878 34.0049 19.7551C34.0689 19.8224 34.1367 19.8776 34.1556 19.8776C34.1744 19.8776 34.2701 19.9602 34.3682 20.0612C34.4662 20.1622 34.5612 20.2449 34.5793 20.2449C34.5974 20.2449 34.7748 20.4102 34.9736 20.6122C35.1725 20.8143 35.353 20.9796 35.3748 20.9796C35.3966 20.9796 35.434 21.0071 35.458 21.0408C35.4943 21.0917 35.5364 21.102 35.7069 21.102C35.8235 21.102 35.9121 21.0888 35.9121 21.0714C35.9121 21.0546 35.9335 21.0408 35.9597 21.0408C36.0209 21.0408 36.0938 20.9671 36.0938 20.9052C36.0938 20.8788 36.1074 20.8571 36.124 20.8571C36.1407 20.8571 36.1543 20.8296 36.1543 20.7959C36.1543 20.7622 36.1679 20.7347 36.1846 20.7347C36.2012 20.7347 36.2148 20.6934 36.2148 20.6429C36.2148 20.5923 36.2012 20.551 36.1846 20.551C36.1679 20.551 36.1543 20.5165 36.1543 20.4742C36.1543 20.416 36.0411 20.283 35.6853 19.9232C35.4273 19.6624 35.2018 19.449 35.1841 19.449C35.1664 19.449 35.0717 19.3663 34.9736 19.2653C34.8756 19.1643 34.7799 19.0816 34.761 19.0816C34.7421 19.0816 34.6744 19.0265 34.6104 18.9592C34.5464 18.8918 34.478 18.8367 34.4584 18.8367C34.4388 18.8367 34.3845 18.7954 34.3379 18.7449C34.2912 18.6944 34.2367 18.6531 34.2168 18.6531C34.1968 18.6531 34.1424 18.6117 34.0957 18.5612C34.0491 18.5107 33.9946 18.4694 33.9746 18.4694C33.9547 18.4694 33.9002 18.4281 33.8535 18.3776C33.8069 18.327 33.7499 18.2857 33.727 18.2857C33.704 18.2857 33.6656 18.2582 33.6416 18.2245C33.6176 18.1908 33.5767 18.1633 33.5508 18.1633C33.5248 18.1633 33.484 18.1357 33.46 18.102C33.436 18.0684 33.3951 18.0408 33.3691 18.0408C33.3432 18.0408 33.3023 18.0133 33.2783 17.9796C33.2543 17.9459 33.2134 17.9184 33.1875 17.9184C33.1616 17.9184 33.1207 17.8908 33.0967 17.8571C33.0727 17.8235 33.0318 17.7959 33.0059 17.7959C32.9799 17.7959 32.939 17.7684 32.915 17.7347C32.891 17.701 32.8472 17.6735 32.8175 17.6735C32.7879 17.6735 32.7637 17.6597 32.7637 17.6429C32.7637 17.626 32.7394 17.6122 32.7098 17.6122C32.6802 17.6122 32.6363 17.5847 32.6123 17.551C32.5883 17.5173 32.5444 17.4898 32.5148 17.4898C32.4852 17.4898 32.4609 17.476 32.4609 17.4592C32.4609 17.4423 32.4337 17.4286 32.4004 17.4286C32.3671 17.4286 32.3398 17.4148 32.3398 17.398C32.3398 17.3811 32.3156 17.3673 32.286 17.3673C32.2563 17.3673 32.2125 17.3398 32.1885 17.3061C32.1645 17.2724 32.1206 17.2449 32.091 17.2449C32.0614 17.2449 32.0371 17.2311 32.0371 17.2143C32.0371 17.1974 32.0099 17.1837 31.9766 17.1837C31.9433 17.1837 31.916 17.1699 31.916 17.1531C31.916 17.1362 31.8888 17.1224 31.8555 17.1224C31.8222 17.1224 31.7949 17.1087 31.7949 17.0918C31.7949 17.075 31.7677 17.0612 31.7344 17.0612C31.7011 17.0612 31.6738 17.0474 31.6738 17.0306C31.6738 17.0138 31.6466 17 31.6133 17C31.58 17 31.5527 16.9862 31.5527 16.9694C31.5527 16.9526 31.5255 16.9388 31.4922 16.9388C31.4589 16.9388 31.4316 16.925 31.4316 16.9082C31.4316 16.8913 31.4044 16.8776 31.3711 16.8776C31.3378 16.8776 31.3105 16.8638 31.3105 16.8469C31.3105 16.8301 31.2833 16.8163 31.25 16.8163C31.2167 16.8163 31.1895 16.8026 31.1895 16.7857C31.1895 16.7689 31.1622 16.7551 31.1289 16.7551C31.0956 16.7551 31.0684 16.7413 31.0684 16.7245C31.0684 16.7077 31.0411 16.6939 31.0078 16.6939C30.9745 16.6939 30.9473 16.6801 30.9473 16.6633C30.9473 16.6464 30.92 16.6327 30.8867 16.6327C30.8534 16.6327 30.8262 16.6189 30.8262 16.602C30.8262 16.5852 30.7989 16.5714 30.7656 16.5714C30.7323 16.5714 30.7051 16.5577 30.7051 16.5408C30.7051 16.524 30.6642 16.5102 30.6143 16.5102C30.5643 16.5102 30.5234 16.4964 30.5234 16.4796C30.5234 16.4628 30.4962 16.449 30.4629 16.449C30.4296 16.449 30.4023 16.4352 30.4023 16.4184C30.4023 16.4015 30.3751 16.3878 30.3418 16.3878C30.3085 16.3878 30.2812 16.374 30.2812 16.3571C30.2812 16.3403 30.2404 16.3265 30.1904 16.3265C30.1405 16.3265 30.0996 16.3128 30.0996 16.2959C30.0996 16.2791 30.0724 16.2653 30.0391 16.2653C30.0058 16.2653 29.9785 16.2515 29.9785 16.2347C29.9785 16.2179 29.9376 16.2041 29.8877 16.2041C29.8377 16.2041 29.7969 16.1903 29.7969 16.1735C29.7969 16.1566 29.756 16.1429 29.7061 16.1429C29.6561 16.1429 29.6152 16.1291 29.6152 16.1122C29.6152 16.0954 29.588 16.0816 29.5547 16.0816C29.5214 16.0816 29.4941 16.0679 29.4941 16.051C29.4941 16.0342 29.4533 16.0204 29.4033 16.0204C29.3534 16.0204 29.3125 16.0066 29.3125 15.9898C29.3125 15.973 29.2716 15.9592 29.2217 15.9592C29.1717 15.9592 29.1309 15.9454 29.1309 15.9286C29.1309 15.9117 29.09 15.898 29.04 15.898C28.9901 15.898 28.9492 15.8842 28.9492 15.8673C28.9492 15.8505 28.9083 15.8367 28.8584 15.8367C28.8084 15.8367 28.7676 15.823 28.7676 15.8061C28.7676 15.7893 28.7131 15.7755 28.6465 15.7755C28.5799 15.7755 28.5254 15.7617 28.5254 15.7449C28.5254 15.7281 28.4845 15.7143 28.4346 15.7143C28.3846 15.7143 28.3438 15.7005 28.3438 15.6837C28.3438 15.6668 28.2893 15.6531 28.2227 15.6531C28.1561 15.6531 28.1016 15.6393 28.1016 15.6224C28.1016 15.6056 28.0471 15.5918 27.9805 15.5918C27.9139 15.5918 27.8594 15.5781 27.8594 15.5612C27.8594 15.5444 27.8049 15.5306 27.7383 15.5306C27.6717 15.5306 27.6172 15.5168 27.6172 15.5C27.6172 15.4832 27.5627 15.4694 27.4961 15.4694C27.4295 15.4694 27.375 15.4556 27.375 15.4388C27.375 15.4219 27.3069 15.4082 27.2236 15.4082C27.1404 15.4082 27.0723 15.3944 27.0723 15.3776C27.0723 15.3607 27.0042 15.3469 26.9209 15.3469C26.8376 15.3469 26.7695 15.3332 26.7695 15.3163C26.7695 15.2993 26.6888 15.2857 26.5879 15.2857C26.487 15.2857 26.4062 15.2721 26.4062 15.2551C26.4062 15.2381 26.3255 15.2245 26.2246 15.2245C26.1237 15.2245 26.043 15.2109 26.043 15.1939C26.043 15.176 25.9421 15.1633 25.8008 15.1633C25.6595 15.1633 25.5586 15.1505 25.5586 15.1327C25.5586 15.1141 25.4274 15.102 25.2256 15.102C25.0238 15.102 24.8926 15.09 24.8926 15.0714C24.8926 15.0515 24.3981 15.0408 23.4697 15.0408C22.5413 15.0408 22.0469 15.0515 22.0469 15.0714ZM22.4102 19.051C22.4102 19.0694 22.2891 19.0816 22.1074 19.0816C21.9258 19.0816 21.8047 19.0939 21.8047 19.1122C21.8047 19.1301 21.7038 19.1429 21.5625 19.1429C21.4212 19.1429 21.3203 19.1556 21.3203 19.1735C21.3203 19.1903 21.2522 19.2041 21.1689 19.2041C21.0857 19.2041 21.0176 19.2179 21.0176 19.2347C21.0176 19.2515 20.9495 19.2653 20.8662 19.2653C20.783 19.2653 20.7148 19.2791 20.7148 19.2959C20.7148 19.3128 20.6467 19.3265 20.5635 19.3265C20.4802 19.3265 20.4121 19.3403 20.4121 19.3571C20.4121 19.374 20.3576 19.3878 20.291 19.3878C20.2244 19.3878 20.1699 19.4015 20.1699 19.4184C20.1699 19.4352 20.1154 19.449 20.0488 19.449C19.9822 19.449 19.9277 19.4628 19.9277 19.4796C19.9277 19.4964 19.8732 19.5102 19.8066 19.5102C19.74 19.5102 19.6855 19.524 19.6855 19.5408C19.6855 19.5577 19.6447 19.5714 19.5947 19.5714C19.5448 19.5714 19.5039 19.5852 19.5039 19.602C19.5039 19.6189 19.463 19.6327 19.4131 19.6327C19.3631 19.6327 19.3223 19.6464 19.3223 19.6633C19.3223 19.6801 19.2814 19.6939 19.2314 19.6939C19.1815 19.6939 19.1406 19.7077 19.1406 19.7245C19.1406 19.7413 19.0998 19.7551 19.0498 19.7551C18.9999 19.7551 18.959 19.7689 18.959 19.7857C18.959 19.8026 18.9181 19.8163 18.8682 19.8163C18.8182 19.8163 18.7773 19.8301 18.7773 19.8469C18.7773 19.8638 18.7365 19.8776 18.6865 19.8776C18.6366 19.8776 18.5957 19.8913 18.5957 19.9082C18.5957 19.925 18.5685 19.9388 18.5352 19.9388C18.5019 19.9388 18.4746 19.9526 18.4746 19.9694C18.4746 19.9862 18.4337 20 18.3838 20C18.3338 20 18.293 20.0138 18.293 20.0306C18.293 20.0474 18.2657 20.0612 18.2324 20.0612C18.1991 20.0612 18.1719 20.075 18.1719 20.0918C18.1719 20.1087 18.131 20.1224 18.0811 20.1224C18.0311 20.1224 17.9902 20.1362 17.9902 20.1531C17.9902 20.1699 17.963 20.1837 17.9297 20.1837C17.8964 20.1837 17.8691 20.1974 17.8691 20.2143C17.8691 20.2311 17.8419 20.2449 17.8086 20.2449C17.7753 20.2449 17.748 20.2587 17.748 20.2755C17.748 20.2923 17.7208 20.3061 17.6875 20.3061C17.6542 20.3061 17.627 20.3199 17.627 20.3367C17.627 20.3536 17.5997 20.3673 17.5664 20.3673C17.5331 20.3673 17.5059 20.3811 17.5059 20.398C17.5059 20.4148 17.4786 20.4286 17.4453 20.4286C17.412 20.4286 17.3848 20.4423 17.3848 20.4592C17.3848 20.476 17.3575 20.4898 17.3242 20.4898C17.2909 20.4898 17.2637 20.5036 17.2637 20.5204C17.2637 20.5372 17.2364 20.551 17.2031 20.551C17.1698 20.551 17.1426 20.5648 17.1426 20.5816C17.1426 20.5985 17.1153 20.6122 17.082 20.6122C17.0487 20.6122 17.0215 20.626 17.0215 20.6429C17.0215 20.6597 16.9942 20.6735 16.9609 20.6735C16.9276 20.6735 16.9004 20.6872 16.9004 20.7041C16.9004 20.7209 16.8731 20.7347 16.8398 20.7347C16.8065 20.7347 16.7793 20.7485 16.7793 20.7653C16.7793 20.7821 16.755 20.7959 16.7254 20.7959C16.6958 20.7959 16.6519 20.8235 16.6279 20.8571C16.6039 20.8908 16.5601 20.9184 16.5304 20.9184C16.5008 20.9184 16.4766 20.9321 16.4766 20.949C16.4766 20.9658 16.4523 20.9796 16.4227 20.9796C16.3931 20.9796 16.3492 21.0071 16.3252 21.0408C16.3012 21.0745 16.2573 21.102 16.2277 21.102C16.1981 21.102 16.1738 21.1158 16.1738 21.1327C16.1738 21.1495 16.1496 21.1633 16.12 21.1633C16.0903 21.1633 16.0465 21.1908 16.0225 21.2245C15.9985 21.2582 15.9576 21.2857 15.9316 21.2857C15.9057 21.2857 15.8648 21.3133 15.8408 21.3469C15.8168 21.3806 15.7759 21.4082 15.75 21.4082C15.7241 21.4082 15.6832 21.4357 15.6592 21.4694C15.6352 21.5031 15.5968 21.5306 15.5738 21.5306C15.5509 21.5306 15.4939 21.5719 15.4473 21.6224C15.4006 21.673 15.3461 21.7143 15.3262 21.7143C15.3062 21.7143 15.2517 21.7556 15.2051 21.8061C15.1584 21.8566 15.1042 21.898 15.0846 21.898C15.065 21.898 14.9966 21.9531 14.9326 22.0204C14.8686 22.0878 14.8008 22.1429 14.7819 22.1429C14.7631 22.1429 14.6674 22.2255 14.5693 22.3265C14.4713 22.4276 14.3765 22.5102 14.3588 22.5102C14.341 22.5102 14.17 22.6685 13.9787 22.8619C13.7198 23.1237 13.6309 23.2333 13.6309 23.2905C13.6309 23.3328 13.6172 23.3673 13.6006 23.3673C13.5839 23.3673 13.5703 23.4087 13.5703 23.4592C13.5703 23.5097 13.5839 23.551 13.6006 23.551C13.6172 23.551 13.6309 23.5859 13.6309 23.6286C13.6309 23.7485 13.8152 23.9184 13.9452 23.9184C14.0026 23.9184 14.0576 23.9356 14.0673 23.9566C14.0814 23.9872 14.0885 23.9872 14.1026 23.9566C14.1123 23.9356 14.16 23.9184 14.2086 23.9184C14.2572 23.9184 14.2969 23.9046 14.2969 23.8878C14.2969 23.8709 14.3178 23.8571 14.3433 23.8571C14.3689 23.8571 14.5251 23.7194 14.6904 23.551C14.8558 23.3827 15.0059 23.2449 15.0241 23.2449C15.0422 23.2449 15.1373 23.1622 15.2354 23.0612C15.3334 22.9602 15.4294 22.8776 15.4486 22.8776C15.4678 22.8776 15.5217 22.8362 15.5684 22.7857C15.615 22.7352 15.6695 22.6939 15.6895 22.6939C15.7094 22.6939 15.7639 22.6526 15.8105 22.602C15.8572 22.5515 15.9117 22.5102 15.9316 22.5102C15.9516 22.5102 16.0061 22.4689 16.0527 22.4184C16.0994 22.3679 16.1564 22.3265 16.1793 22.3265C16.2022 22.3265 16.2406 22.299 16.2646 22.2653C16.2887 22.2316 16.3295 22.2041 16.3555 22.2041C16.3814 22.2041 16.4223 22.1765 16.4463 22.1429C16.4703 22.1092 16.5112 22.0816 16.5371 22.0816C16.5631 22.0816 16.6039 22.0541 16.6279 22.0204C16.6519 21.9867 16.6958 21.9592 16.7254 21.9592C16.755 21.9592 16.7793 21.9454 16.7793 21.9286C16.7793 21.9117 16.8035 21.898 16.8332 21.898C16.8628 21.898 16.9067 21.8704 16.9307 21.8367C16.9547 21.8031 16.9985 21.7755 17.0282 21.7755C17.0578 21.7755 17.082 21.7617 17.082 21.7449C17.082 21.7281 17.1093 21.7143 17.1426 21.7143C17.1759 21.7143 17.2031 21.7005 17.2031 21.6837C17.2031 21.6668 17.2274 21.6531 17.257 21.6531C17.2866 21.6531 17.3305 21.6255 17.3545 21.5918C17.3785 21.5582 17.4224 21.5306 17.452 21.5306C17.4816 21.5306 17.5059 21.5168 17.5059 21.5C17.5059 21.4832 17.5331 21.4694 17.5664 21.4694C17.5997 21.4694 17.627 21.4556 17.627 21.4388C17.627 21.4219 17.6542 21.4082 17.6875 21.4082C17.7208 21.4082 17.748 21.3944 17.748 21.3776C17.748 21.3607 17.7753 21.3469 17.8086 21.3469C17.8419 21.3469 17.8691 21.3332 17.8691 21.3163C17.8691 21.2995 17.8964 21.2857 17.9297 21.2857C17.963 21.2857 17.9902 21.2719 17.9902 21.2551C17.9902 21.2383 18.0175 21.2245 18.0508 21.2245C18.0841 21.2245 18.1113 21.2107 18.1113 21.1939C18.1113 21.177 18.1522 21.1633 18.2021 21.1633C18.2521 21.1633 18.293 21.1495 18.293 21.1327C18.293 21.1158 18.3202 21.102 18.3535 21.102C18.3868 21.102 18.4141 21.0883 18.4141 21.0714C18.4141 21.0546 18.4413 21.0408 18.4746 21.0408C18.5079 21.0408 18.5352 21.027 18.5352 21.0102C18.5352 20.9934 18.576 20.9796 18.626 20.9796C18.6759 20.9796 18.7168 20.9658 18.7168 20.949C18.7168 20.9321 18.744 20.9184 18.7773 20.9184C18.8106 20.9184 18.8379 20.9046 18.8379 20.8878C18.8379 20.8709 18.8788 20.8571 18.9287 20.8571C18.9787 20.8571 19.0195 20.8434 19.0195 20.8265C19.0195 20.8097 19.0468 20.7959 19.0801 20.7959C19.1134 20.7959 19.1406 20.7821 19.1406 20.7653C19.1406 20.7485 19.1815 20.7347 19.2314 20.7347C19.2814 20.7347 19.3223 20.7209 19.3223 20.7041C19.3223 20.6872 19.3631 20.6735 19.4131 20.6735C19.463 20.6735 19.5039 20.6597 19.5039 20.6429C19.5039 20.626 19.5448 20.6122 19.5947 20.6122C19.6447 20.6122 19.6855 20.5985 19.6855 20.5816C19.6855 20.5648 19.74 20.551 19.8066 20.551C19.8732 20.551 19.9277 20.5372 19.9277 20.5204C19.9277 20.5036 19.9822 20.4898 20.0488 20.4898C20.1154 20.4898 20.1699 20.476 20.1699 20.4592C20.1699 20.4423 20.2244 20.4286 20.291 20.4286C20.3576 20.4286 20.4121 20.4148 20.4121 20.398C20.4121 20.3811 20.4666 20.3673 20.5332 20.3673C20.5998 20.3673 20.6543 20.3536 20.6543 20.3367C20.6543 20.3199 20.7088 20.3061 20.7754 20.3061C20.842 20.3061 20.8965 20.2923 20.8965 20.2755C20.8965 20.2585 20.9772 20.2449 21.0781 20.2449C21.179 20.2449 21.2598 20.2313 21.2598 20.2143C21.2598 20.1973 21.3405 20.1837 21.4414 20.1837C21.5423 20.1837 21.623 20.1701 21.623 20.1531C21.623 20.1356 21.7139 20.1224 21.835 20.1224C21.9561 20.1224 22.0469 20.1093 22.0469 20.0918C22.0469 20.0728 22.2184 20.0612 22.501 20.0612C22.7835 20.0612 22.9551 20.0497 22.9551 20.0306C22.9551 20.0113 23.1569 20 23.5 20C23.8431 20 24.0449 20.0113 24.0449 20.0306C24.0449 20.0496 24.2064 20.0612 24.4688 20.0612C24.7311 20.0612 24.8926 20.0729 24.8926 20.0918C24.8926 20.1093 24.9834 20.1224 25.1045 20.1224C25.2256 20.1224 25.3164 20.1356 25.3164 20.1531C25.3164 20.1705 25.4072 20.1837 25.5283 20.1837C25.6494 20.1837 25.7402 20.1968 25.7402 20.2143C25.7402 20.2313 25.821 20.2449 25.9219 20.2449C26.0228 20.2449 26.1035 20.2585 26.1035 20.2755C26.1035 20.2923 26.158 20.3061 26.2246 20.3061C26.2912 20.3061 26.3457 20.3199 26.3457 20.3367C26.3457 20.3536 26.4002 20.3673 26.4668 20.3673C26.5334 20.3673 26.5879 20.3811 26.5879 20.398C26.5879 20.4148 26.6424 20.4286 26.709 20.4286C26.7756 20.4286 26.8301 20.4423 26.8301 20.4592C26.8301 20.476 26.8846 20.4898 26.9512 20.4898C27.0178 20.4898 27.0723 20.5036 27.0723 20.5204C27.0723 20.5372 27.1131 20.551 27.1631 20.551C27.213 20.551 27.2539 20.5648 27.2539 20.5816C27.2539 20.5985 27.3084 20.6122 27.375 20.6122C27.4416 20.6122 27.4961 20.626 27.4961 20.6429C27.4961 20.6597 27.537 20.6735 27.5869 20.6735C27.6369 20.6735 27.6777 20.6872 27.6777 20.7041C27.6777 20.7209 27.705 20.7347 27.7383 20.7347C27.7716 20.7347 27.7988 20.7485 27.7988 20.7653C27.7988 20.7821 27.8397 20.7959 27.8896 20.7959C27.9396 20.7959 27.9805 20.8097 27.9805 20.8265C27.9805 20.8434 28.0213 20.8571 28.0713 20.8571C28.1212 20.8571 28.1621 20.8709 28.1621 20.8878C28.1621 20.9046 28.1894 20.9184 28.2227 20.9184C28.256 20.9184 28.2832 20.9321 28.2832 20.949C28.2832 20.9658 28.3241 20.9796 28.374 20.9796C28.424 20.9796 28.4648 20.9934 28.4648 21.0102C28.4648 21.027 28.4921 21.0408 28.5254 21.0408C28.5587 21.0408 28.5859 21.0546 28.5859 21.0714C28.5859 21.0883 28.6132 21.102 28.6465 21.102C28.6798 21.102 28.707 21.1158 28.707 21.1327C28.707 21.1495 28.7479 21.1633 28.7979 21.1633C28.8478 21.1633 28.8887 21.177 28.8887 21.1939C28.8887 21.2107 28.9159 21.2245 28.9492 21.2245C28.9825 21.2245 29.0098 21.2383 29.0098 21.2551C29.0098 21.2719 29.037 21.2857 29.0703 21.2857C29.1036 21.2857 29.1309 21.2995 29.1309 21.3163C29.1309 21.3332 29.1581 21.3469 29.1914 21.3469C29.2247 21.3469 29.252 21.3607 29.252 21.3776C29.252 21.3944 29.2792 21.4082 29.3125 21.4082C29.3458 21.4082 29.373 21.4219 29.373 21.4388C29.373 21.4556 29.4003 21.4694 29.4336 21.4694C29.4669 21.4694 29.4941 21.4832 29.4941 21.5C29.4941 21.5168 29.5184 21.5306 29.548 21.5306C29.5776 21.5306 29.6215 21.5582 29.6455 21.5918C29.6695 21.6255 29.7134 21.6531 29.743 21.6531C29.7726 21.6531 29.7969 21.6668 29.7969 21.6837C29.7969 21.7005 29.8241 21.7143 29.8574 21.7143C29.8907 21.7143 29.918 21.7281 29.918 21.7449C29.918 21.7617 29.9422 21.7755 29.9718 21.7755C30.0015 21.7755 30.0453 21.8031 30.0693 21.8367C30.0933 21.8704 30.1342 21.898 30.1602 21.898C30.1861 21.898 30.227 21.9255 30.251 21.9592C30.275 21.9929 30.3188 22.0204 30.3485 22.0204C30.3781 22.0204 30.4023 22.0342 30.4023 22.051C30.4023 22.0679 30.4266 22.0816 30.4562 22.0816C30.4858 22.0816 30.5297 22.1092 30.5537 22.1429C30.5777 22.1765 30.6161 22.2041 30.6391 22.2041C30.662 22.2041 30.719 22.2454 30.7656 22.2959C30.8123 22.3464 30.8692 22.3878 30.8922 22.3878C30.9151 22.3878 30.9535 22.4153 30.9775 22.449C31.0015 22.4827 31.04 22.5102 31.0629 22.5102C31.0858 22.5102 31.1428 22.5515 31.1895 22.602C31.2361 22.6526 31.2903 22.6939 31.3099 22.6939C31.3295 22.6939 31.3979 22.749 31.4619 22.8163C31.5259 22.8837 31.5937 22.9388 31.6126 22.9388C31.6315 22.9388 31.7271 23.0214 31.8252 23.1224C31.9233 23.2235 32.0184 23.3061 32.0366 23.3061C32.0548 23.3061 32.1913 23.4301 32.3398 23.5816C32.4884 23.7332 32.6309 23.8571 32.6566 23.8571C32.6822 23.8571 32.7031 23.8709 32.7031 23.8878C32.7031 23.9046 32.7429 23.9184 32.7914 23.9184C32.84 23.9184 32.8877 23.9356 32.8974 23.9566C32.9115 23.9872 32.9186 23.9872 32.9327 23.9566C32.9424 23.9356 32.9974 23.9184 33.0548 23.9184C33.1848 23.9184 33.3691 23.7485 33.3691 23.6286C33.3691 23.5859 33.3828 23.551 33.3994 23.551C33.4161 23.551 33.4297 23.5097 33.4297 23.4592C33.4297 23.4087 33.4161 23.3673 33.3994 23.3673C33.3828 23.3673 33.3691 23.3328 33.3691 23.2905C33.3691 23.2333 33.2802 23.1237 33.0213 22.8619C32.83 22.6685 32.659 22.5102 32.6412 22.5102C32.6235 22.5102 32.5287 22.4276 32.4307 22.3265C32.3326 22.2255 32.2369 22.1429 32.2181 22.1429C32.1992 22.1429 32.1314 22.0878 32.0674 22.0204C32.0034 21.9531 31.935 21.898 31.9154 21.898C31.8958 21.898 31.8416 21.8566 31.7949 21.8061C31.7483 21.7556 31.6913 21.7143 31.6684 21.7143C31.6454 21.7143 31.607 21.6867 31.583 21.6531C31.559 21.6194 31.5206 21.5918 31.4976 21.5918C31.4747 21.5918 31.4177 21.5505 31.3711 21.5C31.3244 21.4495 31.2675 21.4082 31.2446 21.4082C31.2216 21.4082 31.1832 21.3806 31.1592 21.3469C31.1352 21.3133 31.0943 21.2857 31.0684 21.2857C31.0424 21.2857 31.0015 21.2582 30.9775 21.2245C30.9535 21.1908 30.9097 21.1633 30.88 21.1633C30.8504 21.1633 30.8262 21.1495 30.8262 21.1327C30.8262 21.1158 30.8019 21.102 30.7723 21.102C30.7427 21.102 30.6988 21.0745 30.6748 21.0408C30.6508 21.0071 30.6069 20.9796 30.5773 20.9796C30.5477 20.9796 30.5234 20.9658 30.5234 20.949C30.5234 20.9321 30.4992 20.9184 30.4696 20.9184C30.4399 20.9184 30.3961 20.8908 30.3721 20.8571C30.3481 20.8235 30.3042 20.7959 30.2746 20.7959C30.245 20.7959 30.2207 20.7821 30.2207 20.7653C30.2207 20.7485 30.1935 20.7347 30.1602 20.7347C30.1269 20.7347 30.0996 20.7209 30.0996 20.7041C30.0996 20.6872 30.0724 20.6735 30.0391 20.6735C30.0058 20.6735 29.9785 20.6597 29.9785 20.6429C29.9785 20.626 29.9513 20.6122 29.918 20.6122C29.8847 20.6122 29.8574 20.5985 29.8574 20.5816C29.8574 20.5648 29.8302 20.551 29.7969 20.551C29.7636 20.551 29.7363 20.5372 29.7363 20.5204C29.7363 20.5036 29.7091 20.4898 29.6758 20.4898C29.6425 20.4898 29.6152 20.476 29.6152 20.4592C29.6152 20.4423 29.588 20.4286 29.5547 20.4286C29.5214 20.4286 29.4941 20.4148 29.4941 20.398C29.4941 20.3811 29.4669 20.3673 29.4336 20.3673C29.4003 20.3673 29.373 20.3536 29.373 20.3367C29.373 20.3199 29.3458 20.3061 29.3125 20.3061C29.2792 20.3061 29.252 20.2923 29.252 20.2755C29.252 20.2587 29.2247 20.2449 29.1914 20.2449C29.1581 20.2449 29.1309 20.2311 29.1309 20.2143C29.1309 20.1974 29.1036 20.1837 29.0703 20.1837C29.037 20.1837 29.0098 20.1699 29.0098 20.1531C29.0098 20.1362 28.9689 20.1224 28.9189 20.1224C28.869 20.1224 28.8281 20.1087 28.8281 20.0918C28.8281 20.075 28.8009 20.0612 28.7676 20.0612C28.7343 20.0612 28.707 20.0474 28.707 20.0306C28.707 20.0138 28.6662 20 28.6162 20C28.5663 20 28.5254 19.9862 28.5254 19.9694C28.5254 19.9526 28.4981 19.9388 28.4648 19.9388C28.4315 19.9388 28.4043 19.925 28.4043 19.9082C28.4043 19.8913 28.3634 19.8776 28.3135 19.8776C28.2635 19.8776 28.2227 19.8638 28.2227 19.8469C28.2227 19.8301 28.1818 19.8163 28.1318 19.8163C28.0819 19.8163 28.041 19.8026 28.041 19.7857C28.041 19.7689 28.0001 19.7551 27.9502 19.7551C27.9002 19.7551 27.8594 19.7413 27.8594 19.7245C27.8594 19.7077 27.8185 19.6939 27.7686 19.6939C27.7186 19.6939 27.6777 19.6801 27.6777 19.6633C27.6777 19.6464 27.6369 19.6327 27.5869 19.6327C27.537 19.6327 27.4961 19.6189 27.4961 19.602C27.4961 19.5852 27.4552 19.5714 27.4053 19.5714C27.3553 19.5714 27.3145 19.5577 27.3145 19.5408C27.3145 19.524 27.26 19.5102 27.1934 19.5102C27.1268 19.5102 27.0723 19.4964 27.0723 19.4796C27.0723 19.4628 27.0178 19.449 26.9512 19.449C26.8846 19.449 26.8301 19.4352 26.8301 19.4184C26.8301 19.4015 26.7756 19.3878 26.709 19.3878C26.6424 19.3878 26.5879 19.374 26.5879 19.3571C26.5879 19.3403 26.5198 19.3265 26.4365 19.3265C26.3533 19.3265 26.2852 19.3128 26.2852 19.2959C26.2852 19.2791 26.217 19.2653 26.1338 19.2653C26.0505 19.2653 25.9824 19.2515 25.9824 19.2347C25.9824 19.2177 25.9017 19.2041 25.8008 19.2041C25.6999 19.2041 25.6191 19.1905 25.6191 19.1735C25.6191 19.156 25.5283 19.1429 25.4072 19.1429C25.2861 19.1429 25.1953 19.1297 25.1953 19.1122C25.1953 19.0939 25.0742 19.0816 24.8926 19.0816C24.7109 19.0816 24.5898 19.0694 24.5898 19.051C24.5898 19.0312 24.2064 19.0204 23.5 19.0204C22.7936 19.0204 22.4102 19.0312 22.4102 19.051ZM22.8945 23.0306C22.8945 23.0492 22.7634 23.0612 22.5615 23.0612C22.3597 23.0612 22.2285 23.0733 22.2285 23.0918C22.2285 23.1093 22.1377 23.1224 22.0166 23.1224C21.8955 23.1224 21.8047 23.1356 21.8047 23.1531C21.8047 23.1701 21.7239 23.1837 21.623 23.1837C21.5221 23.1837 21.4414 23.1973 21.4414 23.2143C21.4414 23.2311 21.3869 23.2449 21.3203 23.2449C21.2537 23.2449 21.1992 23.2587 21.1992 23.2755C21.1992 23.2923 21.1447 23.3061 21.0781 23.3061C21.0115 23.3061 20.957 23.3199 20.957 23.3367C20.957 23.3536 20.9025 23.3673 20.8359 23.3673C20.7693 23.3673 20.7148 23.3811 20.7148 23.398C20.7148 23.4148 20.674 23.4286 20.624 23.4286C20.5741 23.4286 20.5332 23.4423 20.5332 23.4592C20.5332 23.476 20.4923 23.4898 20.4424 23.4898C20.3924 23.4898 20.3516 23.5036 20.3516 23.5204C20.3516 23.5372 20.3243 23.551 20.291 23.551C20.2577 23.551 20.2305 23.5648 20.2305 23.5816C20.2305 23.5985 20.1896 23.6122 20.1396 23.6122C20.0897 23.6122 20.0488 23.626 20.0488 23.6429C20.0488 23.6597 20.008 23.6735 19.958 23.6735C19.9081 23.6735 19.8672 23.6872 19.8672 23.7041C19.8672 23.7209 19.8263 23.7347 19.7764 23.7347C19.7264 23.7347 19.6855 23.7485 19.6855 23.7653C19.6855 23.7821 19.6583 23.7959 19.625 23.7959C19.5917 23.7959 19.5645 23.8097 19.5645 23.8265C19.5645 23.8434 19.5372 23.8571 19.5039 23.8571C19.4706 23.8571 19.4434 23.8709 19.4434 23.8878C19.4434 23.9046 19.4161 23.9184 19.3828 23.9184C19.3495 23.9184 19.3223 23.9321 19.3223 23.949C19.3223 23.9658 19.295 23.9796 19.2617 23.9796C19.2284 23.9796 19.2012 23.9934 19.2012 24.0102C19.2012 24.027 19.1739 24.0408 19.1406 24.0408C19.1073 24.0408 19.0801 24.0546 19.0801 24.0714C19.0801 24.0883 19.0528 24.102 19.0195 24.102C18.9862 24.102 18.959 24.1158 18.959 24.1327C18.959 24.1495 18.9317 24.1633 18.8984 24.1633C18.8651 24.1633 18.8379 24.177 18.8379 24.1939C18.8379 24.2107 18.8106 24.2245 18.7773 24.2245C18.744 24.2245 18.7168 24.2383 18.7168 24.2551C18.7168 24.2719 18.6925 24.2857 18.6629 24.2857C18.6333 24.2857 18.5894 24.3133 18.5654 24.3469C18.5414 24.3806 18.4976 24.4082 18.4679 24.4082C18.4383 24.4082 18.4141 24.4219 18.4141 24.4388C18.4141 24.4556 18.3898 24.4694 18.3602 24.4694C18.3306 24.4694 18.2867 24.4969 18.2627 24.5306C18.2387 24.5643 18.1948 24.5918 18.1652 24.5918C18.1356 24.5918 18.1113 24.6056 18.1113 24.6224C18.1113 24.6393 18.0896 24.6531 18.0629 24.6531C18.0363 24.6531 17.9763 24.6944 17.9297 24.7449C17.883 24.7954 17.8285 24.8367 17.8086 24.8367C17.7886 24.8367 17.7342 24.8781 17.6875 24.9286C17.6408 24.9791 17.5864 25.0204 17.5664 25.0204C17.5465 25.0204 17.492 25.0617 17.4453 25.1122C17.3987 25.1628 17.3448 25.2041 17.3258 25.2041C17.3067 25.2041 17.197 25.3005 17.082 25.4184C16.9671 25.5362 16.8585 25.6327 16.8407 25.6327C16.7906 25.6327 16.4766 25.9621 16.4766 26.0146C16.4766 26.0403 16.4629 26.0612 16.4463 26.0612C16.4296 26.0612 16.416 26.1014 16.416 26.1505C16.416 26.1996 16.399 26.2478 16.3782 26.2577C16.3479 26.2719 16.3479 26.2791 16.3782 26.2934C16.399 26.3032 16.416 26.3514 16.416 26.4005C16.416 26.4496 16.4296 26.4898 16.4463 26.4898C16.4629 26.4898 16.4766 26.5114 16.4766 26.5379C16.4766 26.5998 16.5495 26.6735 16.6106 26.6735C16.6368 26.6735 16.6582 26.6872 16.6582 26.7041C16.6582 26.7209 16.698 26.7347 16.7465 26.7347C16.7951 26.7347 16.8427 26.7519 16.8525 26.773C16.8666 26.8036 16.8737 26.8036 16.8878 26.773C16.8975 26.7519 16.9452 26.7347 16.9937 26.7347C17.0423 26.7347 17.082 26.7209 17.082 26.7041C17.082 26.6872 17.1033 26.6735 17.1294 26.6735C17.1555 26.6735 17.2431 26.6046 17.3242 26.5204C17.4053 26.4362 17.4868 26.3673 17.5053 26.3673C17.5239 26.3673 17.6331 26.2709 17.748 26.1531C17.863 26.0352 17.9727 25.9388 17.9918 25.9388C18.0109 25.9388 18.0647 25.8974 18.1113 25.8469C18.158 25.7964 18.215 25.7551 18.2379 25.7551C18.2608 25.7551 18.2992 25.7276 18.3232 25.6939C18.3472 25.6602 18.3857 25.6327 18.4086 25.6327C18.4315 25.6327 18.4885 25.5913 18.5352 25.5408C18.5818 25.4903 18.6418 25.449 18.6684 25.449C18.695 25.449 18.7168 25.4352 18.7168 25.4184C18.7168 25.4015 18.741 25.3878 18.7707 25.3878C18.8003 25.3878 18.8442 25.3602 18.8682 25.3265C18.8922 25.2929 18.936 25.2653 18.9657 25.2653C18.9953 25.2653 19.0195 25.2515 19.0195 25.2347C19.0195 25.2179 19.0438 25.2041 19.0734 25.2041C19.103 25.2041 19.1469 25.1765 19.1709 25.1429C19.1949 25.1092 19.2388 25.0816 19.2684 25.0816C19.298 25.0816 19.3223 25.0679 19.3223 25.051C19.3223 25.0342 19.3495 25.0204 19.3828 25.0204C19.4161 25.0204 19.4434 25.0066 19.4434 24.9898C19.4434 24.973 19.4706 24.9592 19.5039 24.9592C19.5372 24.9592 19.5645 24.9454 19.5645 24.9286C19.5645 24.9117 19.5917 24.898 19.625 24.898C19.6583 24.898 19.6855 24.8842 19.6855 24.8673C19.6855 24.8505 19.7264 24.8367 19.7764 24.8367C19.8263 24.8367 19.8672 24.823 19.8672 24.8061C19.8672 24.7893 19.8944 24.7755 19.9277 24.7755C19.961 24.7755 19.9883 24.7617 19.9883 24.7449C19.9883 24.7281 20.0155 24.7143 20.0488 24.7143C20.0821 24.7143 20.1094 24.7005 20.1094 24.6837C20.1094 24.6668 20.1366 24.6531 20.1699 24.6531C20.2032 24.6531 20.2305 24.6393 20.2305 24.6224C20.2305 24.6056 20.2713 24.5918 20.3213 24.5918C20.3712 24.5918 20.4121 24.5781 20.4121 24.5612C20.4121 24.5444 20.453 24.5306 20.5029 24.5306C20.5529 24.5306 20.5938 24.5168 20.5938 24.5C20.5938 24.4832 20.6346 24.4694 20.6846 24.4694C20.7345 24.4694 20.7754 24.4556 20.7754 24.4388C20.7754 24.4219 20.8163 24.4082 20.8662 24.4082C20.9162 24.4082 20.957 24.3944 20.957 24.3776C20.957 24.3607 21.0115 24.3469 21.0781 24.3469C21.1447 24.3469 21.1992 24.3332 21.1992 24.3163C21.1992 24.2995 21.2537 24.2857 21.3203 24.2857C21.3869 24.2857 21.4414 24.2719 21.4414 24.2551C21.4414 24.2383 21.4959 24.2245 21.5625 24.2245C21.6291 24.2245 21.6836 24.2107 21.6836 24.1939C21.6836 24.177 21.7517 24.1633 21.835 24.1633C21.9182 24.1633 21.9863 24.1495 21.9863 24.1327C21.9863 24.1152 22.0771 24.102 22.1982 24.102C22.3193 24.102 22.4102 24.0889 22.4102 24.0714C22.4102 24.0525 22.5716 24.0408 22.834 24.0408C23.0964 24.0408 23.2578 24.0292 23.2578 24.0102C23.2578 23.9924 23.3587 23.9796 23.5 23.9796C23.6413 23.9796 23.7422 23.9924 23.7422 24.0102C23.7422 24.0292 23.9036 24.0408 24.166 24.0408C24.4284 24.0408 24.5898 24.0525 24.5898 24.0714C24.5898 24.0889 24.6807 24.102 24.8018 24.102C24.9229 24.102 25.0137 24.1152 25.0137 24.1327C25.0137 24.1495 25.0818 24.1633 25.165 24.1633C25.2483 24.1633 25.3164 24.177 25.3164 24.1939C25.3164 24.2107 25.3709 24.2245 25.4375 24.2245C25.5041 24.2245 25.5586 24.2383 25.5586 24.2551C25.5586 24.2719 25.6131 24.2857 25.6797 24.2857C25.7463 24.2857 25.8008 24.2995 25.8008 24.3163C25.8008 24.3332 25.8553 24.3469 25.9219 24.3469C25.9885 24.3469 26.043 24.3607 26.043 24.3776C26.043 24.3944 26.0838 24.4082 26.1338 24.4082C26.1837 24.4082 26.2246 24.4219 26.2246 24.4388C26.2246 24.4556 26.2655 24.4694 26.3154 24.4694C26.3654 24.4694 26.4062 24.4832 26.4062 24.5C26.4062 24.5168 26.4471 24.5306 26.4971 24.5306C26.547 24.5306 26.5879 24.5444 26.5879 24.5612C26.5879 24.5781 26.6288 24.5918 26.6787 24.5918C26.7287 24.5918 26.7695 24.6056 26.7695 24.6224C26.7695 24.6393 26.7968 24.6531 26.8301 24.6531C26.8634 24.6531 26.8906 24.6668 26.8906 24.6837C26.8906 24.7005 26.9179 24.7143 26.9512 24.7143C26.9845 24.7143 27.0117 24.7281 27.0117 24.7449C27.0117 24.7617 27.039 24.7755 27.0723 24.7755C27.1056 24.7755 27.1328 24.7893 27.1328 24.8061C27.1328 24.823 27.1737 24.8367 27.2236 24.8367C27.2736 24.8367 27.3145 24.8505 27.3145 24.8673C27.3145 24.8842 27.3417 24.898 27.375 24.898C27.4083 24.898 27.4355 24.9117 27.4355 24.9286C27.4355 24.9454 27.4628 24.9592 27.4961 24.9592C27.5294 24.9592 27.5566 24.973 27.5566 24.9898C27.5566 25.0066 27.5839 25.0204 27.6172 25.0204C27.6505 25.0204 27.6777 25.0342 27.6777 25.051C27.6777 25.0679 27.702 25.0816 27.7316 25.0816C27.7612 25.0816 27.8051 25.1092 27.8291 25.1429C27.8531 25.1765 27.897 25.2041 27.9266 25.2041C27.9562 25.2041 27.9805 25.2179 27.9805 25.2347C27.9805 25.2515 28.0047 25.2653 28.0343 25.2653C28.064 25.2653 28.1078 25.2929 28.1318 25.3265C28.1558 25.3602 28.1997 25.3878 28.2293 25.3878C28.259 25.3878 28.2832 25.4015 28.2832 25.4184C28.2832 25.4352 28.305 25.449 28.3316 25.449C28.3582 25.449 28.4182 25.4903 28.4648 25.5408C28.5115 25.5913 28.566 25.6327 28.5859 25.6327C28.6059 25.6327 28.6604 25.674 28.707 25.7245C28.7537 25.775 28.8107 25.8163 28.8336 25.8163C28.8565 25.8163 28.8949 25.8439 28.9189 25.8776C28.943 25.9112 28.9806 25.9388 29.0026 25.9388C29.0246 25.9388 29.1504 26.049 29.2822 26.1837C29.414 26.3184 29.5369 26.4286 29.5554 26.4286C29.5738 26.4286 29.6552 26.4974 29.7363 26.5816C29.8575 26.7074 29.9025 26.7347 29.9892 26.7347C30.0471 26.7347 30.1025 26.7519 30.1122 26.773C30.1263 26.8036 30.1334 26.8036 30.1475 26.773C30.1572 26.7519 30.2049 26.7347 30.2535 26.7347C30.3021 26.7347 30.3418 26.7209 30.3418 26.7041C30.3418 26.6872 30.3632 26.6735 30.3894 26.6735C30.4505 26.6735 30.5234 26.5998 30.5234 26.5379C30.5234 26.5114 30.5371 26.4898 30.5537 26.4898C30.5704 26.4898 30.584 26.4496 30.584 26.4005C30.584 26.3514 30.601 26.3032 30.6218 26.2934C30.6521 26.2791 30.6521 26.2719 30.6218 26.2577C30.601 26.2478 30.584 26.1996 30.584 26.1505C30.584 26.1014 30.5704 26.0612 30.5537 26.0612C30.5371 26.0612 30.5234 26.0402 30.5234 26.0145C30.5234 25.9618 30.2701 25.6939 30.2202 25.6939C30.2024 25.6939 30.08 25.5837 29.9482 25.449C29.8165 25.3143 29.6931 25.2041 29.6741 25.2041C29.6551 25.2041 29.6013 25.1628 29.5547 25.1122C29.508 25.0617 29.4535 25.0204 29.4336 25.0204C29.4136 25.0204 29.3592 24.9791 29.3125 24.9286C29.2658 24.8781 29.2114 24.8367 29.1914 24.8367C29.1715 24.8367 29.117 24.7954 29.0703 24.7449C29.0237 24.6944 28.9637 24.6531 28.9371 24.6531C28.9104 24.6531 28.8887 24.6393 28.8887 24.6224C28.8887 24.6056 28.8644 24.5918 28.8348 24.5918C28.8052 24.5918 28.7613 24.5643 28.7373 24.5306C28.7133 24.4969 28.6694 24.4694 28.6398 24.4694C28.6102 24.4694 28.5859 24.4556 28.5859 24.4388C28.5859 24.4219 28.5617 24.4082 28.5321 24.4082C28.5024 24.4082 28.4586 24.3806 28.4346 24.3469C28.4106 24.3133 28.3667 24.2857 28.3371 24.2857C28.3075 24.2857 28.2832 24.2719 28.2832 24.2551C28.2832 24.2383 28.256 24.2245 28.2227 24.2245C28.1894 24.2245 28.1621 24.2107 28.1621 24.1939C28.1621 24.177 28.1349 24.1633 28.1016 24.1633C28.0683 24.1633 28.041 24.1495 28.041 24.1327C28.041 24.1158 28.0138 24.102 27.9805 24.102C27.9472 24.102 27.9199 24.0883 27.9199 24.0714C27.9199 24.0546 27.8927 24.0408 27.8594 24.0408C27.8261 24.0408 27.7988 24.027 27.7988 24.0102C27.7988 23.9934 27.7716 23.9796 27.7383 23.9796C27.705 23.9796 27.6777 23.9658 27.6777 23.949C27.6777 23.9321 27.6505 23.9184 27.6172 23.9184C27.5839 23.9184 27.5566 23.9046 27.5566 23.8878C27.5566 23.8709 27.5294 23.8571 27.4961 23.8571C27.4628 23.8571 27.4355 23.8434 27.4355 23.8265C27.4355 23.8097 27.4083 23.7959 27.375 23.7959C27.3417 23.7959 27.3145 23.7821 27.3145 23.7653C27.3145 23.7485 27.2736 23.7347 27.2236 23.7347C27.1737 23.7347 27.1328 23.7209 27.1328 23.7041C27.1328 23.6872 27.0919 23.6735 27.042 23.6735C26.992 23.6735 26.9512 23.6597 26.9512 23.6429C26.9512 23.626 26.9103 23.6122 26.8604 23.6122C26.8104 23.6122 26.7695 23.5985 26.7695 23.5816C26.7695 23.5648 26.7423 23.551 26.709 23.551C26.6757 23.551 26.6484 23.5372 26.6484 23.5204C26.6484 23.5036 26.6076 23.4898 26.5576 23.4898C26.5077 23.4898 26.4668 23.476 26.4668 23.4592C26.4668 23.4423 26.4123 23.4286 26.3457 23.4286C26.2791 23.4286 26.2246 23.4148 26.2246 23.398C26.2246 23.3811 26.1701 23.3673 26.1035 23.3673C26.0369 23.3673 25.9824 23.3536 25.9824 23.3367C25.9824 23.3199 25.9279 23.3061 25.8613 23.3061C25.7947 23.3061 25.7402 23.2923 25.7402 23.2755C25.7402 23.2587 25.6857 23.2449 25.6191 23.2449C25.5525 23.2449 25.498 23.2311 25.498 23.2143C25.498 23.1974 25.4299 23.1837 25.3467 23.1837C25.2634 23.1837 25.1953 23.1699 25.1953 23.1531C25.1953 23.1356 25.1045 23.1224 24.9834 23.1224C24.8623 23.1224 24.7715 23.1093 24.7715 23.0918C24.7715 23.0733 24.6403 23.0612 24.4385 23.0612C24.2366 23.0612 24.1055 23.0492 24.1055 23.0306C24.1055 23.0112 23.8835 23 23.5 23C23.1165 23 22.8945 23.0112 22.8945 23.0306ZM23.1973 27.0102C23.1973 27.0286 23.0762 27.0408 22.8945 27.0408C22.7129 27.0408 22.5918 27.0531 22.5918 27.0714C22.5918 27.0884 22.5111 27.102 22.4102 27.102C22.3093 27.102 22.2285 27.1156 22.2285 27.1327C22.2285 27.1495 22.174 27.1633 22.1074 27.1633C22.0408 27.1633 21.9863 27.177 21.9863 27.1939C21.9863 27.2107 21.9318 27.2245 21.8652 27.2245C21.7986 27.2245 21.7441 27.2383 21.7441 27.2551C21.7441 27.2719 21.7169 27.2857 21.6836 27.2857C21.6503 27.2857 21.623 27.2995 21.623 27.3163C21.623 27.3332 21.5822 27.3469 21.5322 27.3469C21.4823 27.3469 21.4414 27.3607 21.4414 27.3776C21.4414 27.3944 21.4005 27.4082 21.3506 27.4082C21.3006 27.4082 21.2598 27.4219 21.2598 27.4388C21.2598 27.4556 21.2325 27.4694 21.1992 27.4694C21.1659 27.4694 21.1387 27.4832 21.1387 27.5C21.1387 27.5168 21.1114 27.5306 21.0781 27.5306C21.0448 27.5306 21.0176 27.5444 21.0176 27.5612C21.0176 27.5781 20.9903 27.5918 20.957 27.5918C20.9237 27.5918 20.8965 27.6056 20.8965 27.6224C20.8965 27.6393 20.8586 27.6531 20.8124 27.6531C20.7629 27.6531 20.7102 27.6783 20.6846 27.7143C20.6606 27.748 20.6167 27.7755 20.5871 27.7755C20.5575 27.7755 20.5332 27.7893 20.5332 27.8061C20.5332 27.823 20.509 27.8367 20.4793 27.8367C20.4497 27.8367 20.4058 27.8643 20.3818 27.898C20.3578 27.9316 20.317 27.9592 20.291 27.9592C20.2651 27.9592 20.2242 27.9867 20.2002 28.0204C20.1762 28.0541 20.1353 28.0816 20.1094 28.0816C20.0834 28.0816 20.0426 28.1092 20.0186 28.1429C19.9945 28.1765 19.9567 28.2041 19.9345 28.2041C19.9123 28.2041 19.8139 28.2867 19.7158 28.3878C19.6178 28.4888 19.5227 28.5714 19.5046 28.5714C19.4545 28.5714 19.2617 28.7772 19.2617 28.8306C19.2617 28.8564 19.2481 28.8776 19.2314 28.8776C19.2148 28.8776 19.2012 28.9051 19.2012 28.9388C19.2012 28.9725 19.1875 29 19.1709 29C19.1542 29 19.1406 29.0413 19.1406 29.0918C19.1406 29.1423 19.1542 29.1837 19.1709 29.1837C19.1875 29.1837 19.2012 29.2186 19.2012 29.2612C19.2012 29.3475 19.3812 29.551 19.4575 29.551C19.483 29.551 19.5039 29.5648 19.5039 29.5816C19.5039 29.5985 19.572 29.6122 19.6553 29.6122C19.7385 29.6122 19.8066 29.5985 19.8066 29.5816C19.8066 29.5648 19.8281 29.551 19.8544 29.551C19.8807 29.551 19.9546 29.4959 20.0186 29.4286C20.0826 29.3612 20.1505 29.3061 20.1695 29.3061C20.1885 29.3061 20.2705 29.2372 20.3516 29.1531C20.4327 29.0689 20.5149 29 20.5342 29C20.5536 29 20.6076 28.9587 20.6543 28.9082C20.7009 28.8577 20.7609 28.8163 20.7875 28.8163C20.8142 28.8163 20.8359 28.8026 20.8359 28.7857C20.8359 28.7689 20.8602 28.7551 20.8898 28.7551C20.9194 28.7551 20.9633 28.7276 20.9873 28.6939C21.0113 28.6602 21.0552 28.6327 21.0848 28.6327C21.1144 28.6327 21.1387 28.6189 21.1387 28.602C21.1387 28.5852 21.1659 28.5714 21.1992 28.5714C21.2325 28.5714 21.2598 28.5577 21.2598 28.5408C21.2598 28.524 21.287 28.5102 21.3203 28.5102C21.3536 28.5102 21.3809 28.4964 21.3809 28.4796C21.3809 28.4628 21.4081 28.449 21.4414 28.449C21.4747 28.449 21.502 28.4352 21.502 28.4184C21.502 28.4015 21.5292 28.3878 21.5625 28.3878C21.5958 28.3878 21.623 28.374 21.623 28.3571C21.623 28.3403 21.6639 28.3265 21.7139 28.3265C21.7638 28.3265 21.8047 28.3128 21.8047 28.2959C21.8047 28.2791 21.8456 28.2653 21.8955 28.2653C21.9455 28.2653 21.9863 28.2515 21.9863 28.2347C21.9863 28.2179 22.0408 28.2041 22.1074 28.2041C22.174 28.2041 22.2285 28.1903 22.2285 28.1735C22.2285 28.1566 22.283 28.1429 22.3496 28.1429C22.4162 28.1429 22.4707 28.1291 22.4707 28.1122C22.4707 28.0954 22.5388 28.0816 22.6221 28.0816C22.7053 28.0816 22.7734 28.0679 22.7734 28.051C22.7734 28.0315 23.0358 28.0204 23.5 28.0204C23.9642 28.0204 24.2266 28.0315 24.2266 28.051C24.2266 28.0679 24.2947 28.0816 24.3779 28.0816C24.4612 28.0816 24.5293 28.0954 24.5293 28.1122C24.5293 28.1291 24.5838 28.1429 24.6504 28.1429C24.717 28.1429 24.7715 28.1566 24.7715 28.1735C24.7715 28.1903 24.826 28.2041 24.8926 28.2041C24.9592 28.2041 25.0137 28.2179 25.0137 28.2347C25.0137 28.2515 25.0545 28.2653 25.1045 28.2653C25.1544 28.2653 25.1953 28.2791 25.1953 28.2959C25.1953 28.3128 25.2226 28.3265 25.2559 28.3265C25.2892 28.3265 25.3164 28.3403 25.3164 28.3571C25.3164 28.374 25.3573 28.3878 25.4072 28.3878C25.4572 28.3878 25.498 28.4015 25.498 28.4184C25.498 28.4352 25.5253 28.449 25.5586 28.449C25.5919 28.449 25.6191 28.4628 25.6191 28.4796C25.6191 28.4964 25.6464 28.5102 25.6797 28.5102C25.713 28.5102 25.7402 28.524 25.7402 28.5408C25.7402 28.5577 25.7675 28.5714 25.8008 28.5714C25.8341 28.5714 25.8613 28.5852 25.8613 28.602C25.8613 28.6189 25.8856 28.6327 25.9152 28.6327C25.9448 28.6327 25.9887 28.6602 26.0127 28.6939C26.0367 28.7276 26.0806 28.7551 26.1102 28.7551C26.1398 28.7551 26.1641 28.7689 26.1641 28.7857C26.1641 28.8026 26.1858 28.8163 26.2125 28.8163C26.2391 28.8163 26.2991 28.8577 26.3457 28.9082C26.3924 28.9587 26.4463 29 26.4655 29C26.4847 29 26.5807 29.0827 26.6787 29.1837C26.7768 29.2847 26.8727 29.3673 26.8919 29.3673C26.9112 29.3673 26.9651 29.4087 27.0117 29.4592C27.0584 29.5097 27.1183 29.551 27.145 29.551C27.1716 29.551 27.1934 29.5648 27.1934 29.5816C27.1934 29.5985 27.2615 29.6122 27.3447 29.6122C27.428 29.6122 27.4961 29.5985 27.4961 29.5816C27.4961 29.5648 27.517 29.551 27.5425 29.551C27.6188 29.551 27.7988 29.3475 27.7988 29.2612C27.7988 29.2186 27.8125 29.1837 27.8291 29.1837C27.8458 29.1837 27.8594 29.1561 27.8594 29.1224C27.8594 29.0888 27.8458 29.0612 27.8291 29.0612C27.8125 29.0612 27.7988 29.0199 27.7988 28.9694C27.7988 28.9189 27.7852 28.8776 27.7686 28.8776C27.7519 28.8776 27.7383 28.8564 27.7383 28.8306C27.7383 28.777 27.5454 28.5714 27.4951 28.5714C27.4768 28.5714 27.3956 28.5026 27.3145 28.4184C27.2334 28.3342 27.1512 28.2653 27.1318 28.2653C27.1124 28.2653 27.0584 28.224 27.0117 28.1735C26.9651 28.123 26.9081 28.0816 26.8852 28.0816C26.8622 28.0816 26.8238 28.0541 26.7998 28.0204C26.7758 27.9867 26.7349 27.9592 26.709 27.9592C26.683 27.9592 26.6422 27.9316 26.6182 27.898C26.5942 27.8643 26.5503 27.8367 26.5207 27.8367C26.491 27.8367 26.4668 27.823 26.4668 27.8061C26.4668 27.7893 26.4425 27.7755 26.4129 27.7755C26.3833 27.7755 26.3394 27.748 26.3154 27.7143C26.2898 27.6783 26.2371 27.6531 26.1876 27.6531C26.1414 27.6531 26.1035 27.6393 26.1035 27.6224C26.1035 27.6056 26.0763 27.5918 26.043 27.5918C26.0097 27.5918 25.9824 27.5781 25.9824 27.5612C25.9824 27.5444 25.9552 27.5306 25.9219 27.5306C25.8886 27.5306 25.8613 27.5168 25.8613 27.5C25.8613 27.4832 25.8341 27.4694 25.8008 27.4694C25.7675 27.4694 25.7402 27.4556 25.7402 27.4388C25.7402 27.4219 25.6994 27.4082 25.6494 27.4082C25.5995 27.4082 25.5586 27.3944 25.5586 27.3776C25.5586 27.3607 25.5177 27.3469 25.4678 27.3469C25.4178 27.3469 25.377 27.3332 25.377 27.3163C25.377 27.2995 25.3361 27.2857 25.2861 27.2857C25.2362 27.2857 25.1953 27.2719 25.1953 27.2551C25.1953 27.2383 25.1544 27.2245 25.1045 27.2245C25.0545 27.2245 25.0137 27.2107 25.0137 27.1939C25.0137 27.177 24.9592 27.1633 24.8926 27.1633C24.826 27.1633 24.7715 27.1495 24.7715 27.1327C24.7715 27.1156 24.6907 27.102 24.5898 27.102C24.4889 27.102 24.4082 27.0884 24.4082 27.0714C24.4082 27.0531 24.2871 27.0408 24.1055 27.0408C23.9238 27.0408 23.8027 27.0286 23.8027 27.0102C23.8027 26.9918 23.6816 26.9796 23.5 26.9796C23.3184 26.9796 23.1973 26.9918 23.1973 27.0102ZM23.0762 31.051C23.0762 31.0679 23.0353 31.0816 22.9854 31.0816C22.9354 31.0816 22.8945 31.0954 22.8945 31.1122C22.8945 31.1291 22.8537 31.1429 22.8037 31.1429C22.7538 31.1429 22.7129 31.1566 22.7129 31.1735C22.7129 31.1903 22.6856 31.2041 22.6523 31.2041C22.619 31.2041 22.5918 31.2179 22.5918 31.2347C22.5918 31.2515 22.5646 31.2653 22.5312 31.2653C22.4979 31.2653 22.4707 31.2791 22.4707 31.2959C22.4707 31.3128 22.4501 31.3265 22.4249 31.3265C22.3691 31.3265 21.8652 31.83 21.8652 31.8857C21.8652 31.9074 21.838 31.9451 21.8047 31.9694C21.7714 31.9937 21.7441 32.038 21.7441 32.068C21.7441 32.0979 21.7305 32.1224 21.7139 32.1224C21.6972 32.1224 21.6836 32.1638 21.6836 32.2143C21.6836 32.2648 21.67 32.3061 21.6533 32.3061C21.6367 32.3061 21.623 32.3474 21.623 32.398C21.623 32.4485 21.6094 32.4898 21.5928 32.4898C21.5755 32.4898 21.5625 32.5816 21.5625 32.7041C21.5625 32.8265 21.5495 32.9184 21.5322 32.9184C21.5156 32.9184 21.502 32.9597 21.502 33.0102C21.502 33.0607 21.5156 33.102 21.5322 33.102C21.5491 33.102 21.5625 33.1837 21.5625 33.2857C21.5625 33.3877 21.5759 33.4694 21.5928 33.4694C21.6094 33.4694 21.623 33.5245 21.623 33.5918C21.623 33.6592 21.6367 33.7143 21.6533 33.7143C21.67 33.7143 21.6836 33.7418 21.6836 33.7755C21.6836 33.8092 21.6972 33.8367 21.7139 33.8367C21.7305 33.8367 21.7441 33.8643 21.7441 33.898C21.7441 33.9316 21.7578 33.9592 21.7744 33.9592C21.7911 33.9592 21.8047 33.9812 21.8047 34.0081C21.8047 34.035 21.8456 34.0957 21.8955 34.1429C21.9455 34.19 21.9863 34.2442 21.9863 34.2633C21.9863 34.3084 22.1859 34.5102 22.2305 34.5102C22.2493 34.5102 22.303 34.5515 22.3496 34.602C22.3963 34.6526 22.4562 34.6939 22.4828 34.6939C22.5095 34.6939 22.5312 34.7077 22.5312 34.7245C22.5312 34.7413 22.5585 34.7551 22.5918 34.7551C22.6251 34.7551 22.6523 34.7689 22.6523 34.7857C22.6523 34.8026 22.6796 34.8163 22.7129 34.8163C22.7462 34.8163 22.7734 34.8301 22.7734 34.8469C22.7734 34.8638 22.8143 34.8776 22.8643 34.8776C22.9142 34.8776 22.9551 34.8913 22.9551 34.9082C22.9551 34.9252 23.0358 34.9388 23.1367 34.9388C23.2376 34.9388 23.3184 34.9524 23.3184 34.9694C23.3184 34.9864 23.3991 35 23.5 35C23.6009 35 23.6816 34.9864 23.6816 34.9694C23.6816 34.9526 23.7498 34.9388 23.833 34.9388C23.9163 34.9388 23.9844 34.925 23.9844 34.9082C23.9844 34.8913 24.0389 34.8776 24.1055 34.8776C24.1721 34.8776 24.2266 34.8638 24.2266 34.8469C24.2266 34.8301 24.2538 34.8163 24.2871 34.8163C24.3204 34.8163 24.3477 34.8026 24.3477 34.7857C24.3477 34.7689 24.3749 34.7551 24.4082 34.7551C24.4415 34.7551 24.4688 34.7413 24.4688 34.7245C24.4688 34.7077 24.4902 34.6939 24.5165 34.6939C24.5428 34.6939 24.6167 34.6388 24.6807 34.5714C24.7447 34.5041 24.8127 34.449 24.8318 34.449C24.8768 34.449 24.9531 34.3718 24.9531 34.3263C24.9531 34.307 25.0076 34.2382 25.0742 34.1735C25.1408 34.1088 25.1953 34.0341 25.1953 34.0075C25.1953 33.9809 25.2089 33.9592 25.2256 33.9592C25.2422 33.9592 25.2559 33.9316 25.2559 33.898C25.2559 33.8643 25.2695 33.8367 25.2861 33.8367C25.3028 33.8367 25.3164 33.7954 25.3164 33.7449C25.3164 33.6944 25.33 33.6531 25.3467 33.6531C25.3633 33.6531 25.377 33.6117 25.377 33.5612C25.377 33.5107 25.3906 33.4694 25.4072 33.4694C25.4245 33.4694 25.4375 33.3776 25.4375 33.2551C25.4375 33.1327 25.4505 33.0408 25.4678 33.0408C25.4844 33.0408 25.498 33.0133 25.498 32.9796C25.498 32.9459 25.4844 32.9184 25.4678 32.9184C25.4505 32.9184 25.4375 32.8265 25.4375 32.7041C25.4375 32.5816 25.4245 32.4898 25.4072 32.4898C25.3906 32.4898 25.377 32.4485 25.377 32.398C25.377 32.3474 25.3633 32.3061 25.3467 32.3061C25.33 32.3061 25.3164 32.2786 25.3164 32.2449C25.3164 32.2112 25.3028 32.1837 25.2861 32.1837C25.2695 32.1837 25.2559 32.1561 25.2559 32.1224C25.2559 32.0888 25.2422 32.0612 25.2256 32.0612C25.2089 32.0612 25.1953 32.0337 25.1953 32C25.1953 31.9663 25.1817 31.9388 25.165 31.9388C25.1484 31.9388 25.1348 31.9179 25.1348 31.8924C25.1348 31.8359 24.6975 31.3878 24.6424 31.3878C24.6208 31.3878 24.5836 31.3602 24.5596 31.3265C24.5356 31.2929 24.4917 31.2653 24.4621 31.2653C24.4325 31.2653 24.4082 31.2515 24.4082 31.2347C24.4082 31.2179 24.381 31.2041 24.3477 31.2041C24.3144 31.2041 24.2871 31.1903 24.2871 31.1735C24.2871 31.1566 24.2462 31.1429 24.1963 31.1429C24.1463 31.1429 24.1055 31.1291 24.1055 31.1122C24.1055 31.0954 24.051 31.0816 23.9844 31.0816C23.9178 31.0816 23.8633 31.0679 23.8633 31.051C23.8633 31.0322 23.7119 31.0204 23.4697 31.0204C23.2275 31.0204 23.0762 31.0322 23.0762 31.051ZM23.7422 32.0306C23.7422 32.0474 23.7831 32.0612 23.833 32.0612C23.883 32.0612 23.9238 32.075 23.9238 32.0918C23.9238 32.1087 23.9446 32.1224 23.9699 32.1224C24.0298 32.1224 24.3477 32.4438 24.3477 32.5044C24.3477 32.5301 24.3613 32.551 24.3779 32.551C24.3946 32.551 24.4082 32.5786 24.4082 32.6122C24.4082 32.6459 24.4218 32.6735 24.4385 32.6735C24.4566 32.6735 24.4688 32.7959 24.4688 32.9796C24.4688 33.1633 24.4566 33.2857 24.4385 33.2857C24.4218 33.2857 24.4082 33.3133 24.4082 33.3469C24.4082 33.3806 24.3946 33.4082 24.3779 33.4082C24.3613 33.4082 24.3477 33.4327 24.3477 33.4626C24.3477 33.4926 24.3204 33.5369 24.2871 33.5612C24.2538 33.5855 24.2266 33.6299 24.2266 33.6598C24.2266 33.6898 24.2048 33.7143 24.1782 33.7143C24.1515 33.7143 24.0916 33.7556 24.0449 33.8061C23.9928 33.8626 23.9298 33.898 23.8814 33.898C23.8381 33.898 23.8027 33.9117 23.8027 33.9286C23.8027 33.9469 23.6816 33.9592 23.5 33.9592C23.3184 33.9592 23.1973 33.9469 23.1973 33.9286C23.1973 33.9117 23.1594 33.898 23.1131 33.898C23.0637 33.898 23.011 33.8727 22.9854 33.8367C22.9613 33.8031 22.9237 33.7755 22.9016 33.7755C22.8496 33.7755 22.7129 33.6372 22.7129 33.5847C22.7129 33.5624 22.6856 33.5243 22.6523 33.5C22.6168 33.4741 22.5918 33.4207 22.5918 33.3708C22.5918 33.324 22.5782 33.2857 22.5615 33.2857C22.5434 33.2857 22.5312 33.1633 22.5312 32.9796C22.5312 32.7959 22.5434 32.6735 22.5615 32.6735C22.5782 32.6735 22.5918 32.6459 22.5918 32.6122C22.5918 32.5786 22.6054 32.551 22.6221 32.551C22.6387 32.551 22.6523 32.5301 22.6523 32.5044C22.6523 32.4438 22.9702 32.1224 23.0301 32.1224C23.0554 32.1224 23.0762 32.1087 23.0762 32.0918C23.0762 32.075 23.117 32.0612 23.167 32.0612C23.2169 32.0612 23.2578 32.0474 23.2578 32.0306C23.2578 32.0128 23.3587 32 23.5 32C23.6413 32 23.7422 32.0128 23.7422 32.0306Z" fill="#0089B1"/>
</svg>
