<?xml version="1.0" standalone="no"?>
<!DOCTYPE svg PUBLIC "-//W3C//DTD SVG 20010904//EN"
 "http://www.w3.org/TR/2001/REC-SVG-20010904/DTD/svg10.dtd">
<svg version="1.0" xmlns="http://www.w3.org/2000/svg"
 width="132.000000pt" height="132.000000pt" viewBox="0 0 132.000000 132.000000"
 preserveAspectRatio="xMidYMid meet">
<metadata>
Created by potrace 1.11, written by Peter Selinger 2001-2013
</metadata>
<g transform="translate(0.000000,132.000000) scale(0.100000,-0.100000)"
fill="#000000" stroke="none">
<path d="M544 1166 c-28 -21 -15 -26 35 -15 61 14 75 -3 25 -29 -39 -20 -81
-58 -73 -67 3 -2 27 14 54 35 27 21 51 38 52 36 2 -2 -1 -15 -7 -30 -20 -52
-10 -59 15 -10 24 46 37 108 16 75 -7 -11 -13 -11 -32 3 -29 20 -59 21 -85 2z"/>
<path d="M521 958 c-1 -32 4 -34 25 -13 14 13 14 15 1 15 -9 0 -18 6 -20 13
-3 6 -6 0 -6 -15z"/>
<path d="M491 941 c-7 -5 -12 -14 -10 -20 2 -6 10 -2 17 9 14 22 13 23 -7 11z"/>
<path d="M726 928 c-3 -13 -7 -53 -10 -90 -6 -76 -13 -69 96 -91 57 -12 70
-12 87 0 19 13 19 16 5 56 -14 39 -13 61 2 102 6 15 -2 17 -82 14 -79 -3 -89
-1 -86 14 4 26 -7 20 -12 -5z"/>
<path d="M390 934 c0 -3 5 -24 11 -48 8 -35 8 -50 -5 -81 -20 -46 -20 -42 4
-55 15 -8 34 -7 73 4 28 9 69 18 90 21 41 6 44 16 23 66 -15 36 -56 50 -56 18
0 -28 -18 -32 -31 -7 -7 13 -18 27 -25 31 -8 4 -14 19 -14 32 0 22 -5 25 -35
25 -19 0 -35 -3 -35 -6z m53 -11 c-7 -2 -21 -2 -30 0 -10 3 -4 5 12 5 17 0 24
-2 18 -5z"/>
<path d="M647 919 c5 -19 3 -21 -19 -16 l-25 7 26 -67 c24 -62 26 -64 32 -37
13 58 10 134 -5 134 -10 0 -12 -7 -9 -21z"/>
<path d="M477 720 c-51 -16 -167 -82 -167 -95 0 -2 28 9 63 25 102 48 188 56
366 36 128 -15 159 -16 208 -5 l58 13 -85 7 c-47 4 -120 14 -163 23 -103 21
-208 20 -280 -4z"/>
<path d="M551 602 c1 -17 3 -20 6 -9 2 9 9 15 14 12 5 -4 9 -2 9 3 0 6 -7 12
-15 16 -11 4 -15 -2 -14 -22z"/>
<path d="M604 609 c-10 -17 13 -36 27 -22 12 12 4 33 -11 33 -5 0 -12 -5 -16
-11z m26 -9 c0 -5 -4 -10 -10 -10 -5 0 -10 5 -10 10 0 6 5 10 10 10 6 0 10 -4
10 -10z"/>
<path d="M662 600 c0 -14 2 -19 5 -12 2 6 2 18 0 25 -3 6 -5 1 -5 -13z"/>
<path d="M695 610 c-8 -13 3 -30 18 -29 9 0 9 2 0 6 -7 2 -13 9 -13 14 0 6 5
7 10 4 6 -3 10 -1 10 4 0 14 -17 14 -25 1z"/>
<path d="M164 526 c-42 -19 -61 -71 -44 -121 14 -44 35 -55 99 -55 50 0 51 1
51 29 0 16 3 36 6 45 5 12 -1 16 -24 16 -17 0 -34 -4 -37 -10 -3 -5 1 -10 9
-10 10 0 16 -9 16 -25 0 -21 -5 -25 -27 -25 -36 0 -49 9 -62 43 -11 29 0 75
22 89 22 14 67 9 67 -7 0 -8 5 -15 10 -15 6 0 10 11 10 25 0 14 -6 25 -12 25
-7 0 -22 2 -33 5 -11 3 -34 -2 -51 -9z"/>
<path d="M308 518 c7 -7 12 -39 12 -74 0 -75 14 -94 70 -94 52 0 70 26 70 100
0 31 5 61 12 68 9 9 3 12 -27 12 -30 0 -36 -3 -27 -12 7 -7 12 -39 12 -75 0
-59 -2 -63 -25 -69 -40 -10 -55 11 -55 77 0 33 4 59 10 59 6 0 10 5 10 10 0 6
-17 10 -37 10 -29 0 -34 -3 -25 -12z"/>
<path d="M510 520 c0 -5 5 -10 10 -10 6 0 10 -30 10 -70 0 -40 -4 -70 -10 -70
-5 0 -10 -4 -10 -10 0 -5 17 -10 37 -10 29 0 34 3 25 12 -18 18 -15 68 3 68
18 0 37 -43 29 -65 -5 -12 2 -15 32 -15 32 1 36 3 24 13 -8 7 -21 25 -28 41
-11 25 -10 31 4 48 14 14 16 25 8 46 -9 25 -14 27 -72 30 -38 2 -62 -1 -62 -8z
m99 -19 c22 -14 4 -51 -25 -51 -20 0 -24 5 -24 30 0 31 19 40 49 21z"/>
<path d="M690 505 c0 -14 5 -25 10 -25 6 0 10 7 10 15 0 10 11 15 35 15 19 0
35 -2 35 -5 0 -3 -20 -33 -45 -67 -25 -34 -45 -68 -45 -75 0 -9 19 -13 70 -13
68 0 70 1 70 25 0 16 -6 25 -15 25 -8 0 -15 -7 -15 -15 0 -10 -11 -15 -35 -15
-19 0 -35 3 -35 6 0 3 20 34 45 68 25 35 45 69 45 75 0 7 -24 11 -65 11 -63 0
-65 -1 -65 -25z"/>
<path d="M858 518 c7 -7 12 -37 12 -68 0 -74 18 -100 70 -100 56 0 70 19 70
94 0 35 5 67 12 74 9 9 3 12 -27 12 -30 0 -36 -3 -27 -12 7 -7 12 -39 12 -75
0 -59 -2 -63 -25 -69 -40 -10 -55 11 -55 77 0 33 4 59 10 59 6 0 10 5 10 10 0
6 -17 10 -37 10 -29 0 -34 -3 -25 -12z"/>
<path d="M1068 518 c7 -7 12 -40 12 -78 0 -38 -5 -71 -12 -78 -9 -9 -1 -12 36
-12 29 0 45 4 41 10 -3 6 -13 10 -21 10 -9 0 -14 11 -14 30 0 27 3 30 30 30
17 0 30 5 30 10 0 6 -13 10 -30 10 -27 0 -30 3 -30 30 0 25 4 30 24 30 14 0
28 -4 31 -10 10 -17 25 -11 25 10 0 18 -7 20 -67 20 -52 0 -64 -3 -55 -12z"/>
</g>
</svg>
